<svg xmlns="http://www.w3.org/2000/svg" xmlns:xlink="http://www.w3.org/1999/xlink" width="400" height="182.318" viewBox="0 0 400 182.318">
  <defs>
    <clipPath id="clip-path">
      <rect id="Image_Place_Holder" data-name="Image Place Holder" width="400" height="165.952" rx="10" transform="translate(180 1448.352)" fill="#fee7bd"/>
    </clipPath>
    <clipPath id="clip-path-2">
      <rect id="Rectángulo_378476" data-name="Rectángulo 378476" width="521.125" height="42.246" fill="none"/>
    </clipPath>
    <clipPath id="clip-path-3">
      <path id="Trazado_611025" data-name="Trazado 611025" d="M80.584,1.073a12.219,12.219,0,0,0-9.911,5.059A11.712,11.712,0,0,1,58.963,8.638,12.173,12.173,0,0,0,48.6,7.971c-.174.064-.347.132-.518.205l-.133.056a12.282,12.282,0,0,0-7,8.671,11.758,11.758,0,0,1-9.684,7.077,12.185,12.185,0,0,0-10.222,4.129,12.327,12.327,0,0,0-2.893,10.74A11.8,11.8,0,0,1,12.2,49.29a12.283,12.283,0,0,0-7.7,7.978c-.012.037-.018.073-.029.1-.055.194-.108.385-.156.578a12.333,12.333,0,0,0,1.895,10.3A11.853,11.853,0,0,1,5,80.226a12.5,12.5,0,0,0,2.237,19.808,11.848,11.848,0,0,1,3.7,11.438,12.337,12.337,0,0,0,.419,10.417c.085.18.177.348.273.518.02.037.037.074.055.1a12.229,12.229,0,0,0,9.32,6.1,11.8,11.8,0,0,1,8.012,8.937A12.4,12.4,0,0,0,45.111,149.1a11.714,11.714,0,0,1,10.956,4.85,12.249,12.249,0,0,0,8.7,6.866c.035.009.069.009.1.017.195.033.388.07.59.1a12.207,12.207,0,0,0,10.005-2.969,11.682,11.682,0,0,1,11.97-.046,12.386,12.386,0,0,0,19.376-4.307,11.716,11.716,0,0,1,10.933-4.893,12.179,12.179,0,0,0,10.269-1.511c.163-.1.322-.211.478-.322.035-.023.074-.046.107-.072a12.313,12.313,0,0,0,5.059-9.951,11.786,11.786,0,0,1,8.009-8.936,12.453,12.453,0,0,0,9.751-17.289A11.843,11.843,0,0,1,155.1,99.147a12.481,12.481,0,0,0,1.908-19.773,11.86,11.86,0,0,1-1.28-12,12.471,12.471,0,0,0-6.259-18.845,11.821,11.821,0,0,1-6.03-10.44,12.327,12.327,0,0,0-3.024-10.644,12.179,12.179,0,0,0-10.323-4.01A11.761,11.761,0,0,1,120.38,16.4a12.283,12.283,0,0,0-7.09-8.529.983.983,0,0,0-.118-.046c-.173-.073-.355-.143-.533-.211a12.2,12.2,0,0,0-10.406.814,11.7,11.7,0,0,1-11.72-2.457,12.222,12.222,0,0,0-9.754-4.9h-.175" transform="translate(-1.105 -1.072)" fill="#b0dfde"/>
    </clipPath>
    <clipPath id="clip-path-4">
      <path id="Trazado_611025-2" data-name="Trazado 611025" d="M80.584,1.073a12.219,12.219,0,0,0-9.911,5.059A11.712,11.712,0,0,1,58.963,8.638,12.173,12.173,0,0,0,48.6,7.971c-.174.064-.347.132-.518.205l-.133.056a12.282,12.282,0,0,0-7,8.671,11.758,11.758,0,0,1-9.684,7.077,12.185,12.185,0,0,0-10.222,4.129,12.327,12.327,0,0,0-2.893,10.74A11.8,11.8,0,0,1,12.2,49.29a12.283,12.283,0,0,0-7.7,7.978c-.012.037-.018.073-.029.1-.055.194-.108.385-.156.578a12.333,12.333,0,0,0,1.895,10.3A11.853,11.853,0,0,1,5,80.226a12.5,12.5,0,0,0,2.237,19.808,11.848,11.848,0,0,1,3.7,11.438,12.337,12.337,0,0,0,.419,10.417c.085.18.177.348.273.518.02.037.037.074.055.1a12.229,12.229,0,0,0,9.32,6.1,11.8,11.8,0,0,1,8.012,8.937A12.4,12.4,0,0,0,45.111,149.1a11.714,11.714,0,0,1,10.956,4.85,12.249,12.249,0,0,0,8.7,6.866c.035.009.069.009.1.017.195.033.388.07.59.1a12.207,12.207,0,0,0,10.005-2.969,11.682,11.682,0,0,1,11.97-.046,12.386,12.386,0,0,0,19.376-4.307,11.716,11.716,0,0,1,10.933-4.893,12.179,12.179,0,0,0,10.269-1.511c.163-.1.322-.211.478-.322.035-.023.074-.046.107-.072a12.313,12.313,0,0,0,5.059-9.951,11.786,11.786,0,0,1,8.009-8.936,12.453,12.453,0,0,0,9.751-17.289A11.843,11.843,0,0,1,155.1,99.147a12.481,12.481,0,0,0,1.908-19.773,11.86,11.86,0,0,1-1.28-12,12.471,12.471,0,0,0-6.259-18.845,11.821,11.821,0,0,1-6.03-10.44,12.327,12.327,0,0,0-3.024-10.644,12.179,12.179,0,0,0-10.323-4.01A11.761,11.761,0,0,1,120.38,16.4a12.283,12.283,0,0,0-7.09-8.529.983.983,0,0,0-.118-.046c-.173-.073-.355-.143-.533-.211a12.2,12.2,0,0,0-10.406.814,11.7,11.7,0,0,1-11.72-2.457,12.222,12.222,0,0,0-9.754-4.9h-.175" transform="translate(-1.105 -1.072)" fill="#fff"/>
    </clipPath>
    <clipPath id="clip-path-5">
      <rect id="Rectángulo_378432" data-name="Rectángulo 378432" width="159.387" height="159.386" fill="none"/>
    </clipPath>
    <clipPath id="clip-path-6">
      <rect id="Rectángulo_379148" data-name="Rectángulo 379148" width="84.384" height="85.089" fill="#3c5756"/>
    </clipPath>
  </defs>
  <g id="Grupo_1099322" data-name="Grupo 1099322" transform="translate(-180 -1370)">
    <g id="Grupo_1099269" data-name="Grupo 1099269" transform="translate(0 -379.534)">
      <g id="Image_Place_Holder-2" data-name="Image Place Holder" transform="translate(180 1749.534)">
        <rect id="Image_Place_Holder-3" data-name="Image Place Holder" width="400" height="182.318" rx="10" fill="#fee7bd"/>
      </g>
    </g>
    <g id="Enmascarar_grupo_1098677" data-name="Enmascarar grupo 1098677" transform="translate(0 -70.352)" clip-path="url(#clip-path)">
      <g id="Grupo_1074086" data-name="Grupo 1074086" transform="translate(-506.793 -4512.273)">
        <g id="Grupo_1074087" data-name="Grupo 1074087" transform="translate(585.668 5995)">
          <g id="Grupo_1074086-2" data-name="Grupo 1074086" transform="translate(0 0)" clip-path="url(#clip-path-2)">
            <path id="Trazado_611083" data-name="Trazado 611083" d="M66.172,4.95h-.344c-.3-.006-.6-.015-.884-.036-.558-.037-1.112-.1-1.655-.186A15.62,15.62,0,0,1,61.73,4.39q-.379-.1-.746-.225c-.243-.079-.48-.171-.711-.264a10.523,10.523,0,0,1-1.292-.626,7.146,7.146,0,0,1-1.052-.73,5.022,5.022,0,0,1-.771-.794A3.058,3.058,0,0,1,56.492,0V0H45.216c0,.038-.007.077-.005.115a6.159,6.159,0,0,0,.41,1.946,7.753,7.753,0,0,0,1.053,1.853,10.89,10.89,0,0,0,1.678,1.732,15.753,15.753,0,0,0,2.26,1.564,22.338,22.338,0,0,0,2.755,1.334q.742.3,1.529.566t1.614.488a34.061,34.061,0,0,0,3.423.741c1.189.191,2.4.328,3.626.408.618.042,1.245.064,1.878.079.078,0,.158,0,.237,0H506.22V4.95Z" transform="translate(14.905 0)" fill="#e36849"/>
            <path id="Trazado_611084" data-name="Trazado 611084" d="M69.866,12.8h-.558c-.093,0-.186,0-.278-.006-.742-.013-1.48-.041-2.209-.09-1.447-.094-2.879-.256-4.283-.482a40.2,40.2,0,0,1-4.044-.873q-.975-.266-1.9-.576t-1.8-.666a26.06,26.06,0,0,1-3.242-1.57A18.527,18.527,0,0,1,48.888,6.7a12.828,12.828,0,0,1-1.98-2.045,9.152,9.152,0,0,1-1.245-2.189A7.253,7.253,0,0,1,45.18.171c0-.057.008-.114.008-.171H33.922a10.388,10.388,0,0,0,.7,3.618,13.236,13.236,0,0,0,1.819,3.2A18.7,18.7,0,0,0,39.33,9.8a26.993,26.993,0,0,0,3.856,2.674,37.857,37.857,0,0,0,4.7,2.278q1.269.513,2.619.968t2.772.839a58.372,58.372,0,0,0,5.909,1.277c2.049.331,4.139.567,6.249.7,1.064.071,2.127.111,3.2.131.133,0,.266.006.4.007h440.9V12.8Z" transform="translate(11.183 0)" fill="#f79621"/>
            <path id="Trazado_611085" data-name="Trazado 611085" d="M73.563,20.654h-.89c-.148,0-.3-.006-.443-.008-1.182-.021-2.362-.067-3.533-.144-2.335-.152-4.646-.411-6.914-.778a64.512,64.512,0,0,1-6.53-1.411q-1.568-.427-3.058-.927t-2.889-1.069A41.65,41.65,0,0,1,44.119,13.8a29.855,29.855,0,0,1-4.255-2.953,20.69,20.69,0,0,1-3.19-3.3,14.537,14.537,0,0,1-2.01-3.538A11.456,11.456,0,0,1,33.884,0H22.614a14.66,14.66,0,0,0,1,5.173A18.756,18.756,0,0,0,26.2,9.722a26.592,26.592,0,0,0,4.1,4.234,38.345,38.345,0,0,0,5.46,3.786A53.314,53.314,0,0,0,42.4,20.964a75.316,75.316,0,0,0,16.035,4.374c2.912.472,5.881.806,8.88,1,1.5.1,3.014.159,4.521.186.189,0,.378.008.566.01H513.66l.009-5.881Z" transform="translate(7.455 0)" fill="#ffbe30"/>
            <path id="Trazado_611086" data-name="Trazado 611086" d="M77.26,28.507h-.608l-.608,0c-.2,0-.4-.007-.608-.01-1.621-.03-3.243-.093-4.857-.2-3.22-.209-6.409-.568-9.535-1.074a80.853,80.853,0,0,1-17.218-4.7,57.32,57.32,0,0,1-7.139-3.459A41.083,41.083,0,0,1,30.826,15a28.5,28.5,0,0,1-4.4-4.546A20.164,20.164,0,0,1,23.65,5.566,15.727,15.727,0,0,1,22.582,0H11.309A18.948,18.948,0,0,0,12.6,6.725a24.3,24.3,0,0,0,3.352,5.9,34.4,34.4,0,0,0,5.305,5.485,49.612,49.612,0,0,0,7.063,4.9,68.932,68.932,0,0,0,8.6,4.167,97.52,97.52,0,0,0,20.77,5.663c3.772.611,7.619,1.045,11.506,1.3q2.918.192,5.851.238c.243,0,.488.01.731.013l.731.006.731,0H517.4V28.507Z" transform="translate(3.728 0)" fill="#8ad0ce"/>
            <path id="Trazado_611087" data-name="Trazado 611087" d="M80.96,36.359l-.773,0-.774-.006c-.258,0-.516-.009-.771-.013-2.062-.038-4.123-.119-6.183-.254-4.109-.266-8.174-.725-12.163-1.371a103.071,103.071,0,0,1-21.952-5.986,72.656,72.656,0,0,1-9.088-4.4,52.5,52.5,0,0,1-7.465-5.175,36.406,36.406,0,0,1-5.607-5.8,25.654,25.654,0,0,1-3.544-6.236A20,20,0,0,1,11.281,0H.005c0,.266-.011.531,0,.8A23.462,23.462,0,0,0,1.586,8.274a29.885,29.885,0,0,0,4.121,7.247,42.341,42.341,0,0,0,6.517,6.736,60.876,60.876,0,0,0,8.666,6.009,84.451,84.451,0,0,0,10.55,5.111,119.74,119.74,0,0,0,25.5,6.953c4.633.751,9.357,1.284,14.131,1.593,2.393.159,4.787.252,7.18.3.3.006.6.012.9.015l.894.007.895,0H521.125V36.359Z" transform="translate(0 0)" fill="#137c78"/>
          </g>
        </g>
      </g>
    </g>
    <g id="Grupo_1074195" data-name="Grupo 1074195" transform="translate(-8.619 -7764.6)">
      <g id="Grupo_1074149" data-name="Grupo 1074149" transform="translate(308.62 9145.601)">
        <g id="Grupo_1074143" data-name="Grupo 1074143" transform="translate(0 0)">
          <g id="Grupo_1074028" data-name="Grupo 1074028">
            <g id="Grupo_1074021" data-name="Grupo 1074021">
              <g id="Grupo_1074018" data-name="Grupo 1074018">
                <g id="Grupo_1074017" data-name="Grupo 1074017" clip-path="url(#clip-path-3)">
                  <path id="Trazado_611056" data-name="Trazado 611056" d="M0,0H177.794V177.515H0Z" transform="translate(-6.715 172.347) rotate(-90)" fill="#b0dfde"/>
                </g>
              </g>
              <g id="Grupo_1074020" data-name="Grupo 1074020" transform="translate(0.267 0.286)">
                <g id="Grupo_1074019" data-name="Grupo 1074019" transform="translate(0 0)" clip-path="url(#clip-path-5)">
                  <path id="Trazado_611027" data-name="Trazado 611027" d="M20.249,141.033a12.13,12.13,0,0,0,4.024,4.52,12.268,12.268,0,0,0,5.646,2.015l.018,0,.021.008a12.131,12.131,0,0,1,5.359,3.364,13.47,13.47,0,0,1,2.921,5.669l.009.035v.041a11.918,11.918,0,0,0,5.124,9.423,11.713,11.713,0,0,0,10.467,1.6l.051-.018.065-.006a12.5,12.5,0,0,1,6.443.916,13.631,13.631,0,0,1,5.085,4.091l.046.057.035.074a11.614,11.614,0,0,0,3.413,4.234,11.445,11.445,0,0,0,4.98,2.206l-.058-.012.676.1c.23.023.483.066.694.075a11.605,11.605,0,0,0,1.316.023,11.324,11.324,0,0,0,2.626-.412,11.465,11.465,0,0,0,4.618-2.545l.059-.053.082-.048a12.64,12.64,0,0,1,6.384-1.808,13.784,13.784,0,0,1,6.395,1.714l.09.047.074.066a11.506,11.506,0,0,0,17.982-4.029l.038-.087.062-.086a12.862,12.862,0,0,1,5.158-4.264,13.93,13.93,0,0,1,6.576-1.033l.107.006.106.031a11.3,11.3,0,0,0,5.239.29A11.521,11.521,0,0,0,141.615,156v-.106l.023-.106a12.987,12.987,0,0,1,3.024-6,14,14,0,0,1,5.611-3.609l.106-.039.1-.012a11.343,11.343,0,0,0,8.483-5.716,11.465,11.465,0,0,0,.577-10.279l-.037-.086-.02-.094a12.962,12.962,0,0,1,.309-6.7,13.956,13.956,0,0,1,3.649-5.581l.072-.071.082-.049a11.718,11.718,0,0,0,1.858-18.494l-.06-.055-.044-.062a12.775,12.775,0,0,1-2.373-6.18,13.845,13.845,0,0,1,1.092-6.493l.031-.075.039-.054A11.924,11.924,0,0,0,158.262,68.1l-.051-.018-.04-.023a12.441,12.441,0,0,1-4.547-4.591,13.492,13.492,0,0,1-1.564-6.242v-.041l.007-.031a12.259,12.259,0,0,0-13.043-14.6,12.252,12.252,0,0,1,10.437,3.869,12.432,12.432,0,0,1,2.894,5.021,12.711,12.711,0,0,1,.328,5.827l.006-.072a12.759,12.759,0,0,0,1.613,5.878,11.562,11.562,0,0,0,4.341,4.172l-.09-.04a12.722,12.722,0,0,1,8.186,8.122,12.866,12.866,0,0,1,.6,5.944,13.04,13.04,0,0,1-2.142,5.6l.069-.129a12.47,12.47,0,0,0-.913,5.876,11.318,11.318,0,0,0,2.2,5.456l-.1-.118a13.1,13.1,0,0,1,4.27,10.992,12.9,12.9,0,0,1-1.913,5.781,13.177,13.177,0,0,1-4.318,4.291l.153-.119a12.237,12.237,0,0,0-3.187,4.9,11.176,11.176,0,0,0-.226,5.793l-.057-.179a13.317,13.317,0,0,1,1.108,6.02A13.311,13.311,0,0,1,150.718,148l.207-.05a12.086,12.086,0,0,0-4.849,3.13,11.018,11.018,0,0,0-2.537,5.13l.023-.212a13.4,13.4,0,0,1-1.419,6.009,13.178,13.178,0,0,1-3.985,4.693,13.438,13.438,0,0,1-5.638,2.434,13.181,13.181,0,0,1-6.123-.368l.211.039a12.079,12.079,0,0,0-5.709.852,11.017,11.017,0,0,0-4.43,3.645l.1-.173A13.233,13.233,0,0,1,112.827,178a13.209,13.209,0,0,1-17.037-.287l.163.112a12.087,12.087,0,0,0-5.6-1.547,11.2,11.2,0,0,0-5.565,1.547l.14-.1a13.049,13.049,0,0,1-8.293,3.25,12.687,12.687,0,0,1-1.525-.054c-.261-.019-.477-.06-.718-.088l-.729-.119.028,0L73.6,180.7a12.748,12.748,0,0,1-2.874-.938,12.964,12.964,0,0,1-6.35-6.39l.08.13a12.379,12.379,0,0,0-4.557-3.79,11.311,11.311,0,0,0-5.833-.9l.116-.025a12.769,12.769,0,0,1-5.918.41,12.46,12.46,0,0,1-5.439-2.315,12.607,12.607,0,0,1-3.84-4.476,12.769,12.769,0,0,1-1.408-5.706l.011.076a12.881,12.881,0,0,0-2.662-5.489,11.7,11.7,0,0,0-5.088-3.358l.04.01a12.276,12.276,0,0,1-9.632-6.907" transform="translate(-10.279 -20.488)" fill="#3c5756"/>
                  <path id="Trazado_611028" data-name="Trazado 611028" d="M112.693,7.328a12.259,12.259,0,0,0-10.83.8l-.018.011-.026.009a12.181,12.181,0,0,1-6.331.5,13.358,13.358,0,0,1-5.739-2.836l-.035-.029-.035-.046a11.836,11.836,0,0,0-9.61-4.58A11.608,11.608,0,0,0,70.74,6.048L70.7,6.1l-.064.058a12.632,12.632,0,0,1-5.814,3.088,13.783,13.783,0,0,1-6.579-.311l-.081-.023-.091-.048a11.49,11.49,0,0,0-10.31-.312,11.409,11.409,0,0,0-6.43,8.047l-.018.092-.044.1a12.908,12.908,0,0,1-4.156,5.25A13.958,13.958,0,0,1,30.9,24.432l-.108.016-.108-.01a11.6,11.6,0,0,0-11.94,8.471,11.451,11.451,0,0,0-.169,5.259l.02.1v.1a13.026,13.026,0,0,1-1.691,6.5,13.929,13.929,0,0,1-4.725,4.706l-.094.06-.094.031a11.421,11.421,0,0,0-7.171,7.376c-.115.4-.237.867-.338,1.334a12.46,12.46,0,0,0-.185,1.3,11.507,11.507,0,0,0,.09,2.674,11.69,11.69,0,0,0,1.98,4.939l.055.078.032.074a12.878,12.878,0,0,1,1.033,6.56,13.84,13.84,0,0,1-2.415,6.131l-.051.075-.053.049a11.726,11.726,0,0,0-3.708,9.891,11.921,11.921,0,0,0,5.69,9.033l.047.027.03.029a12.354,12.354,0,0,1,3.433,5.427,13.478,13.478,0,0,1,.2,6.375l-.005.031-.009.019a12.4,12.4,0,0,0-.572,8.23,13.348,13.348,0,0,0,1.055,2.62,13.475,13.475,0,0,1-1.177-2.582,12.383,12.383,0,0,1,.273-8.445l-.014.049a12.913,12.913,0,0,0-.386-6.1,11.573,11.573,0,0,0-3.389-4.981l.077.057A12.547,12.547,0,0,1,2.156,95.9,12.8,12.8,0,0,1,.108,90.286,12.985,12.985,0,0,1,4.014,79.24l-.1.124a12.4,12.4,0,0,0,2.064-5.523A11.278,11.278,0,0,0,4.94,68.107l.087.152A13.084,13.084,0,0,1,2.7,62.617a13.274,13.274,0,0,1-.124-3.075,13.866,13.866,0,0,1,.213-1.552c.1-.472.214-.935.363-1.461a13.2,13.2,0,0,1,8.239-8.584l-.189.091a12.08,12.08,0,0,0,4.09-4.1,11.111,11.111,0,0,0,1.4-5.576l.02.2a13.393,13.393,0,0,1,.157-6.151A13.254,13.254,0,0,1,30.84,22.541l-.216.007a12.1,12.1,0,0,0,5.412-2.023,11.063,11.063,0,0,0,3.587-4.492l-.062.188a13.269,13.269,0,0,1,2.645-5.529,13.028,13.028,0,0,1,4.834-3.721,13.337,13.337,0,0,1,5.97-1.186,12.922,12.922,0,0,1,5.854,1.637l-.172-.07a12.209,12.209,0,0,0,5.83.408,11.19,11.19,0,0,0,5.2-2.643l-.1.112a12.95,12.95,0,0,1,4.61-3.877,13.131,13.131,0,0,1,11.623.008,12.538,12.538,0,0,1,4.521,3.849l-.07-.073A12.616,12.616,0,0,0,95.628,8a11.62,11.62,0,0,0,6.053-.283l-.044.019a12.281,12.281,0,0,1,5.507-1.519,12.447,12.447,0,0,1,5.549,1.115" transform="translate(-0.879 -0.879)" fill="#3c5756"/>
                </g>
              </g>
            </g>
          </g>
        </g>
        <g id="Grupo_1074144" data-name="Grupo 1074144" transform="translate(29.934 29.959)">
          <rect id="Rectángulo_378411" data-name="Rectángulo 378411" width="100.484" height="100.483" transform="translate(0 0)" fill="none"/>
        </g>
      </g>
      <g id="Grupo_1075307" data-name="Grupo 1075307" transform="translate(346.327 9183.316)">
        <g id="Grupo_1075306" data-name="Grupo 1075306" transform="translate(0 0)" clip-path="url(#clip-path-6)">
          <path id="Trazado_615698" data-name="Trazado 615698" d="M82.007,93.487a2.663,2.663,0,0,1,0-.4c.43-2.832-.785-4.557-3.132-6.262C70.7,80.883,67.356,72.657,69.382,62.766c1.99-9.713,8.164-15.953,17.807-18.342A23.563,23.563,0,0,1,116.111,64.17c1.289,9.942-2.462,17.741-10.689,23.362a4.314,4.314,0,0,0-2.221,4.186c.091,1.329.008,2.67.019,4.005a4.458,4.458,0,0,1-2.538,4.468c-.5.24-.556.579-.627,1.043a5.75,5.75,0,0,1-5.958,5.153c-1.677-.011-3.386.3-5.028-.309a5.76,5.76,0,0,1-3.89-4.678c-.084-.469-.01-.923-.606-1.2a4.408,4.408,0,0,1-2.567-4.446c.006-.757,0-1.513,0-2.27m10.508-.855c2.315,0,4.63-.025,6.944.014.8.013,1.142-.229,1.081-1.062-.217-2.949,1.214-4.861,3.64-6.445a20.289,20.289,0,0,0,9.483-16.064A21.017,21.017,0,0,0,95.83,46.693c-11.938-1.967-23.48,7.023-24.262,19.124a20.487,20.487,0,0,0,9.542,19.36c2.356,1.584,3.785,3.451,3.574,6.346-.066.9.3,1.143,1.155,1.126,2.225-.046,4.451-.016,6.677-.016m.106,5.344c1.645,0,3.289.006,4.934,0a8.134,8.134,0,0,0,1.592-.083,1.658,1.658,0,0,0,1.347-2c-.105-.977-.971-.55-1.492-.554-4.356-.035-8.712-.024-13.068-.017-1.247,0-1.617.655-.994,1.753a1.886,1.886,0,0,0,1.813.9q2.933-.007,5.867,0m.049,2.687c-1.018,0-2.039-.043-3.054.017-.577.034-1.442-.366-1.675.284-.262.732.357,1.414.914,1.934a2.763,2.763,0,0,0,1.9.818c1.239,0,2.481.045,3.718-.012a3.028,3.028,0,0,0,2.723-2c.312-.7.2-1.071-.679-1.044-1.283.039-2.567.01-3.851.008" transform="translate(-50.423 -32.053)" fill="#3c5756"/>
          <path id="Trazado_615699" data-name="Trazado 615699" d="M10.7,120.321c0,2.314.015,4.627-.009,6.941-.007.707.047,1,.946.813a5.139,5.139,0,0,1,4.793,1.422c3.7,3.6,7.4,7.2,10.989,10.9,1.972,2.031,2.3,4.63,1.882,7.347-.067.438-.143.875-.2,1.315-.156,1.175-.71,2.332,1.383,2.582,1.418.169,2.635,5.472,1.77,6.7a2.937,2.937,0,0,1-1.8,1.047q-9.06,2.439-18.123,4.863c-1.755.468-2.809-.178-3.285-1.948-.254-.942-.539-1.877-.766-2.825a2.18,2.18,0,0,1,1.308-2.847c.705-.274.8-.7.789-1.322a6.526,6.526,0,0,0-1.74-4.491c-1.925-2.1-3.839-4.2-5.8-6.262A9.723,9.723,0,0,1,0,137.46c.054-7.83.009-15.661.024-23.491.006-3.182,2.082-5.541,4.972-5.724a5.357,5.357,0,0,1,5.686,5.269c.045,2.268.009,4.538.009,6.807ZM2.7,125.981c0,3.873.031,7.747-.013,11.62a6.643,6.643,0,0,0,1.85,4.844c1.92,2.044,3.809,4.115,5.731,6.156A9.221,9.221,0,0,1,13,154.53c.052,1.013.393,1.058,1.212.83q5.389-1.5,10.8-2.91c.7-.182,1.05-.472,1.124-1.213.141-1.414.365-2.82.552-4.23a6.081,6.081,0,0,0-1.933-5.54c-3.216-3.076-6.337-6.252-9.5-9.383-1.743-1.725-3.513-1.9-4.885-.487-1.346,1.384-1.124,3.164.612,4.889q2.51,2.493,5.023,4.982c.653.647.9,1.387.21,2.1s-1.445.462-2.1-.187c-1.86-1.854-3.746-3.682-5.579-5.562a5.657,5.657,0,0,1-.933-6.985,2.486,2.486,0,0,0,.413-1.233c-.015-5.342.015-10.685-.027-16.027a2.651,2.651,0,0,0-3.156-2.607,2.785,2.785,0,0,0-2.13,2.992c-.014,4.007,0,8.013-.005,12.02m26.063,28.2c-.167.061-.249.1-.334.12-5.531,1.476-11.057,2.973-16.6,4.411-1.4.364-.548,1.193-.486,1.841.073.763.324,1.108,1.293.838,5.342-1.494,10.715-2.878,16.069-4.332.379-.1,1.091-.051,1.058-.571a8.549,8.549,0,0,0-.613-2.153c-.034-.1-.3-.12-.389-.154" transform="translate(-0.001 -79.319)" fill="#3c5756"/>
          <path id="Trazado_615700" data-name="Trazado 615700" d="M226.264,126.032c0,3.737-.066,7.476.023,11.212a9.9,9.9,0,0,1-2.961,7.447c-1.947,2.014-3.828,4.093-5.717,6.162a6.449,6.449,0,0,0-1.693,4.507,1.125,1.125,0,0,0,.731,1.231A2.215,2.215,0,0,1,218,159.528q-.368,1.485-.79,2.956a2.29,2.29,0,0,1-3.057,1.782q-9.392-2.483-18.76-5.057a2.228,2.228,0,0,1-1.647-3.007c.214-.906.553-1.783.745-2.692.283-1.34.966-2.208,2.415-2.176.735.016.518-.428.477-.783-.159-1.367-.391-2.727-.5-4.1a8.07,8.07,0,0,1,2.579-6.722q4.822-4.706,9.564-9.495c1.664-1.68,3.512-2.681,5.96-2.129.952.215.587-.579.589-.94.027-4.36.014-8.72.022-13.081a7.264,7.264,0,0,1,.11-1.591,5.324,5.324,0,0,1,10.546,1.122c.046,4.137.012,8.275.013,12.413m-2.682-.048c0-4.007.011-8.013-.005-12.02-.008-1.837-1.08-3.052-2.634-3.061s-2.663,1.205-2.667,3.021c-.011,5.12,0,10.239-.007,15.359a2.773,2.773,0,0,0,.315,1.395,5.687,5.687,0,0,1-1.1,7.392c-1.693,1.706-3.419,3.38-5.113,5.084-.684.687-1.431,1.25-2.285.409s-.347-1.6.355-2.288c1.745-1.716,3.47-3.452,5.212-5.171a3.275,3.275,0,0,0,1.084-1.934,3.088,3.088,0,0,0-1.54-3.152,3.011,3.011,0,0,0-3.772.652c-3.4,3.339-6.757,6.714-10.155,10.052a5.291,5.291,0,0,0-1.719,4.437c.165,1.769.423,3.53.641,5.294a.921.921,0,0,0,.8.891c3.78.987,7.547,2.021,11.315,3.053.676.185.925.031.961-.729A9.337,9.337,0,0,1,216,148.6c1.89-2.011,3.744-4.054,5.643-6.055a6.879,6.879,0,0,0,1.958-5.073c-.055-3.828-.016-7.657-.016-11.486m-8.31,33.246c-.013-.461-.558-.439-.929-.539-5.442-1.463-10.893-2.894-16.33-4.376-.661-.18-1.149-.161-1.09.574.054.668-1.29,1.593.244,2.01,5.609,1.525,11.229,3.006,16.839,4.529.438.119.674.106.79-.354.141-.559.288-1.117.476-1.845" transform="translate(-141.906 -79.296)" fill="#3c5756"/>
          <path id="Trazado_615701" data-name="Trazado 615701" d="M90.575,16.948a1.314,1.314,0,0,1,1.29.772q1.4,2.414,2.78,4.84a1.22,1.22,0,0,1-.421,1.835,1.263,1.263,0,0,1-1.846-.469c-.994-1.676-1.984-3.357-2.9-5.078a1.273,1.273,0,0,1,1.094-1.9" transform="translate(-65.455 -12.417)" fill="#3c5756"/>
          <path id="Trazado_615702" data-name="Trazado 615702" d="M206.889,24.5a1.26,1.26,0,0,1-.966-1.945c.916-1.718,1.916-3.393,2.917-5.065a1.318,1.318,0,0,1,2.287,1.308q-1.442,2.543-2.909,5.072c-.243.421-.646.586-1.33.63" transform="translate(-150.775 -12.322)" fill="#3c5756"/>
          <path id="Trazado_615703" data-name="Trazado 615703" d="M44.088,63.333a6.34,6.34,0,0,1,.793.33c1.541.875,3.073,1.764,4.608,2.651.8.463,1.19,1.123.675,1.98a1.3,1.3,0,0,1-1.971.361c-1.578-.9-3.155-1.8-4.722-2.719a1.322,1.322,0,0,1-.712-1.568,1.414,1.414,0,0,1,1.329-1.035" transform="translate(-31.296 -46.413)" fill="#3c5756"/>
          <path id="Trazado_615704" data-name="Trazado 615704" d="M245.991,68.928c-.855-.009-1.282-.253-1.532-.8a1.155,1.155,0,0,1,.39-1.539c1.772-1.091,3.587-2.113,5.41-3.117a1.123,1.123,0,0,1,1.5.481,1.06,1.06,0,0,1,.01,1.469,40.785,40.785,0,0,1-5.78,3.509" transform="translate(-179.049 -46.412)" fill="#3c5756"/>
          <path id="Trazado_615705" data-name="Trazado 615705" d="M152.889,4.055c0-.885-.023-1.771.007-2.655.028-.8.383-1.371,1.267-1.4.949-.031,1.377.539,1.39,1.407.029,1.858.025,3.717,0,5.575a1.256,1.256,0,0,1-1.267,1.41c-.931.031-1.363-.545-1.391-1.418-.031-.972-.007-1.947-.007-2.92" transform="translate(-112.037 0)" fill="#3c5756"/>
          <path id="Trazado_615706" data-name="Trazado 615706" d="M96.967,66.49c.85-.065,1.247.537,1.683,1.016a.929.929,0,0,0,1.361.234,4.089,4.089,0,0,1,1.093-.485c1.256-.342,2.093-.869,1.88-2.445-.127-.936.665-1.4,1.581-1.413,1.735-.023,3.471-.029,5.206,0,1.064.019,1.728.6,1.609,1.682a1.567,1.567,0,0,0,1.5,2,1.557,1.557,0,0,1,.607.266,1.766,1.766,0,0,0,2.788-.392,1.3,1.3,0,0,1,2.1.005c1.271,1.246,2.524,2.509,3.774,3.776a1.339,1.339,0,0,1-.042,2.2,1.641,1.641,0,0,0-.378,2.581,1.906,1.906,0,0,1,.317.731,1.576,1.576,0,0,0,1.988,1.509c1.064-.114,1.65.468,1.637,1.6-.019,1.691-.037,3.383.007,5.073.03,1.186-.5,1.82-1.659,1.692a1.547,1.547,0,0,0-1.932,1.43,2.429,2.429,0,0,1-.363.855,1.641,1.641,0,0,0,.38,2.576c.878.679.725,1.531-.044,2.29-1.171,1.157-2.346,2.311-3.488,3.5-.843.875-1.709,1.015-2.476.022a1.525,1.525,0,0,0-2.366-.337,2.549,2.549,0,0,1-.854.36,1.6,1.6,0,0,0-1.493,2.007c.13,1.155-.584,1.668-1.74,1.646q-2.469-.045-4.939,0c-1.254.025-1.858-.589-1.743-1.789.1-1.011-.206-1.6-1.24-1.77a2.211,2.211,0,0,1-.86-.346,1.79,1.79,0,0,0-2.8.414c-.658.839-1.48.587-2.18-.121q-1.784-1.8-3.586-3.587a1.428,1.428,0,0,1,.052-2.4c.823-.668,1.069-1.323.394-2.227a2.421,2.421,0,0,1-.427-.971,1.666,1.666,0,0,0-2.111-1.561c-1.023.118-1.53-.5-1.514-1.555.025-1.691.036-3.383,0-5.073-.03-1.263.58-1.855,1.78-1.733a1.4,1.4,0,0,0,1.774-1.25,2.788,2.788,0,0,1,.4-.984,1.639,1.639,0,0,0-.383-2.58,1.3,1.3,0,0,1-.128-2.1c1.294-1.347,2.634-2.65,3.957-3.969a1.091,1.091,0,0,1,.9-.375m.08,3.24c-.36.334-.659.656-1,.921-.909.7-1.287,1.338-.148,2.243.7.553.48,1.341.036,2.052a11.894,11.894,0,0,0-1.622,3.917c-.213,1.042-.764,1.715-1.934,1.539-1.018-.153-1.143.46-1,1.185.142.7-.662,1.974,1,1.866a1.7,1.7,0,0,1,1.93,1.59,10.986,10.986,0,0,0,1.56,3.8,1.693,1.693,0,0,1-.325,2.565c-.605.472-.614.871,0,1.329a3.233,3.233,0,0,1,.659.658c.545.738,1.049.812,1.658.045a1.532,1.532,0,0,1,2.34-.232,11.022,11.022,0,0,0,3.91,1.633c1.031.224,1.649.715,1.493,1.809-.193,1.351.711,1.154,1.493,1.122.756-.032,1.822.378,1.637-1.106-.136-1.09.442-1.6,1.483-1.82a9.948,9.948,0,0,0,3.677-1.5c1.05-.731,1.946-.8,2.771.267.443.569.844.519,1.277-.013a4.465,4.465,0,0,1,.752-.754c.683-.515.734-.964.017-1.519a1.477,1.477,0,0,1-.438-2.115,15.044,15.044,0,0,0,1.882-4.528c.165-.685.586-1.251,1.254-1.166,1.807.23,1.57-.926,1.586-2.04.011-.761-.131-1.2-1.015-1.071-1.157.167-1.738-.457-1.949-1.522a12.143,12.143,0,0,0-1.682-4.035c-.388-.624-.579-1.379,0-1.833,1.334-1.049.663-1.7-.21-2.555-.655-.641-1.063-.75-1.658.009a1.533,1.533,0,0,1-2.252.287,11.951,11.951,0,0,0-4.031-1.682c-1.018-.211-1.624-.748-1.462-1.843.194-1.314-.669-1.194-1.486-1.157-.778.035-1.826-.324-1.636,1.136.142,1.087-.418,1.646-1.446,1.859a12.024,12.024,0,0,0-4.034,1.676,1.59,1.59,0,0,1-2.268-.252c-.233-.256-.507-.476-.815-.761" transform="translate(-64.98 -46.445)" fill="#3c5756"/>
          <path id="Trazado_615707" data-name="Trazado 615707" d="M140.12,104.833A10.209,10.209,0,1,1,129.878,94.6a10.222,10.222,0,0,1,10.242,10.235m-6.748,6.557a7.279,7.279,0,0,0,3.91-8.228,7.567,7.567,0,0,0-14.781.168c-.62,3.4,1.069,6.916,3.949,8.019,0-.653-.036-1.264.009-1.87.064-.874.008-1.406-1.157-1.558a1.8,1.8,0,0,1-1.074-3q2.009-2.744,4.166-5.38a1.792,1.792,0,0,1,3.059.037c1.435,1.755,2.835,3.544,4.168,5.377a1.813,1.813,0,0,1-1.143,2.987c-1.025.158-1.2.583-1.117,1.447.057.616.011,1.241.011,2m-5.916-6.125c1.381.146,1.741.946,1.691,2.127-.059,1.376.006,2.757-.022,4.134-.012.593.126.887.8.888.713,0,.777-.365.768-.921-.02-1.334.039-2.67-.019-4-.053-1.2.218-2.108,1.634-2.207-1.994-3.652-2.377-3.679-4.632-.438-.05.072-.084.155-.223.419" transform="translate(-87.723 -69.325)" fill="#3c5756"/>
        </g>
      </g>
    </g>
  </g>
</svg>
