<svg xmlns="http://www.w3.org/2000/svg" xmlns:xlink="http://www.w3.org/1999/xlink" width="400" height="182.318" viewBox="0 0 400 182.318">
  <defs>
    <clipPath id="clip-path">
      <rect id="Image_Place_Holder" data-name="Image Place Holder" width="400" height="165.952" rx="10" transform="translate(180 1448.352)" fill="#fee7bd"/>
    </clipPath>
    <clipPath id="clip-path-2">
      <rect id="Rectángulo_401140" data-name="Rectángulo 401140" width="521.125" height="42.246" fill="none"/>
    </clipPath>
    <clipPath id="clip-path-3">
      <path id="Trazado_611025" data-name="Trazado 611025" d="M79.763,1.073A12.093,12.093,0,0,0,69.954,6.08,11.591,11.591,0,0,1,58.365,8.56,12.047,12.047,0,0,0,48.111,7.9c-.172.063-.343.131-.513.2l-.131.055a12.155,12.155,0,0,0-6.931,8.582,11.636,11.636,0,0,1-9.584,7A12.06,12.06,0,0,0,20.836,27.83a12.2,12.2,0,0,0-2.863,10.629,11.678,11.678,0,0,1-5.888,10.333,12.157,12.157,0,0,0-7.624,7.9c-.012.037-.018.072-.029.1-.054.192-.107.381-.154.573a12.205,12.205,0,0,0,1.875,10.2A11.731,11.731,0,0,1,4.959,79.409a12.373,12.373,0,0,0,2.214,19.6,11.726,11.726,0,0,1,3.665,11.32,12.21,12.21,0,0,0,.415,10.31c.084.178.175.345.27.513.02.037.037.073.054.1a12.1,12.1,0,0,0,9.224,6.033,11.677,11.677,0,0,1,7.929,8.845A12.272,12.272,0,0,0,44.657,147.57a11.593,11.593,0,0,1,10.843,4.8,12.123,12.123,0,0,0,8.613,6.795c.034.009.068.009.1.017.193.033.384.069.584.1a12.081,12.081,0,0,0,9.9-2.938,11.561,11.561,0,0,1,11.847-.046,12.258,12.258,0,0,0,19.176-4.263,11.6,11.6,0,0,1,10.82-4.843,12.053,12.053,0,0,0,10.163-1.495c.162-.1.319-.209.473-.318.034-.023.073-.045.105-.071a12.186,12.186,0,0,0,5.007-9.849,11.664,11.664,0,0,1,7.926-8.844,12.325,12.325,0,0,0,9.65-17.11,11.721,11.721,0,0,1,3.646-11.366A12.352,12.352,0,0,0,155.4,78.565a11.737,11.737,0,0,1-1.266-11.875,12.342,12.342,0,0,0-6.194-18.651,11.7,11.7,0,0,1-5.968-10.332,12.2,12.2,0,0,0-2.993-10.535A12.053,12.053,0,0,0,128.765,23.2a11.639,11.639,0,0,1-9.617-6.966A12.157,12.157,0,0,0,112.131,7.8a.973.973,0,0,0-.117-.046c-.171-.072-.351-.141-.528-.209a12.069,12.069,0,0,0-10.3.805,11.578,11.578,0,0,1-11.6-2.431,12.1,12.1,0,0,0-9.654-4.845h-.173" transform="translate(-1.105 -1.072)" fill="#b0dfde"/>
    </clipPath>
    <clipPath id="clip-path-5">
      <rect id="Rectángulo_378432" data-name="Rectángulo 378432" width="160" height="160" fill="none"/>
    </clipPath>
    <clipPath id="clip-path-6">
      <rect id="Rectángulo_379149" data-name="Rectángulo 379149" width="87.644" height="72.874" fill="#3c5756"/>
    </clipPath>
  </defs>
  <g id="Grupo_1099323" data-name="Grupo 1099323" transform="translate(-600 -1370)">
    <g id="Grupo_1099295" data-name="Grupo 1099295" transform="translate(420 -379.534)">
      <g id="Image_Place_Holder-2" data-name="Image Place Holder" transform="translate(180 1749.534)">
        <rect id="Image_Place_Holder-3" data-name="Image Place Holder" width="400" height="182.318" rx="10" fill="#fee7bd"/>
      </g>
    </g>
    <g id="Enmascarar_grupo_1098683" data-name="Enmascarar grupo 1098683" transform="translate(420 -70.352)" clip-path="url(#clip-path)">
      <g id="Grupo_1099298" data-name="Grupo 1099298" transform="translate(-506.793 -4512.273)">
        <g id="Grupo_1099297" data-name="Grupo 1099297" transform="translate(585.668 5995)">
          <g id="Grupo_1099296" data-name="Grupo 1099296" transform="translate(0 0)" clip-path="url(#clip-path-2)">
            <path id="Trazado_873439" data-name="Trazado 873439" d="M66.172,4.95h-.344c-.3-.006-.6-.015-.884-.036-.558-.037-1.112-.1-1.655-.186A15.62,15.62,0,0,1,61.73,4.39q-.379-.1-.746-.225c-.243-.079-.48-.171-.711-.264a10.523,10.523,0,0,1-1.292-.626,7.146,7.146,0,0,1-1.052-.73,5.022,5.022,0,0,1-.771-.794A3.058,3.058,0,0,1,56.492,0V0H45.216c0,.038-.007.077-.005.115a6.159,6.159,0,0,0,.41,1.946,7.753,7.753,0,0,0,1.053,1.853,10.89,10.89,0,0,0,1.678,1.732,15.753,15.753,0,0,0,2.26,1.564,22.338,22.338,0,0,0,2.755,1.334q.742.3,1.529.566t1.614.488a34.061,34.061,0,0,0,3.423.741c1.189.191,2.4.328,3.626.408.618.042,1.245.064,1.878.079.078,0,.158,0,.237,0H506.22V4.95Z" transform="translate(14.905 0)" fill="#e36849"/>
            <path id="Trazado_873440" data-name="Trazado 873440" d="M69.866,12.8h-.558c-.093,0-.186,0-.278-.006-.742-.013-1.48-.041-2.209-.09-1.447-.094-2.879-.256-4.283-.482a40.2,40.2,0,0,1-4.044-.873q-.975-.266-1.9-.576t-1.8-.666a26.06,26.06,0,0,1-3.242-1.57A18.527,18.527,0,0,1,48.888,6.7a12.828,12.828,0,0,1-1.98-2.045,9.152,9.152,0,0,1-1.245-2.189A7.253,7.253,0,0,1,45.18.171c0-.057.008-.114.008-.171H33.922a10.388,10.388,0,0,0,.7,3.618,13.236,13.236,0,0,0,1.819,3.2A18.7,18.7,0,0,0,39.33,9.8a26.993,26.993,0,0,0,3.856,2.674,37.857,37.857,0,0,0,4.7,2.278q1.269.513,2.619.968t2.772.839a58.372,58.372,0,0,0,5.909,1.277c2.049.331,4.139.567,6.249.7,1.064.071,2.127.111,3.2.131.133,0,.266.006.4.007h440.9V12.8Z" transform="translate(11.183 0)" fill="#f79621"/>
            <path id="Trazado_873441" data-name="Trazado 873441" d="M73.563,20.654h-.89c-.148,0-.3-.006-.443-.008-1.182-.021-2.362-.067-3.533-.144-2.335-.152-4.646-.411-6.914-.778a64.512,64.512,0,0,1-6.53-1.411q-1.568-.427-3.058-.927t-2.889-1.069A41.65,41.65,0,0,1,44.119,13.8a29.855,29.855,0,0,1-4.255-2.953,20.69,20.69,0,0,1-3.19-3.3,14.537,14.537,0,0,1-2.01-3.538A11.456,11.456,0,0,1,33.884,0H22.614a14.66,14.66,0,0,0,1,5.173A18.756,18.756,0,0,0,26.2,9.722a26.592,26.592,0,0,0,4.1,4.234,38.345,38.345,0,0,0,5.46,3.786A53.314,53.314,0,0,0,42.4,20.964a75.316,75.316,0,0,0,16.035,4.374c2.912.472,5.881.806,8.88,1,1.5.1,3.014.159,4.521.186.189,0,.378.008.566.01H513.66l.009-5.881Z" transform="translate(7.455 0)" fill="#ffbe30"/>
            <path id="Trazado_873442" data-name="Trazado 873442" d="M77.26,28.507h-.608l-.608,0c-.2,0-.4-.007-.608-.01-1.621-.03-3.243-.093-4.857-.2-3.22-.209-6.409-.568-9.535-1.074a80.853,80.853,0,0,1-17.218-4.7,57.32,57.32,0,0,1-7.139-3.459A41.083,41.083,0,0,1,30.826,15a28.5,28.5,0,0,1-4.4-4.546A20.164,20.164,0,0,1,23.65,5.566,15.727,15.727,0,0,1,22.582,0H11.309A18.948,18.948,0,0,0,12.6,6.725a24.3,24.3,0,0,0,3.352,5.9,34.4,34.4,0,0,0,5.305,5.485,49.612,49.612,0,0,0,7.063,4.9,68.932,68.932,0,0,0,8.6,4.167,97.52,97.52,0,0,0,20.77,5.663c3.772.611,7.619,1.045,11.506,1.3q2.918.192,5.851.238c.243,0,.488.01.731.013l.731.006.731,0H517.4V28.507Z" transform="translate(3.728 0)" fill="#8ad0ce"/>
            <path id="Trazado_873443" data-name="Trazado 873443" d="M80.96,36.359l-.773,0-.774-.006c-.258,0-.516-.009-.771-.013-2.062-.038-4.123-.119-6.183-.254-4.109-.266-8.174-.725-12.163-1.371a103.071,103.071,0,0,1-21.952-5.986,72.656,72.656,0,0,1-9.088-4.4,52.5,52.5,0,0,1-7.465-5.175,36.406,36.406,0,0,1-5.607-5.8,25.654,25.654,0,0,1-3.544-6.236A20,20,0,0,1,11.281,0H.005c0,.266-.011.531,0,.8A23.462,23.462,0,0,0,1.586,8.274a29.885,29.885,0,0,0,4.121,7.247,42.341,42.341,0,0,0,6.517,6.736,60.876,60.876,0,0,0,8.666,6.009,84.451,84.451,0,0,0,10.55,5.111,119.74,119.74,0,0,0,25.5,6.953c4.633.751,9.357,1.284,14.131,1.593,2.393.159,4.787.252,7.18.3.3.006.6.012.9.015l.894.007.895,0H521.125V36.359Z" transform="translate(0 0)" fill="#137c78"/>
          </g>
        </g>
      </g>
    </g>
    <g id="Grupo_1074198" data-name="Grupo 1074198" transform="translate(412 -7763.734)">
      <g id="Grupo_1074149" data-name="Grupo 1074149" transform="translate(308 9144.735)">
        <g id="Grupo_1074143" data-name="Grupo 1074143" transform="translate(0 0)">
          <g id="Grupo_1074028" data-name="Grupo 1074028" transform="translate(0)">
            <g id="Grupo_1074021" data-name="Grupo 1074021">
              <g id="Grupo_1074018" data-name="Grupo 1074018" transform="translate(0.618 0.864)">
                <g id="Grupo_1074017" data-name="Grupo 1074017" clip-path="url(#clip-path-3)">
                  <path id="Trazado_611056" data-name="Trazado 611056" d="M0,0H175.958V175.682H0Z" transform="translate(-6.646 170.568) rotate(-90)" fill="#b0dfde"/>
                </g>
              </g>
              <g id="Grupo_1074020" data-name="Grupo 1074020">
                <g id="Grupo_1074019" data-name="Grupo 1074019" clip-path="url(#clip-path-5)">
                  <path id="Trazado_611027" data-name="Trazado 611027" d="M20.249,140.034a12.007,12.007,0,0,0,3.983,4.475,12.144,12.144,0,0,0,5.589,1.994l.018,0,.021.008a12.008,12.008,0,0,1,5.3,3.33,13.334,13.334,0,0,1,2.891,5.611l.009.035v.041a11.8,11.8,0,0,0,5.072,9.327A11.594,11.594,0,0,0,53.5,166.438l.051-.018.065-.006a12.374,12.374,0,0,1,6.378.907,13.493,13.493,0,0,1,5.034,4.049l.045.056.034.074a11.5,11.5,0,0,0,3.378,4.191,11.329,11.329,0,0,0,4.93,2.184l-.058-.012.669.1c.228.023.478.065.687.075a11.488,11.488,0,0,0,1.3.023,11.21,11.21,0,0,0,2.6-.408,11.349,11.349,0,0,0,4.571-2.519l.058-.053.081-.047a12.511,12.511,0,0,1,6.319-1.79,13.644,13.644,0,0,1,6.33,1.7l.089.046.074.065a11.389,11.389,0,0,0,17.8-3.988l.038-.086.061-.085a12.732,12.732,0,0,1,5.106-4.22,13.789,13.789,0,0,1,6.509-1.022l.106.006.1.031a11.182,11.182,0,0,0,5.186.287,11.4,11.4,0,0,0,9.337-11.126v-.1l.023-.1A12.855,12.855,0,0,1,143.4,148.7a13.854,13.854,0,0,1,5.554-3.572l.105-.038.1-.012a11.228,11.228,0,0,0,8.4-5.658,11.349,11.349,0,0,0,.571-10.175l-.037-.085-.02-.093a12.831,12.831,0,0,1,.306-6.634,13.815,13.815,0,0,1,3.612-5.524l.072-.07.081-.049a11.6,11.6,0,0,0,1.839-18.306l-.059-.055-.044-.062a12.645,12.645,0,0,1-2.349-6.117,13.7,13.7,0,0,1,1.081-6.427l.031-.074.038-.054a11.8,11.8,0,0,0-5.817-17.853l-.051-.018-.039-.023a12.315,12.315,0,0,1-4.5-4.544,13.355,13.355,0,0,1-1.548-6.179v-.041l.007-.03a12.134,12.134,0,0,0-12.911-14.451,12.128,12.128,0,0,1,10.331,3.829,12.306,12.306,0,0,1,2.865,4.971,12.582,12.582,0,0,1,.325,5.768l.006-.071a12.63,12.63,0,0,0,1.6,5.819,11.445,11.445,0,0,0,4.3,4.13l-.089-.04a12.593,12.593,0,0,1,8.1,8.04,12.735,12.735,0,0,1,.593,5.884,12.908,12.908,0,0,1-2.12,5.54l.068-.128a12.344,12.344,0,0,0-.9,5.816,11.2,11.2,0,0,0,2.173,5.4l-.1-.117a12.962,12.962,0,0,1,4.227,10.881A12.77,12.77,0,0,1,167.294,114a13.043,13.043,0,0,1-4.274,4.247l.152-.118a12.113,12.113,0,0,0-3.155,4.847,11.063,11.063,0,0,0-.223,5.735l-.057-.177a13.182,13.182,0,0,1,1.1,5.959A13.177,13.177,0,0,1,149.4,146.934l.2-.05a11.963,11.963,0,0,0-4.8,3.1,10.906,10.906,0,0,0-2.512,5.078l.023-.21a13.262,13.262,0,0,1-1.4,5.948,13.044,13.044,0,0,1-3.945,4.645,13.3,13.3,0,0,1-5.581,2.409,13.048,13.048,0,0,1-6.061-.364l.208.038a11.957,11.957,0,0,0-5.651.843,10.905,10.905,0,0,0-4.385,3.608l.1-.171a13.1,13.1,0,0,1-3.7,4.823,13.075,13.075,0,0,1-16.864-.284l.162.111a11.964,11.964,0,0,0-5.546-1.531,11.089,11.089,0,0,0-5.509,1.531l.139-.1a12.917,12.917,0,0,1-8.209,3.217,12.558,12.558,0,0,1-1.51-.053c-.259-.019-.473-.059-.711-.087l-.722-.118.028,0-.085-.015a12.617,12.617,0,0,1-2.845-.928,12.833,12.833,0,0,1-6.286-6.326l.079.128a12.254,12.254,0,0,0-4.511-3.752,11.2,11.2,0,0,0-5.774-.9l.115-.025a12.639,12.639,0,0,1-5.858.406,12.334,12.334,0,0,1-5.383-2.291,12.48,12.48,0,0,1-3.8-4.43,12.64,12.64,0,0,1-1.394-5.648l.011.076a12.75,12.75,0,0,0-2.635-5.434,11.58,11.58,0,0,0-5.036-3.324l.04.01a12.152,12.152,0,0,1-9.534-6.837" transform="translate(-9.51 -19.578)" fill="#3c5756"/>
                  <path id="Trazado_611028" data-name="Trazado 611028" d="M111.55,7.253a12.134,12.134,0,0,0-10.72.793l-.018.011-.026.009a12.058,12.058,0,0,1-6.267.493,13.223,13.223,0,0,1-5.681-2.807L88.8,5.724l-.034-.045a11.716,11.716,0,0,0-9.512-4.534,11.49,11.49,0,0,0-9.234,4.842l-.038.054-.064.057a12.5,12.5,0,0,1-5.755,3.056,13.643,13.643,0,0,1-6.512-.307l-.081-.023-.09-.048a11.373,11.373,0,0,0-10.206-.308,11.293,11.293,0,0,0-6.365,7.965l-.018.091-.043.1a12.778,12.778,0,0,1-4.114,5.2,13.816,13.816,0,0,1-6.155,2.369l-.107.016-.107-.01A11.479,11.479,0,0,0,18.55,32.576a11.335,11.335,0,0,0-.168,5.206l.02.1v.1a12.894,12.894,0,0,1-1.674,6.436,13.788,13.788,0,0,1-4.678,4.658l-.093.059-.093.031a11.3,11.3,0,0,0-7.1,7.3c-.113.395-.234.858-.334,1.32a12.333,12.333,0,0,0-.183,1.29,11.391,11.391,0,0,0,.089,2.646A11.572,11.572,0,0,0,6.3,66.612l.054.077.031.073a12.748,12.748,0,0,1,1.022,6.493,13.7,13.7,0,0,1-2.391,6.069l-.05.075-.053.048a11.608,11.608,0,0,0-3.67,9.791,11.8,11.8,0,0,0,5.633,8.941l.046.027.03.029a12.229,12.229,0,0,1,3.4,5.372,13.341,13.341,0,0,1,.2,6.311l-.005.03-.009.019a12.271,12.271,0,0,0-.566,8.146,13.213,13.213,0,0,0,1.044,2.594,13.339,13.339,0,0,1-1.165-2.556,12.258,12.258,0,0,1,.27-8.359l-.014.049a12.782,12.782,0,0,0-.382-6.034,11.456,11.456,0,0,0-3.355-4.93l.076.056a12.42,12.42,0,0,1-4.306-4A12.674,12.674,0,0,1,.107,89.371,12.853,12.853,0,0,1,3.973,78.437l-.1.123a12.277,12.277,0,0,0,2.043-5.467A11.164,11.164,0,0,0,4.89,67.417l.086.151a12.952,12.952,0,0,1-2.3-5.585,13.14,13.14,0,0,1-.123-3.044A13.726,13.726,0,0,1,2.765,57.4c.1-.467.212-.925.359-1.447a13.064,13.064,0,0,1,8.155-8.5l-.187.09a11.958,11.958,0,0,0,4.048-4.062,11,11,0,0,0,1.383-5.519l.02.2a13.258,13.258,0,0,1,.155-6.088,13.12,13.12,0,0,1,13.83-9.764l-.214.007a11.979,11.979,0,0,0,5.357-2,10.951,10.951,0,0,0,3.551-4.446l-.061.186a13.135,13.135,0,0,1,2.618-5.473A12.9,12.9,0,0,1,46.562,6.9a13.2,13.2,0,0,1,5.909-1.174,12.79,12.79,0,0,1,5.794,1.621l-.17-.069a12.085,12.085,0,0,0,5.771.4,11.076,11.076,0,0,0,5.15-2.617l-.1.111a12.818,12.818,0,0,1,4.564-3.838,13,13,0,0,1,11.506.008,12.411,12.411,0,0,1,4.475,3.81l-.069-.072a12.488,12.488,0,0,0,5.269,2.83,11.5,11.5,0,0,0,5.992-.28l-.044.019a12.156,12.156,0,0,1,5.451-1.5,12.321,12.321,0,0,1,5.493,1.1" transform="translate(0 0.262)" fill="#3c5756"/>
                </g>
              </g>
            </g>
          </g>
        </g>
        <g id="Grupo_1074144" data-name="Grupo 1074144" transform="translate(30.434 30.696)">
          <rect id="Rectángulo_378411" data-name="Rectángulo 378411" width="99.084" height="99.083" transform="translate(0 0)" fill="none"/>
        </g>
      </g>
      <g id="Grupo_1075309" data-name="Grupo 1075309" transform="translate(344.049 9188.427)">
        <g id="Grupo_1075308" data-name="Grupo 1075308" clip-path="url(#clip-path-6)">
          <path id="Trazado_615708" data-name="Trazado 615708" d="M110.175,35.069a19.084,19.084,0,0,1,1.478,6.308,16.1,16.1,0,0,1-1.885,8.295A1.182,1.182,0,0,0,110,51.3c2.38,2.779,5.725,4.438,8.139,7.2,1.949,2.227,4.178,4.206,6.262,6.317,2.123,2.151,2.238,4.912.316,6.8-1.854,1.818-4.644,1.673-6.7-.379-3.071-3.059-6.263-6.012-9.128-9.253-1.484-1.679-2.753-3.559-4.387-5.134a1.131,1.131,0,0,0-1.61-.269,15.187,15.187,0,0,1-9.106,1.814c-.983-.117-1.132.23-1.122,1.086.039,3.194.027,6.39.011,9.584-.011,2.211-1.075,3.264-3.279,3.273-2.784.011-5.568-.008-8.353.009-.918.006-1.877.005-1.885-1.211-.009-1.3,1-1.3,1.962-1.29,2.6.015,5.2-.026,7.8.021.945.017,1.29-.292,1.277-1.256q-.065-4.928,0-9.858a1.259,1.259,0,0,0-.933-1.416,15.265,15.265,0,0,1-6.5-4.621,1.768,1.768,0,0,0-1.531-.665c-3.1.029-6.207.013-9.311.013-.319,0-.639,0-.958,0-.873-.014-1.577-.327-1.595-1.3-.019-.994.687-1.3,1.567-1.3q3.971,0,7.942,0c1.58,0,1.569,0,1-1.5a5.875,5.875,0,0,1-.556-1.822c-.038-1.508-.857-1.72-2.132-1.666-2.05.087-4.107.022-6.16.021-.842,0-1.624-.173-1.658-1.2-.036-1.079.724-1.362,1.648-1.363,2.191,0,4.383-.051,6.571.022.959.032,1.2-.3,1.288-1.21a16.056,16.056,0,0,1,8.241-12.953,1.488,1.488,0,0,0,.841-1.5c-.029-4.7.009-9.4-.029-14.1a3.089,3.089,0,0,1,1.69-3.158c.515-.25.567-.625.561-1.109-.017-1.369-.056-2.741.011-4.107.05-1.034-.36-1.338-1.358-1.329-4.518.039-9.037.017-13.555.017H55.153c-.365,0-.732.016-1.095-.016A1.121,1.121,0,0,1,52.93,1.337,1.154,1.154,0,0,1,54.039.03,7.994,7.994,0,0,1,55.133.006q16.91,0,33.82,0c2.764,0,3.711.94,3.719,3.681a32.359,32.359,0,0,1-.026,3.557c-.144,1.332.416,1.541,1.6,1.533,7.667-.048,15.335-.025,23-.024,3.063,0,3.947.9,3.948,4q0,9.106,0,18.211c0,3.212-.9,4.1-4.172,4.1h-6.849M95.286,55.876a13.836,13.836,0,1,0-13.873-13.74,13.782,13.782,0,0,0,13.873,13.74m-4.8-29.664c.283-.034.462-.041.635-.078,6.864-1.466,12.59.409,17.075,5.854a1.6,1.6,0,0,0,1.434.552c2.507-.011,5.015-.05,7.52.016,1.106.029,1.512-.285,1.5-1.452q-.076-9.229,0-18.46c.01-1.194-.435-1.437-1.518-1.422-3.919.054-7.84.021-11.76.021q-6.769,0-13.538,0c-.613,0-1.355-.177-1.354.848.005,4.69,0,9.38,0,14.117M123.517,68.4a2.82,2.82,0,0,0-1.033-1.855q-3.629-3.611-7.243-7.239c-2.027-2.029-1.989-1.993-4.014.011-.7.691-.486,1.03.088,1.594,2.791,2.743,5.543,5.527,8.317,8.287a5.024,5.024,0,0,0,1.044.863,1.941,1.941,0,0,0,2.841-1.662M109.143,57.772A14.1,14.1,0,0,0,110.76,56.1c.3-.425-.291-.675-.542-.947-.583-.63-1.239-1.2-1.8-1.841-.49-.56-.805-.452-1.29.039-1.242,1.258-1.269,1.232.01,2.511.48.48.957.963,1.442,1.437.156.153.334.282.568.476" transform="translate(-38.433 0)" fill="#3c5756"/>
          <path id="Trazado_615709" data-name="Trazado 615709" d="M0,36.111Q0,19.958,0,3.805C0,.981.967.01,3.766.007,5.591,0,7.417.019,9.242,0c.9-.009,1.729.118,1.753,1.228S10.222,2.516,9.3,2.5C7.7,2.478,6.107,2.5,4.51,2.5c-1.973,0-1.975,0-1.975,1.912q0,9.24,0,18.48,0,22.586,0,45.173c0,1.78,0,1.781,1.814,1.781H34.875a8.764,8.764,0,0,1,1.23.027,1.161,1.161,0,0,1,1.1,1.316,1.115,1.115,0,0,1-1.137,1.132c-.318.021-.638.013-.958.013q-15.742,0-31.484,0C1,72.33,0,71.336,0,68.69Q0,52.4,0,36.111" transform="translate(0 0)" fill="#3c5756"/>
          <path id="Trazado_615710" data-name="Trazado 615710" d="M41.378,170.729c-2.417,0-4.834.014-7.251,0-1.767-.014-2.543-.72-2.556-2.474q-.052-7.387,0-14.776c.013-1.7.851-2.46,2.59-2.466q7.251-.026,14.5,0c1.719.007,2.543.784,2.555,2.5q.053,7.388,0,14.776c-.014,1.74-.8,2.426-2.591,2.438-2.417.016-4.834,0-7.251,0M41.26,168.2c2.051,0,4.1-.038,6.152.018.9.024,1.289-.164,1.276-1.183-.056-4.1-.041-8.2-.008-12.3.006-.805-.2-1.129-1.062-1.121q-6.221.052-12.442,0c-.86-.007-1.069.316-1.062,1.121.033,4.1.048,8.2-.008,12.305-.014,1.019.375,1.209,1.276,1.183,1.958-.056,3.919-.017,5.879-.017" transform="translate(-22.906 -109.643)" fill="#3c5756"/>
          <path id="Trazado_615711" data-name="Trazado 615711" d="M51.494,73.446q-7.8,0-15.59,0a7.234,7.234,0,0,1-1.227-.047,1.125,1.125,0,0,1-.972-1.15,1.165,1.165,0,0,1,.949-1.311,6.307,6.307,0,0,1,1.362-.058q15.59,0,31.18,0c.365,0,.731-.014,1.094.015a1.212,1.212,0,0,1,1.249,1.331,1.168,1.168,0,0,1-1.224,1.208c-.364.02-.729.014-1.094.014H51.494" transform="translate(-24.472 -51.462)" fill="#3c5756"/>
          <path id="Trazado_615712" data-name="Trazado 615712" d="M48.755,100.858h-13a2.562,2.562,0,0,1-1.584-.294,1.184,1.184,0,0,1-.45-1.215,1.03,1.03,0,0,1,.831-.968,7.271,7.271,0,0,1,1.353-.123q12.865-.01,25.731,0c.228,0,.457-.006.684.006.852.042,1.59.306,1.584,1.306s-.743,1.282-1.6,1.285c-3.376.012-6.752.007-10.128.008H48.755" transform="translate(-24.471 -71.344)" fill="#3c5756"/>
          <path id="Trazado_615713" data-name="Trazado 615713" d="M48.741,128.323c-4.381,0-8.762-.008-13.144.007-.947,0-1.839-.108-1.857-1.279s.873-1.305,1.823-1.3q13.212.014,26.424,0c.974,0,1.969.06,1.933,1.333-.033,1.154-.963,1.25-1.9,1.248-4.427-.012-8.854-.005-13.28-.005" transform="translate(-24.5 -91.309)" fill="#3c5756"/>
          <path id="Trazado_615714" data-name="Trazado 615714" d="M95.786,43.61c3.052,0,6.1.006,9.157,0,.884,0,1.749.1,1.77,1.207.021,1.149-.83,1.362-1.793,1.361q-9.088-.011-18.177,0c-.935,0-1.831-.127-1.832-1.31,0-1.226.949-1.254,1.855-1.253q4.51,0,9.02,0" transform="translate(-61.656 -31.664)" fill="#3c5756"/>
          <path id="Trazado_615715" data-name="Trazado 615715" d="M119.971,210.494c-1.818,0-3.636-.012-5.455,0-.9.008-1.572-.29-1.558-1.275s.717-1.266,1.595-1.266q5.455.006,10.909,0c.883,0,1.6.269,1.622,1.238.028,1.063-.711,1.326-1.659,1.311-1.818-.029-3.636-.008-5.455-.009" transform="translate(-82.023 -151.003)" fill="#3c5756"/>
          <path id="Trazado_615716" data-name="Trazado 615716" d="M36.59,43.69c.5,0,1-.027,1.5.007a1.232,1.232,0,0,1,.117,2.451,21.652,21.652,0,0,1-3.538-.008,1.239,1.239,0,0,1,.147-2.439c.59-.031,1.182-.006,1.774-.006v0" transform="translate(-24.477 -31.717)" fill="#3c5756"/>
          <path id="Trazado_615717" data-name="Trazado 615717" d="M62.491,43.663c.452,0,.9-.019,1.355.006A1.173,1.173,0,0,1,65.1,44.821a1.2,1.2,0,0,1-1.219,1.347,17.565,17.565,0,0,1-2.843,0A1.18,1.18,0,0,1,59.866,44.8a1.153,1.153,0,0,1,1.269-1.131c.451-.016.9,0,1.355,0" transform="translate(-43.467 -31.7)" fill="#3c5756"/>
          <path id="Trazado_615718" data-name="Trazado 615718" d="M179.331,135.03a11.2,11.2,0,0,1-10.835-7.19c-.3-.842-.474-1.688.525-2.086,1.043-.415,1.533.26,1.913,1.185a8.6,8.6,0,0,0,15.9.413,8.6,8.6,0,0,0-15.5-7.455,12.507,12.507,0,0,0-.535,1.254c-.31.809-.9,1.218-1.711.9-.775-.3-.966-.916-.7-1.786a11.193,11.193,0,1,1,12.755,14.616,13.7,13.7,0,0,1-1.817.147" transform="translate(-122.18 -81.833)" fill="#3c5756"/>
          <path id="Trazado_615719" data-name="Trazado 615719" d="M191.492,150.338c-1.459,0-2.918-.021-4.376.008-.9.018-1.581-.28-1.631-1.236-.051-.979.615-1.332,1.517-1.331q4.445,0,8.889,0c.828,0,1.481.318,1.5,1.222.022.966-.613,1.339-1.524,1.335-1.459-.007-2.917,0-4.376,0" transform="translate(-134.686 -107.307)" fill="#3c5756"/>
          <path id="Trazado_615720" data-name="Trazado 615720" d="M196.209,131.972c.908,0,1.815,0,2.723,0a1.242,1.242,0,1,1,.026,2.479c-1.951.012-3.9,0-5.855,0a1.161,1.161,0,0,1-1.317-1.233,1.141,1.141,0,0,1,1.291-1.247q1.566,0,3.132,0" transform="translate(-139.263 -95.828)" fill="#3c5756"/>
          <path id="Trazado_615721" data-name="Trazado 615721" d="M196.08,166.363c-1,0-2,.02-3-.007a1.177,1.177,0,0,1-1.285-1.278,1.159,1.159,0,0,1,1.313-1.236q2.931,0,5.861,0a1.162,1.162,0,0,1,1.3,1.257,1.211,1.211,0,0,1-1.323,1.258c-.953.028-1.908.007-2.862.006" transform="translate(-139.27 -118.969)" fill="#3c5756"/>
          <path id="Trazado_615722" data-name="Trazado 615722" d="M214.466,75.181c2.781,0,5.562.013,8.343-.007.981-.007,1.837.252,1.813,1.352-.022,1.025-.9,1.254-1.791,1.254q-8.411,0-16.822,0c-.921,0-1.848-.182-1.8-1.363.042-1.06.874-1.241,1.778-1.237,2.826.012,5.653,0,8.479,0" transform="translate(-148.282 -54.586)" fill="#3c5756"/>
          <path id="Trazado_615723" data-name="Trazado 615723" d="M214.282,57.318c-2.78,0-5.561-.013-8.341.007-.921.007-1.718-.191-1.742-1.257-.024-1.1.8-1.281,1.708-1.28q8.478.007,16.955,0c.915,0,1.767.213,1.757,1.25-.011,1.1-.885,1.305-1.86,1.295-2.826-.03-5.652-.011-8.477-.011" transform="translate(-148.276 -39.781)" fill="#3c5756"/>
          <path id="Trazado_615724" data-name="Trazado 615724" d="M257.587,98.338c-.729,0-1.462.045-2.186-.013a1.2,1.2,0,0,1-1.226-1.351,1.164,1.164,0,0,1,1.253-1.176q2.119-.03,4.238,0a1.19,1.19,0,0,1,1.245,1.2,1.24,1.24,0,0,1-1.275,1.324c-.68.049-1.366.01-2.05.01" transform="translate(-184.563 -69.552)" fill="#3c5756"/>
          <path id="Trazado_615725" data-name="Trazado 615725" d="M53.068,166.991c1.321,0,2.643.005,3.964,0,.73,0,1.29.293,1.378,1.036.093.788.3,1.689-.593,2.214a1.193,1.193,0,0,1-1.685-.366,1.206,1.206,0,0,0-1.488-.292c-.493.167-.269.71-.279,1.088-.028,1.047-.013,2.1-.009,3.144,0,.791-.182,1.6.78,2.11.463.245.417.878.232,1.376a1.056,1.056,0,0,1-1.066.7q-1.23.013-2.46,0a1.057,1.057,0,0,1-1.067-.7c-.187-.5-.23-1.132.23-1.377.958-.509.779-1.317.782-2.11,0-1.094.014-2.187-.008-3.281-.007-.337.171-.821-.277-.956s-1-.274-1.389.2a1.277,1.277,0,0,1-1.9.391c-.8-.581-.606-1.49-.449-2.271.165-.818.877-.927,1.615-.914,1.23.021,2.461.006,3.691.007" transform="translate(-34.579 -121.253)" fill="#3c5756"/>
        </g>
      </g>
    </g>
  </g>
</svg>
