<svg xmlns="http://www.w3.org/2000/svg" xmlns:xlink="http://www.w3.org/1999/xlink" width="400" height="182.318" viewBox="0 0 400 182.318">
  <defs>
    <clipPath id="clip-path">
      <rect id="Image_Place_Holder" data-name="Image Place Holder" width="400" height="165.952" rx="10" transform="translate(180 1448.352)" fill="#fee7bd"/>
    </clipPath>
    <clipPath id="clip-path-2">
      <rect id="Rectángulo_401144" data-name="Rectángulo 401144" width="521.125" height="42.246" fill="none"/>
    </clipPath>
    <clipPath id="clip-path-3">
      <path id="Trazado_611025" data-name="Trazado 611025" d="M80.03,1.073A12.134,12.134,0,0,0,70.188,6.1,11.631,11.631,0,0,1,58.56,8.585a12.088,12.088,0,0,0-10.289-.662c-.172.064-.345.131-.514.2l-.132.056a12.2,12.2,0,0,0-6.955,8.611,11.676,11.676,0,0,1-9.616,7.027A12.1,12.1,0,0,0,20.9,27.92,12.241,12.241,0,0,0,18.03,38.586a11.718,11.718,0,0,1-5.908,10.368,12.2,12.2,0,0,0-7.649,7.923c-.012.037-.018.072-.029.1-.054.192-.107.383-.155.574A12.247,12.247,0,0,0,6.171,67.787a11.77,11.77,0,0,1-1.2,11.888,12.415,12.415,0,0,0,2.221,19.67A11.766,11.766,0,0,1,10.871,110.7a12.251,12.251,0,0,0,.416,10.345c.084.179.176.346.271.515.02.037.037.073.054.1a12.144,12.144,0,0,0,9.255,6.054,11.717,11.717,0,0,1,7.956,8.875A12.314,12.314,0,0,0,44.8,148.067a11.632,11.632,0,0,1,10.88,4.816,12.164,12.164,0,0,0,8.642,6.818c.035.009.068.009.1.017.194.033.385.069.586.1a12.122,12.122,0,0,0,9.935-2.948,11.6,11.6,0,0,1,11.887-.046,12.3,12.3,0,0,0,19.241-4.277,11.635,11.635,0,0,1,10.857-4.859,12.094,12.094,0,0,0,10.2-1.5c.162-.1.32-.209.474-.32.035-.023.073-.045.106-.072a12.227,12.227,0,0,0,5.024-9.882,11.7,11.7,0,0,1,7.953-8.874,12.366,12.366,0,0,0,9.683-17.168,11.761,11.761,0,0,1,3.659-11.4,12.394,12.394,0,0,0,1.9-19.636,11.777,11.777,0,0,1-1.271-11.915A12.384,12.384,0,0,0,148.442,48.2a11.739,11.739,0,0,1-5.988-10.367,12.241,12.241,0,0,0-3-10.57A12.094,12.094,0,0,0,129.2,23.28a11.679,11.679,0,0,1-9.649-6.99,12.2,12.2,0,0,0-7.041-8.47.977.977,0,0,0-.118-.046c-.172-.073-.353-.142-.53-.209a12.11,12.11,0,0,0-10.333.808A11.618,11.618,0,0,1,89.89,5.933,12.137,12.137,0,0,0,80.2,1.072H80.03" transform="translate(-1.105 -1.072)" fill="#b0dfde"/>
    </clipPath>
    <clipPath id="clip-path-5">
      <rect id="Rectángulo_378432" data-name="Rectángulo 378432" width="160" height="160" fill="none"/>
    </clipPath>
    <clipPath id="clip-path-6">
      <rect id="Rectángulo_379153" data-name="Rectángulo 379153" width="83.27" height="83.561" fill="#3c5756"/>
    </clipPath>
  </defs>
  <g id="Grupo_1099324" data-name="Grupo 1099324" transform="translate(-1020 -1370)">
    <g id="Grupo_1099311" data-name="Grupo 1099311" transform="translate(840 -379.534)">
      <g id="Image_Place_Holder-2" data-name="Image Place Holder" transform="translate(180 1749.534)">
        <rect id="Image_Place_Holder-3" data-name="Image Place Holder" width="400" height="182.318" rx="10" fill="#fee7bd"/>
      </g>
    </g>
    <g id="Enmascarar_grupo_1098687" data-name="Enmascarar grupo 1098687" transform="translate(840 -70.351)" clip-path="url(#clip-path)">
      <g id="Grupo_1099314" data-name="Grupo 1099314" transform="translate(-506.793 -4512.273)">
        <g id="Grupo_1099313" data-name="Grupo 1099313" transform="translate(585.668 5995)">
          <g id="Grupo_1099312" data-name="Grupo 1099312" transform="translate(0 0)" clip-path="url(#clip-path-2)">
            <path id="Trazado_873459" data-name="Trazado 873459" d="M66.172,4.95h-.344c-.3-.006-.6-.015-.884-.036-.558-.037-1.112-.1-1.655-.186A15.62,15.62,0,0,1,61.73,4.39q-.379-.1-.746-.225c-.243-.079-.48-.171-.711-.264a10.523,10.523,0,0,1-1.292-.626,7.146,7.146,0,0,1-1.052-.73,5.022,5.022,0,0,1-.771-.794A3.058,3.058,0,0,1,56.492,0V0H45.216c0,.038-.007.077-.005.115a6.159,6.159,0,0,0,.41,1.946,7.753,7.753,0,0,0,1.053,1.853,10.89,10.89,0,0,0,1.678,1.732,15.753,15.753,0,0,0,2.26,1.564,22.338,22.338,0,0,0,2.755,1.334q.742.3,1.529.566t1.614.488a34.061,34.061,0,0,0,3.423.741c1.189.191,2.4.328,3.626.408.618.042,1.245.064,1.878.079.078,0,.158,0,.237,0H506.22V4.95Z" transform="translate(14.905 0)" fill="#e36849"/>
            <path id="Trazado_873460" data-name="Trazado 873460" d="M69.866,12.8h-.558c-.093,0-.186,0-.278-.006-.742-.013-1.48-.041-2.209-.09-1.447-.094-2.879-.256-4.283-.482a40.2,40.2,0,0,1-4.044-.873q-.975-.266-1.9-.576t-1.8-.666a26.06,26.06,0,0,1-3.242-1.57A18.527,18.527,0,0,1,48.888,6.7a12.828,12.828,0,0,1-1.98-2.045,9.152,9.152,0,0,1-1.245-2.189A7.253,7.253,0,0,1,45.18.171c0-.057.008-.114.008-.171H33.922a10.388,10.388,0,0,0,.7,3.618,13.236,13.236,0,0,0,1.819,3.2A18.7,18.7,0,0,0,39.33,9.8a26.993,26.993,0,0,0,3.856,2.674,37.857,37.857,0,0,0,4.7,2.278q1.269.513,2.619.968t2.772.839a58.372,58.372,0,0,0,5.909,1.277c2.049.331,4.139.567,6.249.7,1.064.071,2.127.111,3.2.131.133,0,.266.006.4.007h440.9V12.8Z" transform="translate(11.183 0)" fill="#f79621"/>
            <path id="Trazado_873461" data-name="Trazado 873461" d="M73.563,20.654h-.89c-.148,0-.3-.006-.443-.008-1.182-.021-2.362-.067-3.533-.144-2.335-.152-4.646-.411-6.914-.778a64.512,64.512,0,0,1-6.53-1.411q-1.568-.427-3.058-.927t-2.889-1.069A41.65,41.65,0,0,1,44.119,13.8a29.855,29.855,0,0,1-4.255-2.953,20.69,20.69,0,0,1-3.19-3.3,14.537,14.537,0,0,1-2.01-3.538A11.456,11.456,0,0,1,33.884,0H22.614a14.66,14.66,0,0,0,1,5.173A18.756,18.756,0,0,0,26.2,9.722a26.592,26.592,0,0,0,4.1,4.234,38.345,38.345,0,0,0,5.46,3.786A53.314,53.314,0,0,0,42.4,20.964a75.316,75.316,0,0,0,16.035,4.374c2.912.472,5.881.806,8.88,1,1.5.1,3.014.159,4.521.186.189,0,.378.008.566.01H513.66l.009-5.881Z" transform="translate(7.455 0)" fill="#ffbe30"/>
            <path id="Trazado_873462" data-name="Trazado 873462" d="M77.26,28.507h-.608l-.608,0c-.2,0-.4-.007-.608-.01-1.621-.03-3.243-.093-4.857-.2-3.22-.209-6.409-.568-9.535-1.074a80.853,80.853,0,0,1-17.218-4.7,57.32,57.32,0,0,1-7.139-3.459A41.083,41.083,0,0,1,30.826,15a28.5,28.5,0,0,1-4.4-4.546A20.164,20.164,0,0,1,23.65,5.566,15.727,15.727,0,0,1,22.582,0H11.309A18.948,18.948,0,0,0,12.6,6.725a24.3,24.3,0,0,0,3.352,5.9,34.4,34.4,0,0,0,5.305,5.485,49.612,49.612,0,0,0,7.063,4.9,68.932,68.932,0,0,0,8.6,4.167,97.52,97.52,0,0,0,20.77,5.663c3.772.611,7.619,1.045,11.506,1.3q2.918.192,5.851.238c.243,0,.488.01.731.013l.731.006.731,0H517.4V28.507Z" transform="translate(3.728 0)" fill="#8ad0ce"/>
            <path id="Trazado_873463" data-name="Trazado 873463" d="M80.96,36.359l-.773,0-.774-.006c-.258,0-.516-.009-.771-.013-2.062-.038-4.123-.119-6.183-.254-4.109-.266-8.174-.725-12.163-1.371a103.071,103.071,0,0,1-21.952-5.986,72.656,72.656,0,0,1-9.088-4.4,52.5,52.5,0,0,1-7.465-5.175,36.406,36.406,0,0,1-5.607-5.8,25.654,25.654,0,0,1-3.544-6.236A20,20,0,0,1,11.281,0H.005c0,.266-.011.531,0,.8A23.462,23.462,0,0,0,1.586,8.274a29.885,29.885,0,0,0,4.121,7.247,42.341,42.341,0,0,0,6.517,6.736,60.876,60.876,0,0,0,8.666,6.009,84.451,84.451,0,0,0,10.55,5.111,119.74,119.74,0,0,0,25.5,6.953c4.633.751,9.357,1.284,14.131,1.593,2.393.159,4.787.252,7.18.3.3.006.6.012.9.015l.894.007.895,0H521.125V36.359Z" transform="translate(0 0)" fill="#137c78"/>
          </g>
        </g>
      </g>
    </g>
    <g id="Grupo_1074202" data-name="Grupo 1074202" transform="translate(832 -7764.242)">
      <g id="Grupo_1074149" data-name="Grupo 1074149" transform="translate(308 9145.242)">
        <g id="Grupo_1074143" data-name="Grupo 1074143" transform="translate(0 0)">
          <g id="Grupo_1074028" data-name="Grupo 1074028" transform="translate(0)">
            <g id="Grupo_1074021" data-name="Grupo 1074021">
              <g id="Grupo_1074018" data-name="Grupo 1074018" transform="translate(0.605 0.344)">
                <g id="Grupo_1074017" data-name="Grupo 1074017" clip-path="url(#clip-path-3)">
                  <path id="Trazado_611056" data-name="Trazado 611056" d="M0,0H176.555V176.279H0Z" transform="translate(-6.669 171.146) rotate(-90)" fill="#b0dfde"/>
                </g>
              </g>
              <g id="Grupo_1074020" data-name="Grupo 1074020">
                <g id="Grupo_1074019" data-name="Grupo 1074019" clip-path="url(#clip-path-5)">
                  <path id="Trazado_611027" data-name="Trazado 611027" d="M20.249,140.343a12.045,12.045,0,0,0,4,4.489,12.183,12.183,0,0,0,5.606,2l.018,0,.021.008a12.046,12.046,0,0,1,5.322,3.34,13.376,13.376,0,0,1,2.9,5.629l.009.035v.041a11.835,11.835,0,0,0,5.088,9.357A11.631,11.631,0,0,0,53.6,166.831l.051-.018.065-.006a12.414,12.414,0,0,1,6.4.91,13.535,13.535,0,0,1,5.05,4.062l.045.057.035.074a11.533,11.533,0,0,0,3.389,4.2,11.365,11.365,0,0,0,4.946,2.191l-.058-.012.671.1c.229.023.479.065.689.075a11.521,11.521,0,0,0,1.307.023,11.244,11.244,0,0,0,2.608-.409,11.385,11.385,0,0,0,4.586-2.527l.059-.053.081-.048a12.551,12.551,0,0,1,6.34-1.8,13.688,13.688,0,0,1,6.35,1.7l.089.047.074.065a11.425,11.425,0,0,0,17.856-4l.038-.087.061-.085a12.773,12.773,0,0,1,5.122-4.234,13.832,13.832,0,0,1,6.53-1.026l.106.006.1.031a11.217,11.217,0,0,0,5.2.288,11.441,11.441,0,0,0,9.366-11.162V155.1l.023-.1a12.9,12.9,0,0,1,3-5.962,13.9,13.9,0,0,1,5.571-3.583l.105-.038.1-.012a11.264,11.264,0,0,0,8.424-5.676,11.385,11.385,0,0,0,.573-10.207l-.037-.085-.02-.093a12.871,12.871,0,0,1,.306-6.655,13.858,13.858,0,0,1,3.623-5.542l.072-.07.081-.049a11.636,11.636,0,0,0,1.845-18.364l-.06-.055-.044-.062a12.686,12.686,0,0,1-2.356-6.137,13.748,13.748,0,0,1,1.085-6.448l.031-.074.038-.054a11.84,11.84,0,0,0-5.835-17.91l-.051-.018-.039-.023a12.354,12.354,0,0,1-4.515-4.559,13.4,13.4,0,0,1-1.553-6.2v-.041l.007-.03a12.173,12.173,0,0,0-12.952-14.5,12.166,12.166,0,0,1,10.364,3.841,12.345,12.345,0,0,1,2.874,4.986,12.622,12.622,0,0,1,.326,5.787l.006-.071a12.67,12.67,0,0,0,1.6,5.837,11.481,11.481,0,0,0,4.311,4.143l-.089-.04a12.633,12.633,0,0,1,8.128,8.066,12.775,12.775,0,0,1,.6,5.9,12.949,12.949,0,0,1-2.127,5.557l.069-.128a12.383,12.383,0,0,0-.907,5.835,11.239,11.239,0,0,0,2.18,5.418l-.1-.117a13,13,0,0,1,4.24,10.915,12.81,12.81,0,0,1-1.9,5.741,13.085,13.085,0,0,1-4.288,4.261l.152-.119a12.151,12.151,0,0,0-3.165,4.862,11.1,11.1,0,0,0-.224,5.753l-.057-.177a13.224,13.224,0,0,1,1.1,5.978A13.218,13.218,0,0,1,149.8,147.265l.205-.05a12,12,0,0,0-4.815,3.108,10.941,10.941,0,0,0-2.52,5.094l.023-.211a13.3,13.3,0,0,1-1.409,5.967,13.086,13.086,0,0,1-3.957,4.66,13.344,13.344,0,0,1-5.6,2.417,13.089,13.089,0,0,1-6.08-.365l.209.039a11.994,11.994,0,0,0-5.669.846,10.94,10.94,0,0,0-4.4,3.619l.1-.172a13.14,13.14,0,0,1-3.716,4.838,13.117,13.117,0,0,1-16.918-.285l.162.112a12,12,0,0,0-5.563-1.536,11.124,11.124,0,0,0-5.526,1.536l.139-.1a12.958,12.958,0,0,1-8.235,3.227,12.6,12.6,0,0,1-1.515-.053c-.26-.019-.474-.059-.713-.088l-.724-.118.028,0-.086-.015a12.657,12.657,0,0,1-2.854-.931,12.873,12.873,0,0,1-6.306-6.346l.079.129a12.293,12.293,0,0,0-4.525-3.764,11.232,11.232,0,0,0-5.792-.9l.115-.025a12.679,12.679,0,0,1-5.876.407,12.373,12.373,0,0,1-5.4-2.3,12.519,12.519,0,0,1-3.813-4.444,12.68,12.68,0,0,1-1.4-5.666l.011.076a12.791,12.791,0,0,0-2.644-5.451,11.617,11.617,0,0,0-5.052-3.334l.04.01a12.19,12.19,0,0,1-9.564-6.858" transform="translate(-9.476 -20.013)" fill="#3c5756"/>
                  <path id="Trazado_611028" data-name="Trazado 611028" d="M111.9,7.276a12.173,12.173,0,0,0-10.754.8l-.018.011-.026.009a12.1,12.1,0,0,1-6.287.495,13.265,13.265,0,0,1-5.7-2.816l-.035-.028L89.051,5.7a11.753,11.753,0,0,0-9.542-4.548,11.527,11.527,0,0,0-9.263,4.857l-.038.055-.064.057A12.544,12.544,0,0,1,64.37,9.183a13.686,13.686,0,0,1-6.533-.308l-.081-.023-.09-.048a11.409,11.409,0,0,0-10.238-.309,11.329,11.329,0,0,0-6.385,7.99l-.018.091-.044.1a12.818,12.818,0,0,1-4.127,5.213,13.86,13.86,0,0,1-6.174,2.376l-.107.016-.107-.01a11.516,11.516,0,0,0-11.856,8.411,11.371,11.371,0,0,0-.168,5.223l.02.1v.1a12.935,12.935,0,0,1-1.68,6.456,13.831,13.831,0,0,1-4.692,4.673l-.094.059-.093.031a11.341,11.341,0,0,0-7.121,7.324c-.114.4-.235.861-.335,1.324a12.373,12.373,0,0,0-.184,1.294,11.427,11.427,0,0,0,.089,2.655,11.609,11.609,0,0,0,1.966,4.9l.054.078.031.073a12.788,12.788,0,0,1,1.026,6.514,13.743,13.743,0,0,1-2.4,6.088l-.051.075-.053.049a11.644,11.644,0,0,0-3.682,9.822A11.838,11.838,0,0,0,6.9,98.491l.046.027.03.029a12.268,12.268,0,0,1,3.409,5.389,13.384,13.384,0,0,1,.2,6.331l-.005.03-.009.019A12.309,12.309,0,0,0,10,118.488a13.255,13.255,0,0,0,1.048,2.6,13.381,13.381,0,0,1-1.168-2.564,12.3,12.3,0,0,1,.271-8.386l-.014.049a12.823,12.823,0,0,0-.384-6.053A11.492,11.492,0,0,0,6.384,99.19l.076.056a12.459,12.459,0,0,1-4.319-4.016A12.714,12.714,0,0,1,.108,89.655,12.894,12.894,0,0,1,3.986,78.686l-.1.123a12.316,12.316,0,0,0,2.049-5.484A11.2,11.2,0,0,0,4.905,67.63l.086.151a12.993,12.993,0,0,1-2.306-5.6,13.181,13.181,0,0,1-.123-3.054,13.769,13.769,0,0,1,.211-1.541c.1-.469.212-.928.36-1.451a13.105,13.105,0,0,1,8.181-8.524l-.188.09a12,12,0,0,0,4.061-4.075,11.033,11.033,0,0,0,1.387-5.537l.02.2a13.3,13.3,0,0,1,.156-6.108,13.161,13.161,0,0,1,13.873-9.8l-.214.007a12.017,12.017,0,0,0,5.374-2.009,10.986,10.986,0,0,0,3.562-4.46l-.061.187a13.177,13.177,0,0,1,2.626-5.49,12.937,12.937,0,0,1,4.8-3.7,13.244,13.244,0,0,1,5.928-1.178A12.831,12.831,0,0,1,58.45,7.371L58.279,7.3a12.123,12.123,0,0,0,5.789.405,11.111,11.111,0,0,0,5.166-2.625l-.1.112a12.859,12.859,0,0,1,4.578-3.85,13.039,13.039,0,0,1,11.542.008,12.45,12.45,0,0,1,4.489,3.822l-.07-.072a12.527,12.527,0,0,0,5.286,2.839,11.538,11.538,0,0,0,6.011-.281l-.044.019a12.2,12.2,0,0,1,5.468-1.508,12.36,12.36,0,0,1,5.51,1.107" transform="translate(0 -0.245)" fill="#3c5756"/>
                </g>
              </g>
            </g>
          </g>
        </g>
        <g id="Grupo_1074144" data-name="Grupo 1074144" transform="translate(31.761 31.517)">
          <rect id="Rectángulo_378411" data-name="Rectángulo 378411" width="96.944" height="96.943" transform="translate(0 0)" fill="none"/>
        </g>
      </g>
      <g id="Grupo_1075317" data-name="Grupo 1075317" transform="translate(348.619 9183.337)">
        <g id="Grupo_1075316" data-name="Grupo 1075316" clip-path="url(#clip-path-6)">
          <path id="Trazado_615754" data-name="Trazado 615754" d="M26.08,7.259C25.343,6.2,24.767,5.436,24.258,4.63A2.841,2.841,0,0,1,26.534.087c3.523-.117,7.055-.116,10.578,0a2.848,2.848,0,0,1,2.259,4.564c-.508.8-1.076,1.567-1.626,2.363.461.427.959.233,1.4.234,6.966.015,13.933.007,20.9.012,3.455,0,5.323,1.863,5.333,5.321.012,4.093.027,8.186-.015,12.278-.009.9.125,1.33,1.184,1.278,1.37-.068,1.86.423,1.764,1.776-.083,1.18.328,1.773,1.469,1.951a2.2,2.2,0,0,1,.838.352c1.114.737,2.046.793,2.948-.413.606-.81,1.437-.69,2.146.015,1.234,1.228,2.473,2.452,3.691,3.7,1.03,1.052,1.063,1.6-.061,2.605-.778.7-1.017,1.315-.36,2.189a2.333,2.333,0,0,1,.363.831c.33,1.332.86,2.254,2.541,1.977.9-.149,1.39.529,1.38,1.493-.02,1.828-.024,3.658,0,5.486.015,1.1-.529,1.713-1.579,1.566-1.385-.194-1.987.426-2.207,1.668a1.046,1.046,0,0,1-.15.36c-.781,1.246-1.012,2.359.417,3.4a1.163,1.163,0,0,1-.032,1.845c-1.371,1.4-2.743,2.8-4.157,4.153-.833.8-1.635.44-2.234-.331a1.464,1.464,0,0,0-2.294-.389,2.048,2.048,0,0,1-.706.329c-1.394.32-2.279.906-2.036,2.614.146,1.024-.736,1.436-1.666,1.339-1.1-.114-1.274.382-1.263,1.344.045,4.049.026,8.1.017,12.148-.008,3.535-1.856,5.386-5.416,5.387-18.2.008-36.4-.024-54.6.028A5.024,5.024,0,0,1,0,78.252Q.123,45.4,0,12.549A5.06,5.06,0,0,1,5.336,7.218c6.354.128,12.713.041,19.07.041Zm22.6,29.021c-1.321-1.358-.648-2.265.361-3.173.937-.844,1.8-1.775,2.689-2.667,1.579-1.577,1.791-1.583,3.373-.078.337.321.593.753,1.2.4.528-.312,1.026-.493,1.018-1.3-.043-4.4-.033-8.8-.009-13.195,0-.682-.217-.906-.9-.9-3.353.025-6.706.014-10.059.008-.467,0-.84,0-.871.646-.056,1.174-.817,1.5-1.878,1.483-2-.028-4.006-.008-6.009-.008-5.835,0-11.671-.008-17.506.007-.969,0-1.834-.2-1.891-1.307-.045-.868-.494-.828-1.091-.825-2.613.013-5.227.046-7.838-.016C8.314,15.327,8,15.56,8,16.569q.045,28.871.006,57.743c0,.887.213,1.195,1.153,1.193q19.465-.044,38.931.005c1.039,0,1.232-.351,1.2-1.274-.066-1.652-.033-3.309-.013-4.964.016-1.33.471-1.8,1.818-1.821,1.7-.031,3.4-.047,5.094.007.833.026,1.164-.2,1.125-1.088-.067-1.521-.045-3.048-.007-4.571.02-.789-.071-1.364-.926-1.761-.92-.427-1.159.3-1.585.7-1.129,1.047-1.611,1.063-2.732-.046s-2.22-2.213-3.323-3.326c-1.127-1.138-1.113-1.592-.065-2.735.39-.426,1.115-.66.7-1.587a1.719,1.719,0,0,0-1.9-1.117c-5.487.042-10.974.021-16.46.018a2.981,2.981,0,0,1-1.409-.181,1.237,1.237,0,0,1-.774-1.365,1.117,1.117,0,0,1,1.129-1.052c.39-.027.783-.023,1.175-.023,4.268,0,8.535-.015,12.8.013.711,0,.926-.111.882-.914-.1-1.911-.02-3.831-.044-5.746-.014-1.107.543-1.557,1.6-1.608,1.932-.093,1.945-.124,2.175-2.162q-8.694,0-17.375,0A5.245,5.245,0,0,1,30,38.861a1.289,1.289,0,0,1-1.169-1.469,1.179,1.179,0,0,1,1.35-1.111c.435,0,.871,0,1.306,0H48.679m11.24,28.108c0,1.112-.066,2.159.017,3.194a3.447,3.447,0,0,1-1.219,2.984c-2.209,2.1-4.353,4.264-6.466,6.457a3.341,3.341,0,0,1-2.632,1.107q-20.9-.048-41.793-.021c-2.089,0-2.425-.329-2.425-2.4q0-15.085,0-30.17t0-30.17c0-2.468.149-2.62,2.548-2.621,3.047,0,6.1-.059,9.142.029,1.215.035,1.091-.649,1.056-1.39-.033-.7.348-1.562-1.033-1.533-3.873.083-7.749.027-11.623.03-2.239,0-2.817.589-2.817,2.871q0,32.651,0,65.3c0,2.28.563,2.852,2.851,2.852q27.166.005,54.331,0c2.232,0,2.9-.666,2.9-2.873q.011-5.551,0-11.1c0-1.993,0-1.99-1.9-2.3-.287-.047-.567-.145-.941-.243m14.842-5.969a11.127,11.127,0,0,1,1.277-1.469c.8-.652,1-1.174.059-1.887a1.5,1.5,0,0,1-.267-2.288,10.858,10.858,0,0,0,1.711-4.057c.227-1.2.855-1.769,2.063-1.644.775.08,1.153-.169,1.042-1a4.249,4.249,0,0,1,0-1.043c.111-.953-.137-1.489-1.25-1.348-1.041.132-1.592-.412-1.8-1.44a12.149,12.149,0,0,0-1.8-4.3,1.417,1.417,0,0,1,.273-2.171c1.03-.743.78-1.336-.07-1.967a2.319,2.319,0,0,1-.461-.46c-.59-.783-1.143-.922-1.811-.045a1.527,1.527,0,0,1-2.3.3,12.7,12.7,0,0,0-4.315-1.776c-.912-.191-1.542-.712-1.382-1.725.2-1.243-.387-1.522-1.455-1.366a2.781,2.781,0,0,1-.782,0c-.888-.126-1.309.184-1.17,1.131.173,1.178-.428,1.782-1.534,2a12.03,12.03,0,0,0-4.185,1.749,1.462,1.462,0,0,1-2.195-.243c-.767-1.039-1.362-.731-2,.088a2.563,2.563,0,0,1-.462.459c-.739.567-.957,1.1-.061,1.761a1.54,1.54,0,0,1,.306,2.381,11.17,11.17,0,0,0-1.69,4.066c-.208,1.079-.789,1.741-1.984,1.573-.955-.134-1.237.309-1.124,1.183a3.979,3.979,0,0,1,0,1.043c-.126.9.2,1.27,1.135,1.161a1.611,1.611,0,0,1,1.945,1.468,11.868,11.868,0,0,0,1.787,4.307,1.44,1.44,0,0,1-.282,2.177c-1.04.76-.741,1.34.085,1.965a2.236,2.236,0,0,1,.459.462c.592.814,1.145.9,1.8.035a1.51,1.51,0,0,1,2.289-.3,10.8,10.8,0,0,0,3.934,1.683c1.307.244,1.954.849,1.775,2.2-.1.74.216,1.044.953.974a4.672,4.672,0,0,1,1.043,0c1.014.133,1.559-.133,1.41-1.31-.131-1.033.415-1.573,1.457-1.781a10.163,10.163,0,0,0,3.848-1.55c1.125-.783,2.053-.838,2.93.3a7.075,7.075,0,0,0,.791.7m-42.9-43.55c2.392,0,4.784.033,7.175-.014,1.239-.024,2.866.567,3.615-.266.731-.813.115-2.416.228-3.665.084-.925-.357-1.071-1.147-1.055-2.087.041-4.174.009-6.262.016-.629,0-1.241-.036-1.582-.67a1.586,1.586,0,0,1,.33-1.8c.89-1.233,1.75-2.488,2.636-3.723.424-.591.582-1.022-.423-1.02q-4.631.011-9.263,0c-.8,0-.921.277-.46.915.89,1.233,1.75,2.487,2.635,3.723.415.581.821,1.156.407,1.9-.381.686-1.045.678-1.711.676-2.131-.007-4.262.02-6.392-.013-.679-.011-.928.21-.892.9a18.333,18.333,0,0,1-.007,2.737c-.1,1.055.2,1.42,1.328,1.392,3.259-.081,6.522-.028,9.784-.028M59.919,26.475a3.453,3.453,0,0,1,1.985-.362c.727.071.864-.288.861-.926-.02-4.31.011-8.621-.022-12.931-.013-1.608-.835-2.364-2.464-2.369-4.572-.013-9.144.038-13.715-.034-1.209-.019-1.087.647-1.064,1.391s-.27,1.558,1.07,1.529c3.7-.079,7.4-.029,11.1-.026,2.019,0,2.244.226,2.246,2.245,0,3.782,0,7.565,0,11.482m-4.878,43.6c-.829,0-1.673.005-2.516,0-.434,0-.628.2-.625.628.006.846,0,1.692,0,2.607l3.14-3.233" transform="translate(0 0)" fill="#3c5756"/>
          <path id="Trazado_615755" data-name="Trazado 615755" d="M121.746,88.839c3.261,0,6.523.016,9.784-.01.964-.008,1.719.287,1.7,1.321-.021,1.012-.782,1.32-1.737,1.318q-9.719-.022-19.437-.006c-.934,0-1.685-.286-1.684-1.354,0-1.116.809-1.278,1.723-1.274,3.218.013,6.436,0,9.653,0" transform="translate(-81.528 -65.617)" fill="#3c5756"/>
          <path id="Trazado_615756" data-name="Trazado 615756" d="M121.855,238.525c3.171,0,6.342.009,9.513,0,.957,0,1.85.164,1.829,1.32-.019,1.035-.847,1.309-1.762,1.309H112.149a2.859,2.859,0,0,1-.39-.013c-.8-.111-1.453-.415-1.435-1.359s.671-1.238,1.5-1.244c1.781-.013,3.562-.008,5.343-.009q2.346,0,4.691,0" transform="translate(-81.494 -176.191)" fill="#3c5756"/>
          <path id="Trazado_615757" data-name="Trazado 615757" d="M53.368,241.471c.75-.074,1.118.464,1.55.875,1.515,1.442,1.51,1.444,3-.071.913-.928,1.832-1.85,2.747-2.776.621-.63,1.315-.933,2.038-.226s.481,1.408-.151,2.046q-2.518,2.545-5.039,5.085a1.319,1.319,0,0,1-2.058.1c-.977-.925-1.937-1.866-2.895-2.81a1.283,1.283,0,0,1-.313-1.548,1.069,1.069,0,0,1,1.118-.676" transform="translate(-38.495 -176.446)" fill="#3c5756"/>
          <path id="Trazado_615758" data-name="Trazado 615758" d="M63.082,140.337a1.762,1.762,0,0,1-.575,1.216c-1.652,1.667-3.309,3.328-4.953,5a1.459,1.459,0,0,1-2.365.009c-.861-.86-1.747-1.7-2.609-2.553a1.312,1.312,0,1,1,1.812-1.875c.063.06.129.116.193.175,1.829,1.671,1.828,1.67,3.553-.066.919-.925,1.83-1.857,2.768-2.762a1.137,1.137,0,0,1,1.434-.221,1.447,1.447,0,0,1,.742,1.074" transform="translate(-38.439 -102.752)" fill="#3c5756"/>
          <path id="Trazado_615759" data-name="Trazado 615759" d="M63.076,190.283a1.719,1.719,0,0,1-.574,1.153q-2.476,2.5-4.946,5a1.455,1.455,0,0,1-2.362.016c-.859-.861-1.748-1.691-2.607-2.551-.593-.594-.8-1.291-.157-1.949a1.277,1.277,0,0,1,1.958.063l.194.174c1.834,1.669,1.833,1.668,3.555-.067.918-.925,1.829-1.856,2.765-2.761a1.143,1.143,0,0,1,1.436-.215,1.373,1.373,0,0,1,.737,1.134" transform="translate(-38.437 -139.602)" fill="#3c5756"/>
          <path id="Trazado_615760" data-name="Trazado 615760" d="M63.081,90.442a1.64,1.64,0,0,1-.534,1.216c-1.684,1.7-3.373,3.388-5.05,5.091a1.412,1.412,0,0,1-2.265,0q-1.306-1.276-2.613-2.55a1.282,1.282,0,0,1-.21-1.952c.663-.735,1.355-.516,2.051.075.669.568,1.15,1.751,2.031,1.566.717-.15,1.265-1.117,1.881-1.729.833-.827,1.649-1.67,2.492-2.487a1.188,1.188,0,0,1,1.431-.28,1.416,1.416,0,0,1,.787,1.052" transform="translate(-38.444 -65.936)" fill="#3c5756"/>
          <path id="Trazado_615761" data-name="Trazado 615761" d="M116.751,210.539c1.565,0,3.13.014,4.695-.005.905-.011,1.6.286,1.6,1.279s-.707,1.337-1.585,1.341q-4.76.021-9.52,0c-.858-.005-1.581-.319-1.592-1.329-.011-1.032.7-1.287,1.578-1.285,1.608,0,3.217,0,4.826,0" transform="translate(-81.511 -155.518)" fill="#3c5756"/>
          <path id="Trazado_615762" data-name="Trazado 615762" d="M116.771,113.33c-1.61,0-3.22,0-4.83,0-.887,0-1.574-.326-1.584-1.323-.01-1.014.668-1.3,1.57-1.3,3.177.009,6.353.015,9.529,0,.923-.005,1.585.326,1.591,1.3s-.67,1.335-1.577,1.333q-2.35,0-4.7,0" transform="translate(-81.519 -81.774)" fill="#3c5756"/>
          <path id="Trazado_615763" data-name="Trazado 615763" d="M116.757,160.661c1.566,0,3.132.021,4.7-.008.924-.017,1.578.307,1.589,1.289.011.9-.621,1.323-1.458,1.329q-4.893.033-9.787,0c-.821-.007-1.454-.408-1.451-1.332,0-1.024.684-1.286,1.581-1.277,1.609.016,3.219,0,4.828,0" transform="translate(-81.512 -118.672)" fill="#3c5756"/>
          <path id="Trazado_615764" data-name="Trazado 615764" d="M116.624,262.93c-1.564,0-3.129.012-4.693,0-.868-.009-1.583-.3-1.586-1.315,0-1.034.73-1.294,1.591-1.3,3.172-.011,6.344,0,9.516,0,.889,0,1.6.314,1.592,1.308s-.708,1.309-1.6,1.312c-1.608,0-3.215,0-4.823,0" transform="translate(-81.51 -192.285)" fill="#3c5756"/>
          <path id="Trazado_615765" data-name="Trazado 615765" d="M225.547,143.507a10.618,10.618,0,0,1-21.237.114,10.619,10.619,0,1,1,21.237-.114m-2.63.085a7.975,7.975,0,0,0-7.941-8.106,8.06,8.06,0,0,0-8.04,8.045,7.962,7.962,0,0,0,8.043,8,7.88,7.88,0,0,0,7.937-7.934" transform="translate(-150.921 -98.143)" fill="#3c5756"/>
        </g>
      </g>
    </g>
  </g>
</svg>
