<svg xmlns="http://www.w3.org/2000/svg" xmlns:xlink="http://www.w3.org/1999/xlink" width="145" height="145" viewBox="0 0 145 145">
  <defs>
    <clipPath id="clip-path">
      <path id="Trazado_611025" data-name="Trazado 611025" d="M72.628,1.073a11,11,0,0,0-8.919,4.552A10.54,10.54,0,0,1,53.171,7.88a10.955,10.955,0,0,0-9.324-.6c-.156.058-.312.119-.466.184l-.12.05a11.051,11.051,0,0,0-6.3,7.8,10.581,10.581,0,0,1-8.714,6.368,10.966,10.966,0,0,0-9.2,3.715,11.091,11.091,0,0,0-2.6,9.664,10.617,10.617,0,0,1-5.353,9.395,11.053,11.053,0,0,0-6.932,7.179c-.011.033-.016.065-.027.094-.049.174-.1.347-.14.521A11.1,11.1,0,0,0,5.7,61.525,10.665,10.665,0,0,1,4.61,72.3,11.249,11.249,0,0,0,6.623,90.121a10.661,10.661,0,0,1,3.332,10.292,11.1,11.1,0,0,0,.377,9.374c.076.162.16.313.246.466.018.033.033.066.049.094a11,11,0,0,0,8.387,5.485,10.618,10.618,0,0,1,7.21,8.042,11.159,11.159,0,0,0,14.481,10.394,10.542,10.542,0,0,1,9.859,4.364A11.023,11.023,0,0,0,58.4,144.81c.031.008.062.008.094.016.175.03.349.063.531.087a10.986,10.986,0,0,0,9-2.671A10.514,10.514,0,0,1,78.8,142.2a11.147,11.147,0,0,0,17.436-3.876,10.544,10.544,0,0,1,9.838-4.4,10.96,10.96,0,0,0,9.241-1.359c.147-.091.29-.19.43-.29.031-.021.067-.041.1-.065a11.079,11.079,0,0,0,4.553-8.954,10.606,10.606,0,0,1,7.207-8.041,11.205,11.205,0,0,0,8.775-15.557,10.656,10.656,0,0,1,3.316-10.334,11.23,11.23,0,0,0,1.717-17.792,10.671,10.671,0,0,1-1.151-10.8,11.221,11.221,0,0,0-5.632-16.957,10.637,10.637,0,0,1-5.427-9.394,11.092,11.092,0,0,0-2.721-9.578,10.96,10.96,0,0,0-9.29-3.608,10.583,10.583,0,0,1-8.744-6.334,11.053,11.053,0,0,0-6.381-7.675.884.884,0,0,0-.107-.042c-.156-.066-.32-.128-.48-.19a10.975,10.975,0,0,0-9.364.732A10.528,10.528,0,0,1,81.563,5.477a11,11,0,0,0-8.778-4.405h-.157" transform="translate(-1.105 -1.072)" fill="#e36849"/>
    </clipPath>
    <clipPath id="clip-path-2">
      <path id="Trazado_611025-2" data-name="Trazado 611025" d="M72.628,1.073a11,11,0,0,0-8.919,4.552A10.54,10.54,0,0,1,53.171,7.88a10.955,10.955,0,0,0-9.324-.6c-.156.058-.312.119-.466.184l-.12.05a11.051,11.051,0,0,0-6.3,7.8,10.581,10.581,0,0,1-8.714,6.368,10.966,10.966,0,0,0-9.2,3.715,11.091,11.091,0,0,0-2.6,9.664,10.617,10.617,0,0,1-5.353,9.395,11.053,11.053,0,0,0-6.932,7.179c-.011.033-.016.065-.027.094-.049.174-.1.347-.14.521A11.1,11.1,0,0,0,5.7,61.525,10.665,10.665,0,0,1,4.61,72.3,11.249,11.249,0,0,0,6.623,90.121a10.661,10.661,0,0,1,3.332,10.292,11.1,11.1,0,0,0,.377,9.374c.076.162.16.313.246.466.018.033.033.066.049.094a11,11,0,0,0,8.387,5.485,10.618,10.618,0,0,1,7.21,8.042,11.159,11.159,0,0,0,14.481,10.394,10.542,10.542,0,0,1,9.859,4.364A11.023,11.023,0,0,0,58.4,144.81c.031.008.062.008.094.016.175.03.349.063.531.087a10.986,10.986,0,0,0,9-2.671A10.514,10.514,0,0,1,78.8,142.2a11.147,11.147,0,0,0,17.436-3.876,10.544,10.544,0,0,1,9.838-4.4,10.96,10.96,0,0,0,9.241-1.359c.147-.091.29-.19.43-.29.031-.021.067-.041.1-.065a11.079,11.079,0,0,0,4.553-8.954,10.606,10.606,0,0,1,7.207-8.041,11.205,11.205,0,0,0,8.775-15.557,10.656,10.656,0,0,1,3.316-10.334,11.23,11.23,0,0,0,1.717-17.792,10.671,10.671,0,0,1-1.151-10.8,11.221,11.221,0,0,0-5.632-16.957,10.637,10.637,0,0,1-5.427-9.394,11.092,11.092,0,0,0-2.721-9.578,10.96,10.96,0,0,0-9.29-3.608,10.583,10.583,0,0,1-8.744-6.334,11.053,11.053,0,0,0-6.381-7.675.884.884,0,0,0-.107-.042c-.156-.066-.32-.128-.48-.19a10.975,10.975,0,0,0-9.364.732A10.528,10.528,0,0,1,81.563,5.477a11,11,0,0,0-8.778-4.405h-.157" transform="translate(-1.105 -1.072)" fill="#fff"/>
    </clipPath>
    <clipPath id="clip-path-3">
      <rect id="Rectángulo_378432" data-name="Rectángulo 378432" width="145" height="145" fill="none"/>
    </clipPath>
    <clipPath id="clip-path-4">
      <rect id="Rectángulo_379157" data-name="Rectángulo 379157" width="75.371" height="75.313" fill="#fef0d7"/>
    </clipPath>
  </defs>
  <g id="Grupo_1099253" data-name="Grupo 1099253" transform="translate(-1148 -484)">
    <g id="Grupo_1075206" data-name="Grupo 1075206" transform="translate(828 -9067)">
      <g id="Grupo_1074143" data-name="Grupo 1074143" transform="translate(320 9551)">
        <g id="Grupo_1074028" data-name="Grupo 1074028" transform="translate(0)">
          <g id="Grupo_1074021" data-name="Grupo 1074021" transform="translate(0 0)">
            <g id="Grupo_1074018" data-name="Grupo 1074018" transform="translate(0.458 0.445)">
              <g id="Grupo_1074017" data-name="Grupo 1074017" clip-path="url(#clip-path)">
                <path id="Trazado_611056" data-name="Trazado 611056" d="M0,0H159.982V159.745H0Z" transform="translate(-6.043 155.081) rotate(-90)" fill="#e36849"/>
              </g>
            </g>
            <g id="Grupo_1074020" data-name="Grupo 1074020">
              <g id="Grupo_1074019" data-name="Grupo 1074019" clip-path="url(#clip-path-3)">
                <path id="Trazado_611027" data-name="Trazado 611027" d="M20.249,131.032a10.9,10.9,0,0,0,3.616,4.062,11.024,11.024,0,0,0,5.073,1.81h.016l.019.007a10.9,10.9,0,0,1,4.815,3.022,12.1,12.1,0,0,1,2.625,5.093l.008.031v.037a10.709,10.709,0,0,0,4.6,8.467A10.524,10.524,0,0,0,50.432,155l.046-.016.059-.006a11.233,11.233,0,0,1,5.789.823,12.248,12.248,0,0,1,4.569,3.676l.041.051.031.067a10.436,10.436,0,0,0,3.067,3.8,10.284,10.284,0,0,0,4.475,1.982l-.052-.011.607.091c.207.021.434.059.623.068a10.424,10.424,0,0,0,1.183.021,10.176,10.176,0,0,0,2.36-.37,10.3,10.3,0,0,0,4.15-2.287l.053-.048.074-.043a11.357,11.357,0,0,1,5.736-1.625,12.385,12.385,0,0,1,5.746,1.54l.081.042.067.059a10.338,10.338,0,0,0,16.157-3.62l.034-.078.055-.077a11.557,11.557,0,0,1,4.634-3.831,12.516,12.516,0,0,1,5.909-.928l.1.006.095.028a10.15,10.15,0,0,0,4.707.26,10.352,10.352,0,0,0,8.475-10.1v-.1l.021-.095a11.669,11.669,0,0,1,2.717-5.4,12.575,12.575,0,0,1,5.041-3.242l.1-.035.091-.011a10.192,10.192,0,0,0,7.623-5.136,10.3,10.3,0,0,0,.518-9.236l-.033-.077-.018-.084a11.647,11.647,0,0,1,.277-6.021,12.54,12.54,0,0,1,3.278-5.015l.065-.063.074-.044a10.529,10.529,0,0,0,1.669-16.617l-.054-.05-.04-.056a11.479,11.479,0,0,1-2.132-5.553,12.44,12.44,0,0,1,.982-5.834l.028-.067.035-.049a10.714,10.714,0,0,0-5.28-16.206l-.046-.016-.036-.021a11.179,11.179,0,0,1-4.085-4.125,12.123,12.123,0,0,1-1.405-5.609V55.69l.006-.028a11.015,11.015,0,0,0-11.72-13.118,11.009,11.009,0,0,1,9.378,3.476,11.17,11.17,0,0,1,2.6,4.512,11.421,11.421,0,0,1,.3,5.236l.005-.064a11.464,11.464,0,0,0,1.449,5.282,10.389,10.389,0,0,0,3.9,3.749l-.08-.036a11.431,11.431,0,0,1,7.355,7.3,11.56,11.56,0,0,1,.539,5.341,11.717,11.717,0,0,1-1.925,5.029l.062-.116a11.205,11.205,0,0,0-.821,5.28,10.17,10.17,0,0,0,1.972,4.9l-.094-.106a11.766,11.766,0,0,1,3.837,9.877,11.592,11.592,0,0,1-1.719,5.194,11.84,11.84,0,0,1-3.88,3.855l.138-.107a11,11,0,0,0-2.864,4.4,10.042,10.042,0,0,0-.2,5.206l-.051-.161a11.966,11.966,0,0,1,1,5.409,11.961,11.961,0,0,1-10.383,11.3l.186-.045a10.859,10.859,0,0,0-4.357,2.812,9.9,9.9,0,0,0-2.28,4.61l.021-.191a12.039,12.039,0,0,1-1.275,5.4,11.841,11.841,0,0,1-3.581,4.216,12.075,12.075,0,0,1-5.066,2.187,11.844,11.844,0,0,1-5.5-.33l.189.035a10.853,10.853,0,0,0-5.129.765,9.9,9.9,0,0,0-3.98,3.275l.09-.155a11.89,11.89,0,0,1-3.363,4.378,11.869,11.869,0,0,1-15.308-.258l.147.1a10.86,10.86,0,0,0-5.034-1.39,10.066,10.066,0,0,0-5,1.39l.126-.09a11.725,11.725,0,0,1-7.451,2.92,11.4,11.4,0,0,1-1.371-.048c-.235-.017-.429-.054-.646-.079l-.655-.107.026,0-.078-.014a11.452,11.452,0,0,1-2.583-.843,11.648,11.648,0,0,1-5.706-5.742l.072.117a11.123,11.123,0,0,0-4.095-3.406,10.164,10.164,0,0,0-5.241-.813l.1-.022a11.473,11.473,0,0,1-5.317.369,11.2,11.2,0,0,1-4.887-2.08,11.328,11.328,0,0,1-3.45-4.022,11.473,11.473,0,0,1-1.265-5.127l.01.069a11.574,11.574,0,0,0-2.392-4.932,10.512,10.512,0,0,0-4.571-3.017l.036.009a11.03,11.03,0,0,1-8.654-6.206" transform="translate(-10.501 -21.928)" fill="#ffc278"/>
                <path id="Trazado_611028" data-name="Trazado 611028" d="M101.257,6.584a11.015,11.015,0,0,0-9.731.72l-.016.01-.024.008A10.945,10.945,0,0,1,85.8,7.77a12,12,0,0,1-5.157-2.548L80.61,5.2l-.031-.041a10.635,10.635,0,0,0-8.634-4.115,10.43,10.43,0,0,0-8.382,4.395l-.034.049-.058.052a11.351,11.351,0,0,1-5.224,2.774,12.384,12.384,0,0,1-5.911-.279l-.073-.021-.082-.044a10.324,10.324,0,0,0-9.264-.28,10.251,10.251,0,0,0-5.778,7.23L37.122,15l-.039.088A11.6,11.6,0,0,1,33.348,19.8a12.541,12.541,0,0,1-5.587,2.15l-.1.015-.1-.009A10.42,10.42,0,0,0,16.839,29.57a10.289,10.289,0,0,0-.152,4.726l.018.09v.09a11.7,11.7,0,0,1-1.52,5.842,12.515,12.515,0,0,1-4.246,4.228l-.085.054-.084.028a10.262,10.262,0,0,0-6.444,6.627c-.1.358-.213.779-.3,1.2a11.2,11.2,0,0,0-.166,1.171,10.34,10.34,0,0,0,.081,2.4,10.5,10.5,0,0,0,1.779,4.438l.049.07.028.066A11.571,11.571,0,0,1,6.722,66.5,12.436,12.436,0,0,1,4.552,72l-.046.068-.048.044A10.537,10.537,0,0,0,1.127,81,10.711,10.711,0,0,0,6.24,89.12l.042.025.027.026a11.1,11.1,0,0,1,3.084,4.876,12.11,12.11,0,0,1,.18,5.728l0,.028-.008.017a11.138,11.138,0,0,0-.514,7.395,11.994,11.994,0,0,0,.948,2.354,12.108,12.108,0,0,1-1.057-2.32,11.127,11.127,0,0,1,.246-7.588l-.013.044a11.6,11.6,0,0,0-.347-5.477,10.4,10.4,0,0,0-3.045-4.475l.069.051a11.274,11.274,0,0,1-3.909-3.634A11.5,11.5,0,0,1,.1,81.125,11.667,11.667,0,0,1,3.607,71.2l-.094.111a11.144,11.144,0,0,0,1.854-4.962A10.134,10.134,0,0,0,4.439,61.2l.078.137a11.757,11.757,0,0,1-2.086-5.07A11.927,11.927,0,0,1,2.319,53.5a12.46,12.46,0,0,1,.191-1.394c.09-.424.192-.84.326-1.313a11.858,11.858,0,0,1,7.4-7.713l-.17.082a10.854,10.854,0,0,0,3.675-3.687A9.984,9.984,0,0,0,15,34.464l.018.18a12.034,12.034,0,0,1,.141-5.527A11.909,11.909,0,0,1,27.71,20.254l-.194.006a10.874,10.874,0,0,0,4.863-1.818A9.941,9.941,0,0,0,35.6,14.406l-.055.169a11.923,11.923,0,0,1,2.376-4.968,11.706,11.706,0,0,1,4.343-3.343A11.984,11.984,0,0,1,47.63,5.2a11.61,11.61,0,0,1,5.26,1.471l-.155-.063a10.97,10.97,0,0,0,5.238.367A10.054,10.054,0,0,0,62.647,4.6l-.091.1A11.636,11.636,0,0,1,66.7,1.215a11.8,11.8,0,0,1,10.444.007A11.266,11.266,0,0,1,81.2,4.68l-.063-.065a11.335,11.335,0,0,0,4.783,2.569,10.44,10.44,0,0,0,5.439-.254l-.04.017a11.035,11.035,0,0,1,4.948-1.365,11.184,11.184,0,0,1,4.986,1" transform="translate(0 0)" fill="#ffc278"/>
              </g>
            </g>
          </g>
        </g>
      </g>
      <g id="Grupo_1074144" data-name="Grupo 1074144" transform="translate(347.117 9578.125)">
        <rect id="Rectángulo_378411" data-name="Rectángulo 378411" width="91.063" height="91.062" transform="translate(0)" fill="none"/>
      </g>
    </g>
    <g id="Grupo_156261" data-name="Grupo 156261" transform="translate(1181.354 513.741)">
      <g id="Grupo_1075325" data-name="Grupo 1075325" transform="translate(2.646 8.259)">
        <g id="Grupo_1075324" data-name="Grupo 1075324" clip-path="url(#clip-path-4)">
          <path id="Trazado_615779" data-name="Trazado 615779" d="M16.307,51.85c0-2.236-.022-4.472.016-6.708a1.1,1.1,0,0,0-.712-1.166c-4.185-2.136-8.337-4.336-12.53-6.455A5.087,5.087,0,0,1,.021,32.655c-.006-4.433-.052-8.866.012-13.3A10.831,10.831,0,0,1,6.458,9.088C12.453,6.2,18.518,3.461,24.571.7a7.2,7.2,0,0,1,6.568.2q11.95,6.171,23.893,12.358a7.264,7.264,0,0,1,4.023,6.7c.066,2.862.044,5.728,0,8.59a1.372,1.372,0,0,0,.946,1.5q4.294,1.9,8.536,3.923a11.146,11.146,0,0,1,6.815,10.632c.042,4.393.011,8.787.008,13.18a4.992,4.992,0,0,1-2.879,4.747c-7.756,4.009-15.522,8-23.264,12.035a5.463,5.463,0,0,1-5.168.178c-3.118-1.465-6.259-2.879-9.379-4.339-.553-.258-.857-.425-1.216.345a3.6,3.6,0,0,1-4.216,2,3.527,3.527,0,0,1-2.78-3.613c.246-2.122-.64-3.091-2.516-3.716-1.476-.491-2.843-1.306-4.279-1.93A5.247,5.247,0,0,1,16.3,58.2c.012-2.118,0-4.236,0-6.355m10.33-13.89c6.069,2.8,11.846,5.506,17.653,8.144,4.887,2.22,7.235,6.022,7.257,11.327.014,3.412,0,6.824,0,10.237v2.807c.518-.252.866-.413,1.206-.589,6.12-3.165,12.231-6.347,18.366-9.484a2.8,2.8,0,0,0,1.7-2.795c-.041-4.314-.026-8.628-.012-12.942a8.577,8.577,0,0,0-5.329-8.384c-5.745-2.682-11.511-5.317-17.257-8a5.445,5.445,0,0,0-5.169.124c-4.256,2.252-8.544,4.443-12.82,6.658-1.8.93-3.592,1.858-5.6,2.894M48.648,12.892a4.538,4.538,0,0,0-.478-.351Q39.045,7.814,29.913,3.1a4.957,4.957,0,0,0-4.533-.018C19.445,5.818,13.494,8.523,7.588,11.322a8,8,0,0,0-4.955,7.17c-.172,4.818-.051,9.647-.059,14.471a2.222,2.222,0,0,0,1.258,2.1c4.17,2.164,8.358,4.294,12.523,6.469.525.274.753.163,1.013-.3a6.59,6.59,0,0,1,3.65-3.171c2.306-.769,3.33-2.182,2.82-4.617a5.207,5.207,0,0,1-.01-1.057c.008-5.358,2.368-9.178,7.307-11.413,5.81-2.629,11.582-5.341,17.512-8.082M33.936,64.549c0,.764.049,1.343-.013,1.911-.074.675.26.964.819,1.218C38.233,69.267,41.7,70.9,45.2,72.486a2.5,2.5,0,0,0,3.768-2.428c.019-4.51.056-9.021-.014-13.531a8.093,8.093,0,0,0-4.694-7.591c-6.09-2.956-12.246-5.781-18.429-8.538a4.925,4.925,0,0,0-6.942,4.474c-.085,4.587-.027,9.177-.023,13.766a2.193,2.193,0,0,0,1.066,2.1c2.079,1.06,4.2,2.026,6.359,3.051.313-2.638.312-2.637-1.884-3.649-.5-.229-1-.455-1.49-.694a2.484,2.484,0,0,1-1.525-2.425c.017-4-.013-8,.016-12a2.429,2.429,0,0,1,3.516-2.307c6.092,2.768,12.172,5.566,18.216,8.439a5.523,5.523,0,0,1,3.276,4.958c.126,3.447.088,6.9.033,10.352a2.453,2.453,0,0,1-3.513,2.223c-.545-.216-1.068-.487-1.6-.732l-7.4-3.406M23.838,44.99a10.4,10.4,0,0,1-.012,1.656c-.392,2.1.417,3.277,2.493,3.9a3.676,3.676,0,0,1,2.6,3.911c-.007,1.02,0,2.04,0,3.059,0,3.726-.007,7.453.006,11.179,0,1.153.663,1.825,1.5,1.571s.964-.923.962-1.681c-.008-3.177-.024-6.354,0-9.531.03-3.423,2.63-5.088,5.776-3.723,2.011.872,4.024,1.74,6.012,2.661.655.3.8.157.828-.513a4.117,4.117,0,0,0-2.631-4.407q-5.856-2.723-11.726-5.417c-1.874-.864-3.751-1.723-5.8-2.666M56.517,28.385c0-2.743,0-5.291,0-7.839-.008-4.6-3.568-6.865-7.757-4.935-5.44,2.506-10.845,5.091-16.32,7.518-5.512,2.443-6.563,6.547-5.88,11.9,2.325-.819,2.344-.819,2.34-3.136a6.094,6.094,0,0,1,3.6-5.98c5.911-2.791,11.853-5.517,17.8-8.231A2.474,2.474,0,0,1,53.978,20.1c.017,2.079.035,4.159-.013,6.237a1.164,1.164,0,0,0,.87,1.312c.508.176.99.427,1.682.732m-4.98-2.269c0-1.993-.011-3.755.006-5.517.006-.642-.267-.609-.722-.4C45,22.9,39.158,25.568,33.357,28.316A3.493,3.493,0,0,0,31.589,32.5c.322-.152.638-.29.944-.448,3.34-1.725,6.724-3.373,10-5.206,2.853-1.6,5.7-2.391,9-.732m-7.55,37.629c0-.667-.011-1.334,0-2a.768.768,0,0,0-.485-.835c-2.58-1.132-5.138-2.315-7.735-3.406-1.051-.441-1.777.1-1.828,1.23-.032.7.043,1.416-.022,2.116a1.178,1.178,0,0,0,.853,1.327c2.288,1.019,4.554,2.086,6.832,3.128,2.381,1.089,2.383,1.086,2.381-1.562M26.4,58.264c0-1.164,0-2.164,0-3.164,0-1.748-.153-1.948-1.747-2.592-.563-.228-.853-.254-.824.5.044,1.131.023,2.265.006,3.4a.853.853,0,0,0,.509.943c.635.267,1.26.558,2.056.913" transform="translate(0 0)" fill="#fef0d7"/>
          <path id="Trazado_615780" data-name="Trazado 615780" d="M225.5,181.483a1.255,1.255,0,0,1-.465-2.45c1.882-.873,3.767-1.737,5.65-2.609,2.557-1.184,5.118-2.36,7.666-3.563.819-.387,1.569-.451,1.986.468.377.828-.04,1.4-.841,1.773q-6.665,3.069-13.321,6.159a5.287,5.287,0,0,1-.674.223" transform="translate(-171.379 -131.963)" fill="#fef0d7"/>
          <path id="Trazado_615781" data-name="Trazado 615781" d="M41.8,83.767c-.167-.067-.46-.171-.742-.3q-6.5-2.994-13.008-5.989c-.825-.378-1.335-.94-.936-1.837.416-.936,1.212-.831,2-.464q6.547,3.041,13.095,6.078c.72.333,1.2.794.968,1.636-.161.593-.613.886-1.379.877" transform="translate(-20.629 -57.275)" fill="#fef0d7"/>
        </g>
      </g>
    </g>
  </g>
</svg>
