<svg xmlns="http://www.w3.org/2000/svg" width="66.34" height="65.427" viewBox="0 0 66.34 65.427">
  <g id="envio-mundial" transform="translate(-0.67 -1.11)">
    <g id="Grupo_1099244" data-name="Grupo 1099244" transform="translate(0.67 1.11)">
      <g id="Grupo_1099243" data-name="Grupo 1099243">
        <g id="Grupo_1099242" data-name="Grupo 1099242">
          <path id="Trazado_873399" data-name="Trazado 873399" d="M60.711,31.141a30.282,30.282,0,0,1-.482,5.407A30.031,30.031,0,0,1,3.235,43.3a29.529,29.529,0,0,1-1.529-4.319A29.916,29.916,0,0,1,.67,31.141a30.5,30.5,0,0,1,.677-6.392c0-.021.01-.051.01-.072A30.091,30.091,0,0,1,13.084,6.814c.616-.451,1.252-.872,1.908-1.272A29.84,29.84,0,0,1,30.69,1.11c.759,0,1.518.031,2.267.082a31.208,31.208,0,0,1,3.119.4A30.078,30.078,0,0,1,56.053,15.074c.462.728.893,1.467,1.293,2.237a30,30,0,0,1,3.365,13.83Z" transform="translate(-0.67 -1.11)" fill="#fff"/>
          <path id="Trazado_873400" data-name="Trazado 873400" d="M60.71,31.14a30.282,30.282,0,0,1-.482,5.407,30.019,30.019,0,0,1-27.65,24.562q-.939.062-1.878.062A30.012,30.012,0,0,1,3.245,43.309a29.529,29.529,0,0,1-1.529-4.319A29.916,29.916,0,0,1,.68,31.151a30.5,30.5,0,0,1,.677-6.392c0-.021.01-.051.01-.072A30.091,30.091,0,0,1,13.094,6.824c.616-.451,1.252-.872,1.908-1.272A29.848,29.848,0,0,1,30.7,1.12c.759,0,1.518.031,2.267.082.4.031.8.072,1.2.113.646.072,1.293.164,1.919.287A30.078,30.078,0,0,1,56.063,15.084c.462.728.893,1.467,1.293,2.237a30.268,30.268,0,0,1,2.288,5.838A30.581,30.581,0,0,1,60.71,31.14Z" transform="translate(-0.67 -1.11)" fill="#9ccffe"/>
          <g id="Grupo_1099241" data-name="Grupo 1099241" transform="translate(0.677 0.021)">
            <path id="Trazado_873401" data-name="Trazado 873401" d="M20.475,17.588c-1.2,1.9.5,5.191-3.1,4.289s-5.787-1.3-5.992.7,2.7,2,2.7,4.094-1.3,2.791-3.293,1.8S8.214,26.022,5.9,26.914s-3.673.3-4.2-1.5a2.826,2.826,0,0,0-.369-.79c0-.021.01-.051.01-.072A30.091,30.091,0,0,1,13.067,6.692c.616-.451,1.252-.872,1.908-1.272a3.938,3.938,0,0,1,3.006,1.57c2.093,2.6,3.5,1.3,3,4.289s.3,3.4,2,3.293,3.694-.1,3.888,1.2c.195,1.324-5.2-.072-6.392,1.816Z" transform="translate(-1.33 -1.019)" fill="#1c6be4"/>
            <path id="Trazado_873402" data-name="Trazado 873402" d="M59.777,30.7a30.282,30.282,0,0,1-.482,5.407,29.947,29.947,0,0,1-4.74,11.522,3.456,3.456,0,0,1-2.4-.062c-3.745-1.5-.975-5.54.523-7.562s-2.319-1.118-5.089-3,.3-6.884-2.544-6.064-6.289,1.867-7.941-.9,1.5-3.222.072-5.54S38,20.83,40.847,20.615s2.473-2.247,5.992-2.544,3.447,4.2,7.336,3.888,3.714.6,3.714.6a1.726,1.726,0,0,1,.811.174A30.023,30.023,0,0,1,59.777,30.7Z" transform="translate(-0.413 -0.69)" fill="#1c6be4"/>
            <path id="Trazado_873403" data-name="Trazado 873403" d="M56.371,17.195c-3.242,1.58-4.535-2.709-7.305-1.426-2.791,1.3-2.3-1.2-4.494-2.791s-6.587,1.3-6.392-1.2,3.5-1.8,4.2-3.8,3.888-1.5,3.888-1.5a2.207,2.207,0,0,1,.585-.133,30.22,30.22,0,0,1,8.228,8.6C55.55,15.676,55.971,16.425,56.371,17.195Z" transform="translate(-0.373 -0.994)" fill="#1c6be4"/>
            <path id="Trazado_873404" data-name="Trazado 873404" d="M33.554,1.325a4.361,4.361,0,0,1-.5,1.047c-2.042.215-1.713,1.9-3.447,4.114s-3.3-1.939-5.222-4.114a5.749,5.749,0,0,1-.472-.605,29.891,29.891,0,0,1,6.176-.636c.759,0,1.518.031,2.267.082.4.021.8.062,1.2.113Z" transform="translate(-0.743 -1.13)" fill="#1c6be4"/>
            <path id="Trazado_873405" data-name="Trazado 873405" d="M21.422,34.19s-1.816,2.1-3.375.893-1.088-1.97-3.375-1.211-3.293-.5-4.463.451S9.983,35.4,9.172,37.412s-2.483,2.339-1.19,4.36,3.7.975,4.976,2.042.852,2.114,2.442,2.544,3.1-1.108,3.129.8-.585,3.786,1.385,5.561,4.843.451,4.791-.923,1.334-1.262.78-3.027,1-2.719.472-3.858-3.519-1.529-3.17-2.688,3.057-.174,3.2-2.606-1.5-3.3-1.252-5.674c.246-2.339-3.037-1.211-3.314.246Z" transform="translate(-1.169 -0.312)" fill="#1c6be4"/>
          </g>
        </g>
      </g>
    </g>
    <g id="Grupo_1099249" data-name="Grupo 1099249" transform="translate(31.142 24.738)">
      <g id="Grupo_1099245" data-name="Grupo 1099245" transform="translate(14.148)">
        <path id="Trazado_873406" data-name="Trazado 873406" d="M57.888,33.846a.508.508,0,0,1-.513-.513V31.26a6.094,6.094,0,1,0-12.189,0v2.072a.513.513,0,0,1-1.026,0V31.26a7.12,7.12,0,1,1,14.241,0v2.072A.508.508,0,0,1,57.888,33.846Z" transform="translate(-44.16 -24.14)" fill="#270537"/>
      </g>
      <g id="Grupo_1099248" data-name="Grupo 1099248" transform="translate(0 0)">
        <g id="Grupo_1099247" data-name="Grupo 1099247">
          <path id="Trazado_873407" data-name="Trazado 873407" d="M59.159,33.1,55.527,65.706H30.37L34,33.1Z" transform="translate(-30.37 -23.907)" fill="#fcbd18"/>
          <circle id="Elipse_6032" data-name="Elipse 6032" cx="1.549" cy="1.549" r="1.549" transform="translate(7.11 12.117)" fill="#fff"/>
          <circle id="Elipse_6033" data-name="Elipse 6033" cx="1.549" cy="1.549" r="1.549" transform="translate(20.325 12.117)" fill="#fff"/>
          <path id="Trazado_873408" data-name="Trazado 873408" d="M54.89,65.706,58.522,33.1H62.3l3.3,32.606Z" transform="translate(-29.733 -23.907)" fill="#ff551a"/>
          <g id="Grupo_1099246" data-name="Grupo 1099246" transform="translate(8.146)">
            <path id="Trazado_873409" data-name="Trazado 873409" d="M52.038,37.981a.508.508,0,0,1-.513-.513V31.26a6.094,6.094,0,1,0-12.189,0v6.207a.513.513,0,1,1-1.026,0V31.26a7.12,7.12,0,1,1,14.241,0v6.207A.508.508,0,0,1,52.038,37.981Z" transform="translate(-38.31 -24.14)" fill="#270537"/>
          </g>
        </g>
      </g>
      <path id="Trazado_873410" data-name="Trazado 873410" d="M65.6,65.033H54.89l5.356-6.023Z" transform="translate(-29.733 -23.234)" fill="#fcbd18"/>
    </g>
  </g>
</svg>
