<svg xmlns="http://www.w3.org/2000/svg" xmlns:xlink="http://www.w3.org/1999/xlink" width="120" height="120" viewBox="0 0 120 120">
  <defs>
    <clipPath id="clip-path">
      <path id="Trazado_611025" data-name="Trazado 611025" d="M60.2,1.073a9.086,9.086,0,0,0-7.37,3.762A8.709,8.709,0,0,1,44.126,6.7a9.052,9.052,0,0,0-7.7-.5c-.129.048-.258.1-.385.152l-.1.042a9.132,9.132,0,0,0-5.208,6.448,8.743,8.743,0,0,1-7.2,5.262,9.061,9.061,0,0,0-7.6,3.07,9.166,9.166,0,0,0-2.151,7.986,8.774,8.774,0,0,1-4.423,7.764,9.134,9.134,0,0,0-5.728,5.933c-.009.028-.014.054-.022.078-.041.144-.08.286-.116.43A9.17,9.17,0,0,0,4.9,51.028a8.813,8.813,0,0,1-.9,8.9A9.3,9.3,0,0,0,5.664,74.658a8.81,8.81,0,0,1,2.754,8.505,9.174,9.174,0,0,0,.312,7.746c.063.134.132.259.2.385.015.028.027.055.041.078A9.093,9.093,0,0,0,15.9,95.9a8.774,8.774,0,0,1,5.958,6.646,9.221,9.221,0,0,0,11.966,8.589,8.71,8.71,0,0,1,8.146,3.606,9.108,9.108,0,0,0,6.471,5.105c.026.006.051.006.078.013.145.025.288.052.438.072a9.077,9.077,0,0,0,7.439-2.208,8.687,8.687,0,0,1,8.9-.034,9.21,9.21,0,0,0,14.407-3.2,8.712,8.712,0,0,1,8.129-3.639,9.056,9.056,0,0,0,7.636-1.123c.121-.075.24-.157.355-.239.026-.017.055-.034.079-.054a9.155,9.155,0,0,0,3.762-7.4,8.764,8.764,0,0,1,5.955-6.644,9.26,9.26,0,0,0,7.25-12.855A8.806,8.806,0,0,1,115.614,74a9.281,9.281,0,0,0,1.419-14.7,8.818,8.818,0,0,1-.951-8.922,9.273,9.273,0,0,0-4.654-14.013,8.79,8.79,0,0,1-4.484-7.763,9.166,9.166,0,0,0-2.249-7.915A9.056,9.056,0,0,0,97.02,17.7a8.745,8.745,0,0,1-7.225-5.234,9.134,9.134,0,0,0-5.272-6.342.731.731,0,0,0-.088-.034c-.129-.054-.264-.106-.4-.157a9.068,9.068,0,0,0-7.737.605,8.7,8.7,0,0,1-8.714-1.827,9.088,9.088,0,0,0-7.253-3.64H60.2" transform="translate(-1.105 -1.072)" fill="#b0dfde"/>
    </clipPath>
    <clipPath id="clip-path-3">
      <rect id="Rectángulo_378432" data-name="Rectángulo 378432" width="120" height="120" fill="none"/>
    </clipPath>
    <clipPath id="clip-path-4">
      <rect id="Rectángulo_379155" data-name="Rectángulo 379155" width="70.898" height="68.672" fill="#3c5756"/>
    </clipPath>
  </defs>
  <g id="Grupo_1074213" data-name="Grupo 1074213" transform="translate(-308 -9145)">
    <g id="Grupo_1074149" data-name="Grupo 1074149" transform="translate(308 9145)">
      <g id="Grupo_1074143" data-name="Grupo 1074143" transform="translate(0)">
        <g id="Grupo_1074028" data-name="Grupo 1074028" transform="translate(0 0)">
          <g id="Grupo_1074021" data-name="Grupo 1074021" transform="translate(0)">
            <g id="Grupo_1074018" data-name="Grupo 1074018" transform="translate(0.458 0.445)">
              <g id="Grupo_1074017" data-name="Grupo 1074017" clip-path="url(#clip-path)">
                <path id="Trazado_611056" data-name="Trazado 611056" d="M0,0H132.2V131.995H0Z" transform="translate(-4.993 128.152) rotate(-90)" fill="#b0dfde"/>
              </g>
            </g>
            <g id="Grupo_1074020" data-name="Grupo 1074020">
              <g id="Grupo_1074019" data-name="Grupo 1074019" clip-path="url(#clip-path-3)">
                <path id="Trazado_611027" data-name="Trazado 611027" d="M20.249,115.762a9.02,9.02,0,0,0,2.992,3.361,9.123,9.123,0,0,0,4.2,1.5h.014l.016.006a9.021,9.021,0,0,1,3.985,2.5,10.017,10.017,0,0,1,2.172,4.215l.007.026v.031a8.863,8.863,0,0,0,3.81,7.007,8.71,8.71,0,0,0,7.784,1.188l.038-.013.049,0a9.3,9.3,0,0,1,4.791.681,10.136,10.136,0,0,1,3.782,3.042l.034.042.026.055a8.636,8.636,0,0,0,2.538,3.148,8.51,8.51,0,0,0,3.7,1.641l-.043-.009.5.075c.171.017.359.049.516.056a8.63,8.63,0,0,0,.979.017,8.421,8.421,0,0,0,1.953-.306,8.526,8.526,0,0,0,3.434-1.892l.044-.04.061-.036a9.4,9.4,0,0,1,4.747-1.344,10.25,10.25,0,0,1,4.755,1.275l.067.035.055.049a8.556,8.556,0,0,0,13.372-3l.028-.065.046-.064a9.565,9.565,0,0,1,3.835-3.171,10.358,10.358,0,0,1,4.89-.768l.079,0,.078.023a8.4,8.4,0,0,0,3.9.215,8.567,8.567,0,0,0,7.014-8.358v-.079l.017-.078a9.657,9.657,0,0,1,2.249-4.465,10.407,10.407,0,0,1,4.172-2.683l.079-.029.075-.009A8.435,8.435,0,0,0,123.4,115.3a8.526,8.526,0,0,0,.429-7.643l-.028-.064-.015-.07a9.639,9.639,0,0,1,.229-4.983,10.378,10.378,0,0,1,2.713-4.15l.054-.052.061-.036a8.713,8.713,0,0,0,1.382-13.752l-.045-.041-.033-.046a9.5,9.5,0,0,1-1.765-4.6,10.3,10.3,0,0,1,.812-4.828l.023-.056.029-.04a8.867,8.867,0,0,0-4.37-13.412l-.038-.013-.029-.017a9.252,9.252,0,0,1-3.381-3.414,10.033,10.033,0,0,1-1.163-4.642v-.03l.005-.023a9.116,9.116,0,0,0-9.7-10.856,9.111,9.111,0,0,1,7.761,2.877,9.245,9.245,0,0,1,2.152,3.734,9.452,9.452,0,0,1,.244,4.333l0-.053a9.488,9.488,0,0,0,1.2,4.371,8.6,8.6,0,0,0,3.228,3.1l-.067-.03a9.46,9.46,0,0,1,6.087,6.04,9.567,9.567,0,0,1,.446,4.42,9.7,9.7,0,0,1-1.593,4.162l.051-.1a9.273,9.273,0,0,0-.679,4.369,8.417,8.417,0,0,0,1.632,4.057l-.078-.088a9.738,9.738,0,0,1,3.175,8.174,9.593,9.593,0,0,1-1.422,4.3,9.8,9.8,0,0,1-3.211,3.19l.114-.089a9.1,9.1,0,0,0-2.37,3.641,8.311,8.311,0,0,0-.168,4.308l-.043-.133a9.9,9.9,0,0,1,.824,4.477,9.9,9.9,0,0,1-8.593,9.348l.154-.037a8.987,8.987,0,0,0-3.606,2.328,8.193,8.193,0,0,0-1.887,3.815l.017-.158a9.963,9.963,0,0,1-1.055,4.468,9.8,9.8,0,0,1-2.963,3.489,9.993,9.993,0,0,1-4.192,1.81,9.8,9.8,0,0,1-4.553-.273l.157.029a8.982,8.982,0,0,0-4.245.633,8.192,8.192,0,0,0-3.294,2.71l.075-.129a9.84,9.84,0,0,1-2.783,3.623,9.822,9.822,0,0,1-12.669-.213l.121.084a8.988,8.988,0,0,0-4.166-1.15,8.33,8.33,0,0,0-4.138,1.15l.1-.075a9.7,9.7,0,0,1-6.166,2.417,9.436,9.436,0,0,1-1.134-.04c-.194-.014-.355-.044-.534-.066l-.542-.088.021,0-.064-.012a9.478,9.478,0,0,1-2.137-.7,9.64,9.64,0,0,1-4.722-4.752l.059.1a9.205,9.205,0,0,0-3.389-2.819,8.411,8.411,0,0,0-4.337-.673l.086-.018a9.495,9.495,0,0,1-4.4.305,9.265,9.265,0,0,1-4.044-1.721,9.375,9.375,0,0,1-2.855-3.328,9.5,9.5,0,0,1-1.047-4.243l.008.057a9.578,9.578,0,0,0-1.98-4.082,8.7,8.7,0,0,0-3.783-2.5l.03.007a9.129,9.129,0,0,1-7.162-5.136" transform="translate(-12.182 -25.469)" fill="#3c5756"/>
                <path id="Trazado_611028" data-name="Trazado 611028" d="M83.8,5.449a9.116,9.116,0,0,0-8.053.6l-.013.008-.02.006a9.058,9.058,0,0,1-4.708.371,9.933,9.933,0,0,1-4.268-2.109L66.712,4.3l-.026-.034A8.8,8.8,0,0,0,59.54.86,8.632,8.632,0,0,0,52.6,4.5l-.028.041-.048.043a9.394,9.394,0,0,1-4.323,2.3,10.249,10.249,0,0,1-4.892-.231l-.061-.017-.068-.036a8.544,8.544,0,0,0-7.667-.232,8.484,8.484,0,0,0-4.782,5.984l-.014.068-.033.072a9.6,9.6,0,0,1-3.09,3.9,10.379,10.379,0,0,1-4.623,1.78l-.08.012-.08-.007a8.624,8.624,0,0,0-8.878,6.3,8.515,8.515,0,0,0-.126,3.911l.015.075v.074a9.686,9.686,0,0,1-1.258,4.835,10.358,10.358,0,0,1-3.514,3.5l-.07.044-.07.023A8.493,8.493,0,0,0,3.58,42.418c-.085.3-.176.644-.251.992a9.265,9.265,0,0,0-.137.969,8.557,8.557,0,0,0,.067,1.988A8.693,8.693,0,0,0,4.731,50.04l.041.058.024.055a9.576,9.576,0,0,1,.768,4.878,10.291,10.291,0,0,1-1.8,4.559l-.038.056-.039.036A8.72,8.72,0,0,0,.933,67.038a8.865,8.865,0,0,0,4.231,6.717l.035.02.022.022a9.187,9.187,0,0,1,2.553,4.035,10.022,10.022,0,0,1,.149,4.741l0,.023-.007.014a9.218,9.218,0,0,0-.425,6.12,9.926,9.926,0,0,0,.784,1.948,10.021,10.021,0,0,1-.875-1.92,9.208,9.208,0,0,1,.2-6.28l-.01.037A9.6,9.6,0,0,0,7.3,77.982a8.606,8.606,0,0,0-2.52-3.7l.057.042A9.33,9.33,0,0,1,1.6,71.314,9.521,9.521,0,0,1,.081,67.138a9.656,9.656,0,0,1,2.9-8.214l-.078.092a9.223,9.223,0,0,0,1.535-4.107,8.386,8.386,0,0,0-.769-4.264l.065.113a9.73,9.73,0,0,1-1.727-4.2,9.871,9.871,0,0,1-.092-2.287,10.311,10.311,0,0,1,.158-1.154c.075-.351.159-.7.27-1.087a9.814,9.814,0,0,1,6.126-6.383l-.141.068a8.983,8.983,0,0,0,3.041-3.052,8.262,8.262,0,0,0,1.039-4.146l.015.149a9.959,9.959,0,0,1,.117-4.574,9.856,9.856,0,0,1,10.389-7.335l-.161.005a9,9,0,0,0,4.024-1.5,8.227,8.227,0,0,0,2.667-3.34l-.046.14a9.867,9.867,0,0,1,1.967-4.111,9.688,9.688,0,0,1,3.594-2.767A9.918,9.918,0,0,1,39.418,4.3a9.609,9.609,0,0,1,4.353,1.218l-.128-.052a9.078,9.078,0,0,0,4.335.3A8.321,8.321,0,0,0,51.846,3.8l-.076.084A9.63,9.63,0,0,1,55.2,1.006a9.764,9.764,0,0,1,8.643.006A9.323,9.323,0,0,1,67.2,3.873l-.052-.054A9.381,9.381,0,0,0,71.11,5.945a8.64,8.64,0,0,0,4.5-.21l-.033.014a9.132,9.132,0,0,1,4.095-1.13,9.256,9.256,0,0,1,4.126.829" transform="translate(0 0)" fill="#3c5756"/>
              </g>
            </g>
          </g>
        </g>
      </g>
      <g id="Grupo_1074144" data-name="Grupo 1074144" transform="translate(23.322 23.326)">
        <rect id="Rectángulo_378411" data-name="Rectángulo 378411" width="73.516" height="73.515" transform="translate(0 0)" fill="none"/>
      </g>
    </g>
    <g id="Grupo_1075321" data-name="Grupo 1075321" transform="translate(332.551 9170.664)">
      <g id="Grupo_1075320" data-name="Grupo 1075320" clip-path="url(#clip-path-4)">
        <path id="Trazado_615772" data-name="Trazado 615772" d="M35.579,11.272A27.7,27.7,0,0,0,8.2,34.313a27.26,27.26,0,0,0,5.956,22.27A3.3,3.3,0,0,1,14.8,57.6a.893.893,0,0,1-.578,1.075c-.607.281-1.049-.024-1.441-.486A29.763,29.763,0,0,1,5.757,40.739c-.034-.522-.163-.747-.724-.872-4.176-.93-6.11-4.6-4.426-8.519a16.7,16.7,0,0,0,1.051-6.174c.11-3.146,1-5.884,3.736-7.742.426-.289.425-.766.536-1.173a9.134,9.134,0,0,1,7.065-6.878c.313-.079.649-.059.867-.4,1.914-2.953,4.867-3.884,8.129-3.853A17.872,17.872,0,0,0,31,2.517a4.552,4.552,0,0,0,1.114-1.045,4.538,4.538,0,0,1,6.611-.084,12.947,12.947,0,0,0,7.109,3.47,41.392,41.392,0,0,0,4.74.419,7.955,7.955,0,0,1,6.133,3.282,2.265,2.265,0,0,0,1.423.9,12.868,12.868,0,0,1,2.076.741c.662.282,1.027.8.676,1.506s-.95.677-1.608.358a7.081,7.081,0,0,0-7.532.616c-.84.569-.786.872.057,1.416a28.2,28.2,0,0,1,8.6,8.657c.551.868.825.64,1.281,0a7.113,7.113,0,0,0,.913-7.124,5.842,5.842,0,0,1-.357-1.035.9.9,0,0,1,.624-1.05.914.914,0,0,1,1.17.363,3.852,3.852,0,0,1,.619,1.288,5.51,5.51,0,0,0,2.107,3.333c1.679,1.424,2.186,3.437,2.411,5.538.169,1.577.119,3.168.376,4.744a13.869,13.869,0,0,0,.9,2.835,5.965,5.965,0,0,1-4.354,8.186c-.649.136-.915.292-.954,1.017a29.713,29.713,0,0,1-22.669,26.97,29.413,29.413,0,0,1-25.119-5.293,9.628,9.628,0,0,1-1.188-.995,1.016,1.016,0,0,1,1.263-1.576,7.453,7.453,0,0,1,.792.6,27.652,27.652,0,1,0,23.2-48.622,26.129,26.129,0,0,0-5.837-.663m-20.944-.014a5.436,5.436,0,0,0-1.925.364A7.152,7.152,0,0,0,9.322,22.887c.4.491.651.7,1.09.006a29.018,29.018,0,0,1,9-9.013c.547-.351.53-.573.056-.949a7.544,7.544,0,0,0-4.833-1.673m50.546,8.681A15.561,15.561,0,0,1,64.132,22.8a10.014,10.014,0,0,1-1.9,2.432c-.345.326-.046.631.084.9a29.442,29.442,0,0,1,2.832,11.06c.041.653.265.709.825.551a3.835,3.835,0,0,0,2.543-5.176A18.884,18.884,0,0,1,67.2,26.44c-.074-1.03-.109-2.066-.253-3.086a5.028,5.028,0,0,0-1.764-3.416M5.739,19.922A6.158,6.158,0,0,0,3.793,24.65a22.923,22.923,0,0,1-1.473,8.1A3.791,3.791,0,0,0,4.91,37.73c.525.152.8.168.843-.521A29.3,29.3,0,0,1,8.626,26.048c.141-.29.339-.579-.01-.89a9.688,9.688,0,0,1-2.877-5.235m37.252-9.817c-1.928-2.43-3.67-4.651-5.442-6.85-1.309-1.625-2.912-1.6-4.239.053Q30.924,6.28,28.575,9.28c-.16.2-.475.361-.356.767a31.686,31.686,0,0,1,14.772.059M28.176,6.4c-2.408.772-4.792.686-7.139.876a6.316,6.316,0,0,0-4.679,2,9.609,9.609,0,0,1,5.238,2.8c.154.162.322.357.564.218.732-.421,1.678-.508,2.235-1.164,1.3-1.538,2.526-3.148,3.781-4.728M54.514,9.262A6.115,6.115,0,0,0,49.9,7.283c-2.375-.192-4.782-.121-7.362-1.135C43.842,7.8,45,9.169,46.039,10.619c.686.956,1.769,1.142,2.676,1.668.238.138.414-.019.572-.188a9.833,9.833,0,0,1,5.227-2.837" transform="translate(0 -0.001)" fill="#3c5756"/>
        <path id="Trazado_615773" data-name="Trazado 615773" d="M102.806,141.831a3.26,3.26,0,0,1-3.231-1.91,3.21,3.21,0,0,1,.46-3.719c.614-.733,1.335-1.377,2.013-2.056q8.923-8.93,17.844-17.862a3.518,3.518,0,0,1,3.81-1.09,3.32,3.32,0,0,1,2.349,2.816,3.635,3.635,0,0,1-1.3,3.244q-6.4,6.366-12.767,12.757c-2.245,2.244-4.5,4.479-6.736,6.73a3.17,3.17,0,0,1-2.438,1.089m-1.458-3.4a1.253,1.253,0,0,0,.9,1.282c.7.282,1.2-.112,1.657-.573q4.265-4.264,8.531-8.527,5.437-5.44,10.869-10.885c.794-.8.881-1.62.275-2.215-.628-.617-1.39-.528-2.222.278-.5.488-.992.991-1.488,1.487q-8.847,8.846-17.692,17.694c-.413.414-.909.79-.826,1.459" transform="translate(-77.197 -89.513)" fill="#3c5756"/>
        <path id="Trazado_615774" data-name="Trazado 615774" d="M147.735,182.251a3.647,3.647,0,0,1,1.074-2.822q7.474-7.478,14.959-14.945a3.468,3.468,0,0,1,4.887-.065,3.394,3.394,0,0,1,0,4.952q-7.489,7.542-15.035,15.027a3.476,3.476,0,0,1-5.884-2.147m19.85-15.272a1.317,1.317,0,0,0-.838-1.347,1.428,1.428,0,0,0-1.684.482q-7.316,7.315-14.623,14.638c-.75.753-.81,1.546-.229,2.14a1.466,1.466,0,0,0,2.158-.171Q159.7,175.412,167,168.086a1.572,1.572,0,0,0,.58-1.108" transform="translate(-114.989 -127.215)" fill="#3c5756"/>
        <path id="Trazado_615775" data-name="Trazado 615775" d="M94.926,91.851a3.65,3.65,0,0,1-1.067,2.779c-1.036,1.053-2.091,2.088-3.129,3.138-.518.523-1.092.868-1.722.259s-.309-1.195.218-1.717c1-.988,1.984-1.986,2.979-2.976.652-.649.934-1.355.25-2.137-.616-.7-1.355-.641-2.2.2q-7.294,7.273-14.568,14.565c-.74.741-.815,1.563-.251,2.143.627.644,1.4.583,2.223-.235q3.735-3.708,7.447-7.439a8.163,8.163,0,0,1,.723-.684.967.967,0,0,1,1.394.045.906.906,0,0,1,.057,1.378c-.493.549-1.021,1.066-1.542,1.589-2.271,2.273-4.512,4.577-6.829,6.8a3.438,3.438,0,0,1-5.874-1.717,3.11,3.11,0,0,1,.884-3.052q7.573-7.623,15.2-15.193a3.463,3.463,0,0,1,5.808,2.252" transform="translate(-56.768 -68.984)" fill="#3c5756"/>
      </g>
    </g>
  </g>
</svg>
