<svg xmlns="http://www.w3.org/2000/svg" xmlns:xlink="http://www.w3.org/1999/xlink" width="120" height="120" viewBox="0 0 120 120">
  <defs>
    <clipPath id="clip-path">
      <path id="Trazado_611025" data-name="Trazado 611025" d="M60.2,1.073a9.086,9.086,0,0,0-7.37,3.762A8.709,8.709,0,0,1,44.126,6.7a9.052,9.052,0,0,0-7.7-.5c-.129.048-.258.1-.385.152l-.1.042a9.132,9.132,0,0,0-5.208,6.448,8.743,8.743,0,0,1-7.2,5.262,9.061,9.061,0,0,0-7.6,3.07,9.166,9.166,0,0,0-2.151,7.986,8.774,8.774,0,0,1-4.423,7.764,9.134,9.134,0,0,0-5.728,5.933c-.009.028-.014.054-.022.078-.041.144-.08.286-.116.43A9.17,9.17,0,0,0,4.9,51.028a8.813,8.813,0,0,1-.9,8.9A9.3,9.3,0,0,0,5.664,74.658a8.81,8.81,0,0,1,2.754,8.505,9.174,9.174,0,0,0,.312,7.746c.063.134.132.259.2.385.015.028.027.055.041.078A9.093,9.093,0,0,0,15.9,95.9a8.774,8.774,0,0,1,5.958,6.646,9.221,9.221,0,0,0,11.966,8.589,8.71,8.71,0,0,1,8.146,3.606,9.108,9.108,0,0,0,6.471,5.105c.026.006.051.006.078.013.145.025.288.052.438.072a9.077,9.077,0,0,0,7.439-2.208,8.687,8.687,0,0,1,8.9-.034,9.21,9.21,0,0,0,14.407-3.2,8.712,8.712,0,0,1,8.129-3.639,9.056,9.056,0,0,0,7.636-1.123c.121-.075.24-.157.355-.239.026-.017.055-.034.079-.054a9.155,9.155,0,0,0,3.762-7.4,8.764,8.764,0,0,1,5.955-6.644,9.26,9.26,0,0,0,7.25-12.855A8.806,8.806,0,0,1,115.614,74a9.281,9.281,0,0,0,1.419-14.7,8.818,8.818,0,0,1-.951-8.922,9.273,9.273,0,0,0-4.654-14.013,8.79,8.79,0,0,1-4.484-7.763,9.166,9.166,0,0,0-2.249-7.915A9.056,9.056,0,0,0,97.02,17.7a8.745,8.745,0,0,1-7.225-5.234,9.134,9.134,0,0,0-5.272-6.342.731.731,0,0,0-.088-.034c-.129-.054-.264-.106-.4-.157a9.068,9.068,0,0,0-7.737.605,8.7,8.7,0,0,1-8.714-1.827,9.088,9.088,0,0,0-7.253-3.64H60.2" transform="translate(-1.105 -1.072)" fill="#b0dfde"/>
    </clipPath>
    <clipPath id="clip-path-2">
      <path id="Trazado_611025-2" data-name="Trazado 611025" d="M60.2,1.073a9.086,9.086,0,0,0-7.37,3.762A8.709,8.709,0,0,1,44.126,6.7a9.052,9.052,0,0,0-7.7-.5c-.129.048-.258.1-.385.152l-.1.042a9.132,9.132,0,0,0-5.208,6.448,8.743,8.743,0,0,1-7.2,5.262,9.061,9.061,0,0,0-7.6,3.07,9.166,9.166,0,0,0-2.151,7.986,8.774,8.774,0,0,1-4.423,7.764,9.134,9.134,0,0,0-5.728,5.933c-.009.028-.014.054-.022.078-.041.144-.08.286-.116.43A9.17,9.17,0,0,0,4.9,51.028a8.813,8.813,0,0,1-.9,8.9A9.3,9.3,0,0,0,5.664,74.658a8.81,8.81,0,0,1,2.754,8.505,9.174,9.174,0,0,0,.312,7.746c.063.134.132.259.2.385.015.028.027.055.041.078A9.093,9.093,0,0,0,15.9,95.9a8.774,8.774,0,0,1,5.958,6.646,9.221,9.221,0,0,0,11.966,8.589,8.71,8.71,0,0,1,8.146,3.606,9.108,9.108,0,0,0,6.471,5.105c.026.006.051.006.078.013.145.025.288.052.438.072a9.077,9.077,0,0,0,7.439-2.208,8.687,8.687,0,0,1,8.9-.034,9.21,9.21,0,0,0,14.407-3.2,8.712,8.712,0,0,1,8.129-3.639,9.056,9.056,0,0,0,7.636-1.123c.121-.075.24-.157.355-.239.026-.017.055-.034.079-.054a9.155,9.155,0,0,0,3.762-7.4,8.764,8.764,0,0,1,5.955-6.644,9.26,9.26,0,0,0,7.25-12.855A8.806,8.806,0,0,1,115.614,74a9.281,9.281,0,0,0,1.419-14.7,8.818,8.818,0,0,1-.951-8.922,9.273,9.273,0,0,0-4.654-14.013,8.79,8.79,0,0,1-4.484-7.763,9.166,9.166,0,0,0-2.249-7.915A9.056,9.056,0,0,0,97.02,17.7a8.745,8.745,0,0,1-7.225-5.234,9.134,9.134,0,0,0-5.272-6.342.731.731,0,0,0-.088-.034c-.129-.054-.264-.106-.4-.157a9.068,9.068,0,0,0-7.737.605,8.7,8.7,0,0,1-8.714-1.827,9.088,9.088,0,0,0-7.253-3.64H60.2" transform="translate(-1.105 -1.072)" fill="#fff"/>
    </clipPath>
    <clipPath id="clip-path-3">
      <rect id="Rectángulo_378432" data-name="Rectángulo 378432" width="120" height="120" fill="none"/>
    </clipPath>
    <clipPath id="clip-path-4">
      <rect id="Rectángulo_379154" data-name="Rectángulo 379154" width="68.678" height="69.354" fill="#3c5756"/>
    </clipPath>
  </defs>
  <g id="Grupo_1074212" data-name="Grupo 1074212" transform="translate(-308 -9145)">
    <g id="Grupo_1074149" data-name="Grupo 1074149" transform="translate(308 9145)">
      <g id="Grupo_1074143" data-name="Grupo 1074143" transform="translate(0)">
        <g id="Grupo_1074028" data-name="Grupo 1074028" transform="translate(0 0)">
          <g id="Grupo_1074021" data-name="Grupo 1074021" transform="translate(0)">
            <g id="Grupo_1074018" data-name="Grupo 1074018" transform="translate(0.458 0.445)">
              <g id="Grupo_1074017" data-name="Grupo 1074017" clip-path="url(#clip-path)">
                <path id="Trazado_611056" data-name="Trazado 611056" d="M0,0H132.2V131.995H0Z" transform="translate(-4.993 128.152) rotate(-90)" fill="#b0dfde"/>
              </g>
            </g>
            <g id="Grupo_1074020" data-name="Grupo 1074020">
              <g id="Grupo_1074019" data-name="Grupo 1074019" clip-path="url(#clip-path-3)">
                <path id="Trazado_611027" data-name="Trazado 611027" d="M20.249,115.762a9.02,9.02,0,0,0,2.992,3.361,9.123,9.123,0,0,0,4.2,1.5h.014l.016.006a9.021,9.021,0,0,1,3.985,2.5,10.017,10.017,0,0,1,2.172,4.215l.007.026v.031a8.863,8.863,0,0,0,3.81,7.007,8.71,8.71,0,0,0,7.784,1.188l.038-.013.049,0a9.3,9.3,0,0,1,4.791.681,10.136,10.136,0,0,1,3.782,3.042l.034.042.026.055a8.636,8.636,0,0,0,2.538,3.148,8.51,8.51,0,0,0,3.7,1.641l-.043-.009.5.075c.171.017.359.049.516.056a8.63,8.63,0,0,0,.979.017,8.421,8.421,0,0,0,1.953-.306,8.526,8.526,0,0,0,3.434-1.892l.044-.04.061-.036a9.4,9.4,0,0,1,4.747-1.344,10.25,10.25,0,0,1,4.755,1.275l.067.035.055.049a8.556,8.556,0,0,0,13.372-3l.028-.065.046-.064a9.565,9.565,0,0,1,3.835-3.171,10.358,10.358,0,0,1,4.89-.768l.079,0,.078.023a8.4,8.4,0,0,0,3.9.215,8.567,8.567,0,0,0,7.014-8.358v-.079l.017-.078a9.657,9.657,0,0,1,2.249-4.465,10.407,10.407,0,0,1,4.172-2.683l.079-.029.075-.009A8.435,8.435,0,0,0,123.4,115.3a8.526,8.526,0,0,0,.429-7.643l-.028-.064-.015-.07a9.639,9.639,0,0,1,.229-4.983,10.378,10.378,0,0,1,2.713-4.15l.054-.052.061-.036a8.713,8.713,0,0,0,1.382-13.752l-.045-.041-.033-.046a9.5,9.5,0,0,1-1.765-4.6,10.3,10.3,0,0,1,.812-4.828l.023-.056.029-.04a8.867,8.867,0,0,0-4.37-13.412l-.038-.013-.029-.017a9.252,9.252,0,0,1-3.381-3.414,10.033,10.033,0,0,1-1.163-4.642v-.03l.005-.023a9.116,9.116,0,0,0-9.7-10.856,9.111,9.111,0,0,1,7.761,2.877,9.245,9.245,0,0,1,2.152,3.734,9.452,9.452,0,0,1,.244,4.333l0-.053a9.488,9.488,0,0,0,1.2,4.371,8.6,8.6,0,0,0,3.228,3.1l-.067-.03a9.46,9.46,0,0,1,6.087,6.04,9.567,9.567,0,0,1,.446,4.42,9.7,9.7,0,0,1-1.593,4.162l.051-.1a9.273,9.273,0,0,0-.679,4.369,8.417,8.417,0,0,0,1.632,4.057l-.078-.088a9.738,9.738,0,0,1,3.175,8.174,9.593,9.593,0,0,1-1.422,4.3,9.8,9.8,0,0,1-3.211,3.19l.114-.089a9.1,9.1,0,0,0-2.37,3.641,8.311,8.311,0,0,0-.168,4.308l-.043-.133a9.9,9.9,0,0,1,.824,4.477,9.9,9.9,0,0,1-8.593,9.348l.154-.037a8.987,8.987,0,0,0-3.606,2.328,8.193,8.193,0,0,0-1.887,3.815l.017-.158a9.963,9.963,0,0,1-1.055,4.468,9.8,9.8,0,0,1-2.963,3.489,9.993,9.993,0,0,1-4.192,1.81,9.8,9.8,0,0,1-4.553-.273l.157.029a8.982,8.982,0,0,0-4.245.633,8.192,8.192,0,0,0-3.294,2.71l.075-.129a9.84,9.84,0,0,1-2.783,3.623,9.822,9.822,0,0,1-12.669-.213l.121.084a8.988,8.988,0,0,0-4.166-1.15,8.33,8.33,0,0,0-4.138,1.15l.1-.075a9.7,9.7,0,0,1-6.166,2.417,9.436,9.436,0,0,1-1.134-.04c-.194-.014-.355-.044-.534-.066l-.542-.088.021,0-.064-.012a9.478,9.478,0,0,1-2.137-.7,9.64,9.64,0,0,1-4.722-4.752l.059.1a9.205,9.205,0,0,0-3.389-2.819,8.411,8.411,0,0,0-4.337-.673l.086-.018a9.495,9.495,0,0,1-4.4.305,9.265,9.265,0,0,1-4.044-1.721,9.375,9.375,0,0,1-2.855-3.328,9.5,9.5,0,0,1-1.047-4.243l.008.057a9.578,9.578,0,0,0-1.98-4.082,8.7,8.7,0,0,0-3.783-2.5l.03.007a9.129,9.129,0,0,1-7.162-5.136" transform="translate(-12.182 -25.469)" fill="#3c5756"/>
                <path id="Trazado_611028" data-name="Trazado 611028" d="M83.8,5.449a9.116,9.116,0,0,0-8.053.6l-.013.008-.02.006a9.058,9.058,0,0,1-4.708.371,9.933,9.933,0,0,1-4.268-2.109L66.712,4.3l-.026-.034A8.8,8.8,0,0,0,59.54.86,8.632,8.632,0,0,0,52.6,4.5l-.028.041-.048.043a9.394,9.394,0,0,1-4.323,2.3,10.249,10.249,0,0,1-4.892-.231l-.061-.017-.068-.036a8.544,8.544,0,0,0-7.667-.232,8.484,8.484,0,0,0-4.782,5.984l-.014.068-.033.072a9.6,9.6,0,0,1-3.09,3.9,10.379,10.379,0,0,1-4.623,1.78l-.08.012-.08-.007a8.624,8.624,0,0,0-8.878,6.3,8.515,8.515,0,0,0-.126,3.911l.015.075v.074a9.686,9.686,0,0,1-1.258,4.835,10.358,10.358,0,0,1-3.514,3.5l-.07.044-.07.023A8.493,8.493,0,0,0,3.58,42.418c-.085.3-.176.644-.251.992a9.265,9.265,0,0,0-.137.969,8.557,8.557,0,0,0,.067,1.988A8.693,8.693,0,0,0,4.731,50.04l.041.058.024.055a9.576,9.576,0,0,1,.768,4.878,10.291,10.291,0,0,1-1.8,4.559l-.038.056-.039.036A8.72,8.72,0,0,0,.933,67.038a8.865,8.865,0,0,0,4.231,6.717l.035.02.022.022a9.187,9.187,0,0,1,2.553,4.035,10.022,10.022,0,0,1,.149,4.741l0,.023-.007.014a9.218,9.218,0,0,0-.425,6.12,9.926,9.926,0,0,0,.784,1.948,10.021,10.021,0,0,1-.875-1.92,9.208,9.208,0,0,1,.2-6.28l-.01.037A9.6,9.6,0,0,0,7.3,77.982a8.606,8.606,0,0,0-2.52-3.7l.057.042A9.33,9.33,0,0,1,1.6,71.314,9.521,9.521,0,0,1,.081,67.138a9.656,9.656,0,0,1,2.9-8.214l-.078.092a9.223,9.223,0,0,0,1.535-4.107,8.386,8.386,0,0,0-.769-4.264l.065.113a9.73,9.73,0,0,1-1.727-4.2,9.871,9.871,0,0,1-.092-2.287,10.311,10.311,0,0,1,.158-1.154c.075-.351.159-.7.27-1.087a9.814,9.814,0,0,1,6.126-6.383l-.141.068a8.983,8.983,0,0,0,3.041-3.052,8.262,8.262,0,0,0,1.039-4.146l.015.149a9.959,9.959,0,0,1,.117-4.574,9.856,9.856,0,0,1,10.389-7.335l-.161.005a9,9,0,0,0,4.024-1.5,8.227,8.227,0,0,0,2.667-3.34l-.046.14a9.867,9.867,0,0,1,1.967-4.111,9.688,9.688,0,0,1,3.594-2.767A9.918,9.918,0,0,1,39.418,4.3a9.609,9.609,0,0,1,4.353,1.218l-.128-.052a9.078,9.078,0,0,0,4.335.3A8.321,8.321,0,0,0,51.846,3.8l-.076.084A9.63,9.63,0,0,1,55.2,1.006a9.764,9.764,0,0,1,8.643.006A9.323,9.323,0,0,1,67.2,3.873l-.052-.054A9.381,9.381,0,0,0,71.11,5.945a8.64,8.64,0,0,0,4.5-.21l-.033.014a9.132,9.132,0,0,1,4.095-1.13,9.256,9.256,0,0,1,4.126.829" transform="translate(0 0)" fill="#3c5756"/>
              </g>
            </g>
          </g>
        </g>
      </g>
      <g id="Grupo_1074144" data-name="Grupo 1074144" transform="translate(23.322 23.326)">
        <rect id="Rectángulo_378411" data-name="Rectángulo 378411" width="73.516" height="73.515" transform="translate(0 0)" fill="none"/>
      </g>
    </g>
    <g id="Grupo_1075319" data-name="Grupo 1075319" transform="translate(333.661 9165.898)">
      <g id="Grupo_1075318" data-name="Grupo 1075318" clip-path="url(#clip-path-4)">
        <path id="Trazado_615766" data-name="Trazado 615766" d="M65.7,75.616a63.284,63.284,0,0,1-4.862-4.821c-1.586-1.938-3.172-2.366-5.654-1.7-5.984,1.6-12.072,2.82-18.117,4.2a4.056,4.056,0,0,0-.62.284c2.342,2.324,4.622,4.582,6.9,6.847.291.29.587.162.9.091,1.231-.274,2.465-.535,3.7-.8.646-.139,1.2,0,1.362.7.179.761-.3,1.135-.979,1.29-1.546.354-3.1.682-4.64,1.052a1.507,1.507,0,0,1-1.515-.6q-2.9-2.922-5.826-5.826c-.247-.247-.51-.478-.785-.734-.3.371-.173.742-.174,1.08-.012,3.217-.006,6.434-.008,9.651a6.471,6.471,0,0,1-.031.974.96.96,0,0,1-1.011.928.933.933,0,0,1-.986-.949c-.055-.828-.033-1.662-.034-2.493,0-3.033,0-6.066,0-9.115-.5-.011-.664.366-.9.6q-2.967,2.936-5.9,5.9a1.648,1.648,0,0,1-1.735.523c-4.176-.979-8.367-1.9-12.549-2.849-1.2-.274-1.236-.27-1.236.923,0,5.061.027,10.121-.025,15.182-.01.98.335,1.312,1.247,1.474,1.6.284,3.167.7,4.748,1.063.71.162,1.284.508,1.06,1.326-.212.773-.808.857-1.561.664-1.71-.44-3.439-.808-5.163-1.188a2.538,2.538,0,0,1-2.348-2.851c-.006-5.422-.019-10.844.016-16.266.005-.786-.2-1.117-1-1.276-2.262-.448-4.506-.988-6.753-1.514-1.369-.32-1.6-1.14-.61-2.138q4.165-4.189,8.351-8.357c.972-.969,2.338-.84,3.524-1.19,1.345-.4,2.738-.628,4.2-.952a7.912,7.912,0,0,0-1.731-1.887,2.857,2.857,0,0,1,1.688-5.164c.893-.125,1.788-.235,2.681-.362.728-.1,1.26.174,1.341.9.078.7-.447,1.025-1.07,1.133-.924.161-1.853.294-2.783.418-.4.054-.814.065-.945.553-.126.469.2.733.487,1.01q3.337,3.255,6.674,6.511a4.3,4.3,0,0,1,1.117,1.31c.175.416.549.436.888.515,2.913.682,5.818,1.4,8.746,2.012,1.462.306,2.824-.451,4.234-.7,1.63-.29,3.22-.825,4.856-1.062,1.178-.171,1.729-.979,2.453-1.7,2.195-2.2,4.44-4.349,6.666-6.518.155-.151.317-.3.469-.451.256-.263.5-.538.373-.95s-.49-.461-.863-.515c-3.249-.476-6.492-.991-9.745-1.434a3.275,3.275,0,0,1-2.731-1.99c-1.371-2.864-2.806-5.7-4.217-8.54-.2-.412-.334-.949-.908-.959s-.716.526-.92.939c-1.412,2.844-2.849,5.676-4.216,8.542a3.212,3.212,0,0,1-2.83,2.015c-.61.05-1.212.191-1.82.271a1,1,0,0,1-1.265-.863c-.107-.653.293-1,.879-1.167a.667.667,0,0,1,.215-.027c2,.106,3.075-.9,3.821-2.728.992-2.433,2.3-4.734,3.446-7.106a2.832,2.832,0,0,1,5.366.018c1.385,2.857,2.827,5.685,4.2,8.546a1.667,1.667,0,0,0,1.469,1.044c3.147.411,6.286.889,9.427,1.347a2.9,2.9,0,0,1,2.634,1.933,2.832,2.832,0,0,1-1,3.192c-.608.554-1.207,1.12-1.981,1.839,2.21.507,4.149.98,6.1,1.388A4.315,4.315,0,0,1,60.2,67.313c2.575,2.636,5.193,5.23,7.8,7.832.393.392.782.765.641,1.394-.149.668-.711.745-1.24.866-2.214.5-4.421,1.043-6.647,1.488-.778.156-1.036.437-1.029,1.253.041,5.241.021,10.483.021,15.724,0,2.41-.384,2.944-2.752,3.492-7.269,1.682-14.548,3.322-21.815,5.012a4.6,4.6,0,0,1-2.133-.1c-3.726-.844-7.447-1.714-11.174-2.559-.7-.16-1.3-.433-1.146-1.266.174-.926.9-.9,1.622-.735,3.269.742,6.551,1.436,9.8,2.265,1.077.275,1.2-.04,1.187-.982-.048-2.674-.017-5.35-.016-8.025,0-.289-.011-.579.011-.867.05-.651.319-1.128,1.056-1.111.678.015.941.472.981,1.074.034.5.016,1.011.016,1.518,0,2.566.023,5.133-.013,7.7-.011.75.217.939.938.772q10.22-2.367,20.45-4.69c.672-.152.966-.422.963-1.154q-.039-7.862,0-15.724c0-.736-.253-.873-.89-.72-1.086.26-2.187.465-3.266.748-.787.206-1.439.087-1.6-.763s.519-1.083,1.192-1.235q5.907-1.333,11.813-2.67c.166-.038.326-.1.735-.233m-62.718.073c7.4,1.665,14.491,3.26,21.583,4.86a.75.75,0,0,0,.8-.133c2.268-2.267,4.542-4.528,6.831-6.808-.172-.137-.246-.241-.339-.263q-10.48-2.4-20.962-4.794a.95.95,0,0,0-.981.257c-2.242,2.244-4.5,4.471-6.931,6.88m50.937-8.338c-3.587-1.175-4.428-.976-5.982,1.377l5.982-1.377m-33.048,1.4c-2.1-2.534-2.885-2.7-5.933-1.367l5.933,1.367" transform="translate(0 -35.108)" fill="#3c5756"/>
        <path id="Trazado_615767" data-name="Trazado 615767" d="M155.663,3.115c0,.647.015,1.294-.006,1.941-.021.666-.37,1.132-1.048,1.121a.984.984,0,0,1-.987-1.071c-.023-1.329-.028-2.66,0-3.989.012-.651.335-1.136,1.045-1.116s.976.529.995,1.173,0,1.294,0,1.941" transform="translate(-120.284 0)" fill="#3c5756"/>
        <path id="Trazado_615768" data-name="Trazado 615768" d="M45.746,62.032a1.2,1.2,0,0,1,.942.287c.995.831,1.992,1.66,2.982,2.5.5.426.7.948.252,1.505-.488.6-1.045.5-1.6.033-.961-.815-1.934-1.617-2.9-2.43a1.059,1.059,0,0,1-.418-1.235.9.9,0,0,1,.733-.657" transform="translate(-35.198 -48.573)" fill="#3c5756"/>
        <path id="Trazado_615769" data-name="Trazado 615769" d="M252.928,62.938a1.287,1.287,0,0,1-.447.9q-1.534,1.281-3.07,2.559a.932.932,0,0,1-1.432-.083.963.963,0,0,1,.172-1.508c1.011-.867,2.038-1.716,3.064-2.567a1.013,1.013,0,0,1,1.2-.139,1.062,1.062,0,0,1,.508.834" transform="translate(-193.961 -48.525)" fill="#3c5756"/>
        <path id="Trazado_615770" data-name="Trazado 615770" d="M102.871,40.777a.956.956,0,0,1,.811.408c.835.988,1.671,1.976,2.5,2.971.452.545.543,1.133-.054,1.606-.559.443-1.09.2-1.509-.288Q103.359,44,102.127,42.5a1.028,1.028,0,0,1-.155-1.2.908.908,0,0,1,.9-.518" transform="translate(-79.751 -31.93)" fill="#3c5756"/>
        <path id="Trazado_615771" data-name="Trazado 615771" d="M197.936,41.8a2.814,2.814,0,0,1-.323.679q-1.258,1.546-2.565,3.051a.956.956,0,0,1-1.435.184.989.989,0,0,1-.081-1.526c.845-1.027,1.706-2.04,2.561-3.059a1.02,1.02,0,0,1,1.163-.34c.426.134.593.491.68,1.01" transform="translate(-151.301 -31.899)" fill="#3c5756"/>
      </g>
    </g>
  </g>
</svg>
