<svg xmlns="http://www.w3.org/2000/svg" xmlns:xlink="http://www.w3.org/1999/xlink" width="122.752" height="122.752" viewBox="0 0 122.752 122.752">
  <defs>
    <clipPath id="clip-path">
      <rect id="Rect치ngulo_378442" data-name="Rect치ngulo 378442" width="122.752" height="122.752" fill="none"/>
    </clipPath>
    <clipPath id="clip-path-2">
      <rect id="Rect치ngulo_379147" data-name="Rect치ngulo 379147" width="49.825" height="65.366" fill="#fff"/>
    </clipPath>
  </defs>
  <g id="Grupo_1074050" data-name="Grupo 1074050" transform="translate(-886.113 -393.669)">
    <g id="Grupo_1074049" data-name="Grupo 1074049" transform="translate(886.113 393.669)">
      <g id="Grupo_1074048" data-name="Grupo 1074048" clip-path="url(#clip-path)">
        <path id="Trazado_611054" data-name="Trazado 611054" d="M122.752,61.376c0,7.637-11.233,12.986-13.987,19.627-2.855,6.884,1.2,18.584-3.99,23.772S87.887,105.91,81,108.765c-6.641,2.754-11.99,13.987-19.627,13.987S48.39,111.519,41.749,108.765c-6.884-2.855-18.584,1.2-23.773-3.99S16.842,87.887,13.987,81C11.233,74.362,0,69.013,0,61.376S11.233,48.39,13.987,41.749c2.855-6.884-1.2-18.584,3.99-23.772s16.888-1.135,23.772-3.99C48.39,11.233,53.739,0,61.376,0S74.362,11.233,81,13.987c6.884,2.855,18.584-1.2,23.773,3.99s1.134,16.888,3.989,23.772c2.754,6.641,13.987,11.99,13.987,19.627" fill="#137c78"/>
      </g>
    </g>
    <g id="Grupo_1075304" data-name="Grupo 1075304" transform="translate(922.577 422.362)">
      <g id="Grupo_1075303" data-name="Grupo 1075303" clip-path="url(#clip-path-2)">
        <path id="Trazado_615693" data-name="Trazado 615693" d="M.05,52.049V50.691q0-22.084,0-44.169c0-4.339,2.8-6.865,7.129-6.486.635.056.59.4.589.812q0,3.06,0,6.12V20.83c.463.091.685-.223.948-.4,1.987-1.306,3.979-2.606,5.928-3.967a1.118,1.118,0,0,1,1.514.024c2.205,1.52,4.451,2.982,6.687,4.469.371-.354.208-.748.209-1.09.012-6.256.026-12.513-.011-18.769,0-.843.206-1.073,1.062-1.069q12.343.051,24.686,0c.83,0,1.075.177,1.073,1.046q-.043,23.972,0,47.943c0,.87-.246,1.046-1.074,1.045-13.737-.027-27.474,0-41.211-.037-2.631-.007-5.152.212-7.527,2.019M10.5,47.19a3.409,3.409,0,0,0,.558-.06q5.595-1.864,11.188-3.732a1.87,1.87,0,0,0,.744-.505q9.836-9.836,19.685-19.659c.439-.437.456-.685,0-1.129q-3.53-3.462-6.992-6.994c-.491-.5-.743-.416-1.189.031q-9.748,9.786-19.52,19.546a2.305,2.305,0,0,0-.588.814c-1.3,3.85-2.57,7.709-3.889,11.687" transform="translate(-0.04 0.001)" fill="#fff"/>
        <path id="Trazado_615694" data-name="Trazado 615694" d="M27.124,264.131c7.206,0,14.411.013,21.616-.019.818,0,1.1.155,1.084,1.039-.058,3.194-.04,6.39-.009,9.584.007.66-.171.855-.845.854q-21.565-.029-43.131-.023a5.739,5.739,0,0,1-5.8-5.208A5.811,5.811,0,0,1,4.4,264.264a6.475,6.475,0,0,1,1.72-.13q10.5-.007,21,0" transform="translate(0 -210.223)" fill="#fff"/>
        <path id="Trazado_615695" data-name="Trazado 615695" d="M63.949,14.137c-1.2-.8-2.254-1.465-3.267-2.183a.868.868,0,0,0-1.17.007c-.882.631-1.805,1.2-2.7,1.816-.444.3-.583.174-.583-.324q.009-6.312,0-12.624c0-.527.245-.609.687-.607,2.138.013,4.276.018,6.414,0,.493-.005.633.168.632.645-.014,4.342-.008,8.684-.008,13.272" transform="translate(-44.753 -0.175)" fill="#fff"/>
        <path id="Trazado_615696" data-name="Trazado 615696" d="M80.967,140.9c.663-2.12,1.21-4.077,2.913-5.648,3.319-3.061,6.437-6.342,9.607-9.561.5-.5.8-.572,1.245.007.595.766,1.9,1.3,1.822,2.154-.066.737-1.179,1.391-1.849,2.063-2.519,2.528-5.149,4.954-7.533,7.6a10.849,10.849,0,0,1-6.2,3.383" transform="translate(-64.447 -99.721)" fill="#fff"/>
        <path id="Trazado_615697" data-name="Trazado 615697" d="M161.832,104.162a1.039,1.039,0,0,1-.238-.136q-1.118-1.107-2.227-2.223c-.233-.233-.111-.414.08-.6.778-.751,1.524-2.071,2.334-2.111.923-.045,1.592,1.383,2.423,2.115.27.238.212.446-.022.676-.7.687-1.39,1.386-2.087,2.077a2.558,2.558,0,0,1-.263.2" transform="translate(-126.749 -78.875)" fill="#fff"/>
      </g>
    </g>
  </g>
</svg>
