<svg xmlns="http://www.w3.org/2000/svg" xmlns:xlink="http://www.w3.org/1999/xlink" width="400" height="308" viewBox="0 0 400 308">
  <defs>
    <clipPath id="clip-path">
      <rect id="Rectángulo_378610" data-name="Rectángulo 378610" width="313.581" height="307.515" fill="none"/>
    </clipPath>
    <clipPath id="clip-path-3">
      <path id="Trazado_611153" data-name="Trazado 611153" d="M159.229,47.76,34.062,77.253a10.2,10.2,0,0,0-7.586,12.263L75.086,295.82a10.2,10.2,0,0,0,12.263,7.586l125.166-29.492c5.482-1.291,14.025-4.455,14.025-4.455l93.7-117.5L171.491,55.346a10.183,10.183,0,0,0-12.262-7.586" transform="translate(-26.201 -47.486)" fill="none"/>
    </clipPath>
    <clipPath id="clip-path-5">
      <rect id="Rectángulo_378607" data-name="Rectángulo 378607" width="77.78" height="78.373" fill="none"/>
    </clipPath>
  </defs>
  <g id="Grupo_1074190" data-name="Grupo 1074190" transform="translate(-180 -847)">
    <g id="Grupo_1074189" data-name="Grupo 1074189" transform="translate(223 847)">
      <g id="Grupo_1074188" data-name="Grupo 1074188" clip-path="url(#clip-path)">
        <g id="Grupo_1074180" data-name="Grupo 1074180">
          <g id="Grupo_1074179" data-name="Grupo 1074179" clip-path="url(#clip-path)">
            <path id="Trazado_611117" data-name="Trazado 611117" d="M11.321,94.134c-12.089,33.795,6.443,79.682,29.25,108.121C55.681,221.1,67.3,229.942,86.106,245.539c14.337,11.89,27.552,25.051,42.966,35.671,29.091,20.043,73.8,36.079,106.634,22.115,19-8.079,33.843-23.365,43.747-40.669s10.271-42.667,14.032-62.013c2.164-11.128,3.834-22.595,1.589-33.709-2.831-14.014-11.781-26.959-11.337-41.22.345-11.07,6.321-21.167,10.191-31.622,5.547-14.987,6.775-31.623,1.838-46.8S279.4,18.61,264.077,12.074c-18.708-7.979-40.567-5.039-60.272.4S159.5,23.687,139.03,25.187c-16,1.172-33.019-5.623-48.4-3.766C34.7,28.172,19.8,70.426,11.321,94.134Z" transform="translate(-1.908 -1.822)" fill="none" stroke="#6f71e4" stroke-miterlimit="10" stroke-width="2" stroke-dasharray="5.93 5.93"/>
            <path id="Trazado_611118" data-name="Trazado 611118" d="M357.991,358.046H248.9a7.071,7.071,0,0,1-7.071-7.071V256.3H365.062v94.677a7.071,7.071,0,0,1-7.071,7.071" transform="translate(-61.472 -65.15)" fill="#f6e5bd"/>
            <path id="Trazado_611119" data-name="Trazado 611119" d="M365.062,253H241.828v-2.614a7.071,7.071,0,0,1,7.071-7.071H357.991a7.071,7.071,0,0,1,7.071,7.071Z" transform="translate(-61.472 -61.849)" fill="#eaa950"/>
            <path id="Trazado_611120" data-name="Trazado 611120" d="M388.45,248.933a3.157,3.157,0,1,0,3.158-3.158,3.157,3.157,0,0,0-3.158,3.158" transform="translate(-98.742 -62.475)" fill="#fff"/>
            <path id="Trazado_611121" data-name="Trazado 611121" d="M376.959,248.933a3.157,3.157,0,1,0,3.158-3.158,3.158,3.158,0,0,0-3.158,3.158" transform="translate(-95.821 -62.475)" fill="#6f71e4"/>
            <path id="Trazado_611122" data-name="Trazado 611122" d="M365.467,248.933a3.157,3.157,0,1,0,3.158-3.158,3.158,3.158,0,0,0-3.158,3.158" transform="translate(-92.9 -62.475)" fill="#211955"/>
            <rect id="Rectángulo_378600" data-name="Rectángulo 378600" width="50.587" height="87.486" transform="translate(190.755 197.208)" fill="#eaa950"/>
            <path id="Trazado_611123" data-name="Trazado 611123" d="M332.925,264.423h46a1.631,1.631,0,0,1,0,3.263h-46a1.631,1.631,0,0,1,0-3.263" transform="translate(-84.213 -67.215)" fill="#eec07b"/>
            <path id="Trazado_611124" data-name="Trazado 611124" d="M332.925,274.713h46a1.631,1.631,0,1,1,0,3.262h-46a1.631,1.631,0,1,1,0-3.262" transform="translate(-84.213 -69.831)" fill="#eec07b"/>
            <path id="Trazado_611125" data-name="Trazado 611125" d="M332.925,285h46a1.631,1.631,0,0,1,0,3.263h-46a1.631,1.631,0,0,1,0-3.263" transform="translate(-84.213 -72.446)" fill="#eec07b"/>
            <path id="Trazado_611126" data-name="Trazado 611126" d="M332.925,295.292h46a1.631,1.631,0,0,1,0,3.263h-46a1.631,1.631,0,0,1,0-3.263" transform="translate(-84.213 -75.062)" fill="#eec07b"/>
            <path id="Trazado_611127" data-name="Trazado 611127" d="M332.925,305.582h46a1.631,1.631,0,0,1,0,3.263h-46a1.631,1.631,0,0,1,0-3.263" transform="translate(-84.213 -77.678)" fill="#eec07b"/>
            <path id="Trazado_611128" data-name="Trazado 611128" d="M332.925,315.872h46a1.631,1.631,0,0,1,0,3.263h-46a1.631,1.631,0,0,1,0-3.263" transform="translate(-84.213 -80.293)" fill="#eec07b"/>
            <path id="Trazado_611129" data-name="Trazado 611129" d="M332.925,326.162h46a1.631,1.631,0,0,1,0,3.263h-46a1.631,1.631,0,0,1,0-3.263" transform="translate(-84.213 -82.909)" fill="#eec07b"/>
            <path id="Trazado_611130" data-name="Trazado 611130" d="M332.925,336.452h46a1.631,1.631,0,0,1,0,3.263h-46a1.631,1.631,0,0,1,0-3.263" transform="translate(-84.213 -85.525)" fill="#eec07b"/>
            <path id="Trazado_611131" data-name="Trazado 611131" d="M332.925,346.742h46a1.631,1.631,0,0,1,0,3.263h-46a1.631,1.631,0,0,1,0-3.263" transform="translate(-84.213 -88.14)" fill="#eec07b"/>
            <path id="Trazado_611132" data-name="Trazado 611132" d="M345.937,367.405a7.469,7.469,0,1,0-7.469,7.469,7.469,7.469,0,0,0,7.469-7.469" transform="translate(-84.138 -91.494)" fill="#44487e"/>
            <path id="Trazado_611133" data-name="Trazado 611133" d="M369.095,367.405a7.469,7.469,0,1,0-7.469,7.469,7.469,7.469,0,0,0,7.469-7.469" transform="translate(-90.025 -91.494)" fill="#eaa950"/>
            <path id="Trazado_611134" data-name="Trazado 611134" d="M392.254,367.405a7.469,7.469,0,1,0-7.469,7.469,7.469,7.469,0,0,0,7.469-7.469" transform="translate(-95.912 -91.494)" fill="#bddddc"/>
            <path id="Trazado_611135" data-name="Trazado 611135" d="M150.032,91.894h87.374a5.663,5.663,0,0,0,5.663-5.664V10.4h-98.7V86.23a5.664,5.664,0,0,0,5.664,5.664" transform="translate(-36.698 -2.644)" fill="#f6e5bd"/>
            <path id="Trazado_611136" data-name="Trazado 611136" d="M144.368,7.757h98.7V5.663A5.663,5.663,0,0,0,237.406,0H150.032a5.664,5.664,0,0,0-5.664,5.663Z" transform="translate(-36.698)" fill="#d93780"/>
            <path id="Trazado_611137" data-name="Trazado 611137" d="M157.553,4.5a2.529,2.529,0,1,1-2.529-2.529A2.529,2.529,0,0,1,157.553,4.5" transform="translate(-38.764 -0.502)" fill="#fff"/>
            <path id="Trazado_611138" data-name="Trazado 611138" d="M166.757,4.5a2.529,2.529,0,1,1-2.529-2.529A2.529,2.529,0,0,1,166.757,4.5" transform="translate(-41.103 -0.502)" fill="#eaa950"/>
            <path id="Trazado_611139" data-name="Trazado 611139" d="M175.96,4.5a2.529,2.529,0,1,1-2.529-2.529A2.529,2.529,0,0,1,175.96,4.5" transform="translate(-43.443 -0.502)" fill="#211955"/>
            <rect id="Rectángulo_378601" data-name="Rectángulo 378601" width="7.691" height="67.386" transform="translate(190.357 14.974)" fill="#6f71e4"/>
            <rect id="Rectángulo_378602" data-name="Rectángulo 378602" width="7.691" height="60.483" transform="translate(177.539 21.877)" fill="#6f71e4"/>
            <rect id="Rectángulo_378603" data-name="Rectángulo 378603" width="7.691" height="53.41" transform="translate(164.721 28.95)" fill="#6f71e4"/>
            <rect id="Rectángulo_378604" data-name="Rectángulo 378604" width="7.691" height="62.278" transform="translate(151.903 20.082)" fill="#6f71e4"/>
            <rect id="Rectángulo_378605" data-name="Rectángulo 378605" width="29.831" height="67.386" transform="translate(116.745 14.974)" fill="#eec07b"/>
            <path id="Trazado_611140" data-name="Trazado 611140" d="M209.108,284.883,80.7,315.139a16.326,16.326,0,0,1-19.636-12.148L11.69,93.446A16.327,16.327,0,0,1,23.838,73.81L152.245,43.554A16.328,16.328,0,0,1,171.882,55.7l49.374,209.544a16.327,16.327,0,0,1-12.148,19.637" transform="translate(-2.86 -10.96)" fill="#211955"/>
            <path id="Trazado_611141" data-name="Trazado 611141" d="M213.152,278.347,84.745,308.6a16.327,16.327,0,0,1-19.636-12.148L15.734,86.911A16.328,16.328,0,0,1,27.882,67.274L156.289,37.018a16.328,16.328,0,0,1,19.637,12.148L225.3,258.71a16.327,16.327,0,0,1-12.148,19.637" transform="translate(-3.888 -9.298)" fill="#44487e"/>
            <path id="Trazado_611142" data-name="Trazado 611142" d="M212.516,273.914,87.349,303.407a10.2,10.2,0,0,1-12.263-7.586L26.476,89.516a10.2,10.2,0,0,1,7.586-12.263L159.228,47.761a10.2,10.2,0,0,1,12.263,7.586L220.1,261.651a10.2,10.2,0,0,1-7.586,12.263" transform="translate(-6.66 -12.071)" fill="#bddddc"/>
            <path id="Trazado_611143" data-name="Trazado 611143" d="M78.982,80.639l60.544-14.266a6.1,6.1,0,0,0,4.573-4.682l2.028-9.621L66.69,70.787l6.11,7.7a6.1,6.1,0,0,0,6.181,2.148" transform="translate(-16.952 -13.236)" fill="#44487e"/>
            <path id="Trazado_611144" data-name="Trazado 611144" d="M140.971,65.066l-57.7,13.6a.936.936,0,1,1-.43-1.823l57.7-13.594a.936.936,0,1,1,.43,1.821" transform="translate(-20.875 -16.07)" fill="#6f71e4"/>
            <path id="Trazado_611145" data-name="Trazado 611145" d="M121.83,64.343a2.541,2.541,0,1,1-3.056-1.891,2.54,2.54,0,0,1,3.056,1.891" transform="translate(-29.694 -15.858)" fill="#6f71e4"/>
          </g>
        </g>
        <g id="Grupo_1074182" data-name="Grupo 1074182" transform="translate(19.541 35.415)">
          <g id="Grupo_1074181" data-name="Grupo 1074181" clip-path="url(#clip-path-3)">
            <path id="Trazado_611146" data-name="Trazado 611146" d="M237.1,209.593A117.938,117.938,0,1,1,119.158,91.655,117.937,117.937,0,0,1,237.1,209.593" transform="translate(-19.851 -58.714)" fill="#211955"/>
            <path id="Trazado_611147" data-name="Trazado 611147" d="M235.876,202.486A117.938,117.938,0,1,1,117.938,84.548,117.937,117.937,0,0,1,235.876,202.486" transform="translate(-19.541 -56.907)" fill="#d93780"/>
            <path id="Trazado_611148" data-name="Trazado 611148" d="M225.535,208.249a95.123,95.123,0,1,1-95.123-95.123,95.123,95.123,0,0,1,95.123,95.123" transform="translate(-28.511 -64.171)" fill="#fff"/>
            <path id="Trazado_611149" data-name="Trazado 611149" d="M217.1,214.067a72.145,72.145,0,1,1-72.145-72.145A72.146,72.146,0,0,1,217.1,214.067" transform="translate(-38.049 -71.491)" fill="#d93780"/>
            <path id="Trazado_611150" data-name="Trazado 611150" d="M206.8,219.484a48.375,48.375,0,1,1-48.376-48.375A48.375,48.375,0,0,1,206.8,219.484" transform="translate(-47.515 -78.91)" fill="#fff"/>
            <path id="Trazado_611151" data-name="Trazado 611151" d="M199.773,224.227a28.553,28.553,0,1,1-28.552-28.552,28.553,28.553,0,0,1,28.552,28.552" transform="translate(-55.806 -85.155)" fill="#d93780"/>
            <path id="Trazado_611152" data-name="Trazado 611152" d="M194.329,227.042a20.294,20.294,0,1,1-20.294-20.294A20.294,20.294,0,0,1,194.329,227.042Z" transform="translate(-58.622 -87.97)" fill="none" stroke="#211955" stroke-miterlimit="10" stroke-width="4.341"/>
          </g>
        </g>
        <g id="Grupo_1074187" data-name="Grupo 1074187">
          <g id="Grupo_1074186" data-name="Grupo 1074186" clip-path="url(#clip-path)">
            <path id="Trazado_611154" data-name="Trazado 611154" d="M343.686,67.805q.812-.885,1.606-1.791a69.855,69.855,0,0,0-10.666-.583q6.426-1.236,12.923-2.056c1.738-2.085,3.424-4.209,5.081-6.309,3.774-4.783,7.725-9.654,11.726-14.535a72.154,72.154,0,0,1-8.748-.914,62.077,62.077,0,0,0,11.505-2.445l1.081-1.314a20.3,20.3,0,0,1-8.526-2.17,75.067,75.067,0,0,0,11.494-1.431c3.956-4.8,7.891-9.561,11.682-14.217a52.422,52.422,0,0,1-22.2,4.467A52.4,52.4,0,0,1,364.862,2.26C355.638,9.946,345.99,18.208,336.5,26.074a70.084,70.084,0,0,0-2.838,15.451,40.654,40.654,0,0,1-1.276-12.057c-.183.15-.363.295-.545.444-1.007,4.833-1.777,9.715-2.542,14.593q-1.4-5.24-2.4-10.576c-5.632,4.567-11.339,9.374-15.865,14.928A81.346,81.346,0,0,0,309.918,63.6q-1.4-4.942-2.3-10.007a36.934,36.934,0,0,0-3.94,8.288c-3.067,9.424-1.125,16.746-5.383,25.694,8.9-4.361,16.242-2.5,25.631-5.676a41.872,41.872,0,0,0,14.38-8.751,50.108,50.108,0,0,1-12.823-2.2c6.174.243,12.141-1.833,18.2-3.142" transform="translate(-75.825 -0.574)" fill="#eaa950"/>
            <path id="Trazado_611155" data-name="Trazado 611155" d="M364.874,14.973a226.764,226.764,0,0,0-3.98,28.1,126.584,126.584,0,0,0,23.61,1.344" transform="translate(-91.738 -3.806)" fill="#eaa950"/>
            <g id="Grupo_1074185" data-name="Grupo 1074185" transform="translate(229.239 1.686)" opacity="0.54" style="mix-blend-mode: multiply;isolation: isolate">
              <g id="Grupo_1074184" data-name="Grupo 1074184">
                <g id="Grupo_1074183" data-name="Grupo 1074183" clip-path="url(#clip-path-5)">
                  <path id="Trazado_611156" data-name="Trazado 611156" d="M327.791,85.471c.522.021,1.043.019,1.562.008-4.11-.444-8.177-1.01-12.36-1.625q-.6-12.219-.1-24.457c-1.242,1.287-2.432,2.613-3.549,3.983a81.335,81.335,0,0,0-1.121,14.741q-1.4-4.942-2.3-10.008a38.986,38.986,0,0,0-2.554,4.731,168.629,168.629,0,0,1,.013,21.861c7.188.258,14.665.308,22.012.452a44.491,44.491,0,0,0,11.217-7.487,50.08,50.08,0,0,1-12.823-2.2" transform="translate(-307.372 -16.784)" fill="#eaa950"/>
                  <path id="Trazado_611157" data-name="Trazado 611157" d="M332.139,68.075a165.417,165.417,0,0,0,25.958-.19q1.495-1.854,2.956-3.706c2.413-3.058,4.9-6.154,7.428-9.264a165.012,165.012,0,0,1-22-1.031q.678-11.845,1.987-23.642-1.772,1.479-3.538,2.944a70.126,70.126,0,0,0-2.838,15.452,40.663,40.663,0,0,1-1.276-12.058c-.183.15-.363.3-.545.444-1.007,4.833-1.777,9.715-2.542,14.593q-1.4-5.239-2.4-10.576-1.831,1.486-3.66,3.013a162.762,162.762,0,0,0,.473,24.022" transform="translate(-313.487 -9.373)" fill="#eaa950"/>
                  <path id="Trazado_611158" data-name="Trazado 611158" d="M390.418,32.245c3.395-4.115,6.763-8.2,10.022-12.205a52.42,52.42,0,0,1-22.2,4.467A52.411,52.411,0,0,1,382.456,2.26c-3.25,2.708-6.555,5.49-9.886,8.3a165.009,165.009,0,0,0-5.057,24.231,213.975,213.975,0,0,0,22.9-2.545" transform="translate(-322.66 -2.26)" fill="#eaa950"/>
                </g>
              </g>
            </g>
            <path id="Trazado_611159" data-name="Trazado 611159" d="M188.482,217.646l-14.513,14.68,13.4-29.378Z" transform="translate(-44.222 -51.588)" fill="#211955"/>
            <path id="Trazado_611160" data-name="Trazado 611160" d="M188.482,222.656l-14.513,14.68L203.192,223.6Z" transform="translate(-44.222 -56.598)" fill="#211955"/>
            <rect id="Rectángulo_378608" data-name="Rectángulo 378608" width="204.191" height="1.891" transform="matrix(0.703, -0.711, 0.711, 0.703, 143.74, 165.264)" fill="#211955"/>
            <path id="Trazado_611161" data-name="Trazado 611161" d="M190.092,216.859l-12.852,13L188.2,202.947Z" transform="translate(-45.053 -51.588)" fill="#6f71e4"/>
            <path id="Trazado_611162" data-name="Trazado 611162" d="M190.092,221.6l-12.852,13,26.784-11.268Z" transform="translate(-45.053 -56.33)" fill="#6f71e4"/>
            <path id="Trazado_611163" data-name="Trazado 611163" d="M384.533,158.46a37.71,37.71,0,1,1-37.711-37.71,37.711,37.711,0,0,1,37.711,37.71" transform="translate(-78.575 -30.694)" fill="#211955"/>
            <path id="Trazado_611164" data-name="Trazado 611164" d="M363.34,145.212a13.726,13.726,0,0,0-11.716,6.58,13.739,13.739,0,0,0-25.465,7.169c0,18.01,25.465,27.886,25.465,27.886s25.465-10.07,25.465-27.886a13.749,13.749,0,0,0-13.749-13.749" transform="translate(-82.908 -36.912)" fill="#d93780"/>
            <path id="Trazado_611165" data-name="Trazado 611165" d="M313.4,192.008a51.037,51.037,0,0,1-22.84,11.77,47.033,47.033,0,0,0,27.92-3.094" transform="translate(-73.858 -48.808)" fill="#211955"/>
            <path id="Trazado_611166" data-name="Trazado 611166" d="M49.636,345.2H33.005A30.867,30.867,0,0,1,2.138,314.328v-51.14a30.867,30.867,0,0,1,30.867-30.867H49.636A30.867,30.867,0,0,1,80.5,263.188v51.14A30.867,30.867,0,0,1,49.636,345.2" transform="translate(-0.543 -59.055)" fill="#a0cecc"/>
            <path id="Trazado_611167" data-name="Trazado 611167" d="M45.493,257.407v-5.852a8.093,8.093,0,1,1,16.187,0V257.9" transform="translate(-11.564 -61.887)" fill="none" stroke="#211955" stroke-miterlimit="10" stroke-width="3"/>
            <path id="Trazado_611168" data-name="Trazado 611168" d="M71.4,310.609H20.663l6.9-50.735H64.5Z" transform="translate(-5.252 -66.059)" fill="#d93780"/>
            <path id="Trazado_611169" data-name="Trazado 611169" d="M73.515,310.609H27.006l6.324-50.735H67.191Z" transform="translate(-6.865 -66.059)" fill="#e091ba"/>
            <path id="Trazado_611170" data-name="Trazado 611170" d="M70.89,337.4H20.343a1.225,1.225,0,1,1,0-2.451H70.89a1.225,1.225,0,1,1,0,2.451" transform="translate(-4.86 -85.144)" fill="#fff"/>
            <path id="Trazado_611171" data-name="Trazado 611171" d="M70.89,346.851H20.343a1.225,1.225,0,1,1,0-2.451H70.89a1.225,1.225,0,1,1,0,2.451" transform="translate(-4.86 -87.545)" fill="#fff"/>
            <path id="Trazado_611172" data-name="Trazado 611172" d="M70.89,356.3H20.343a1.225,1.225,0,1,1,0-2.451H70.89a1.225,1.225,0,1,1,0,2.451" transform="translate(-4.86 -89.947)" fill="#fff"/>
            <path id="Trazado_611173" data-name="Trazado 611173" d="M52.828,272.478l5.034,10.2,11.256,1.635-8.145,7.94L62.9,303.464l-10.068-5.293L42.76,303.464l1.923-11.211-8.146-7.94,11.256-1.635Z" transform="translate(-9.288 -69.263)" fill="#fff"/>
          </g>
        </g>
      </g>
    </g>
    <rect id="Rectángulo_378611" data-name="Rectángulo 378611" width="400" height="308" transform="translate(180 847)" fill="none"/>
  </g>
</svg>
