<svg xmlns="http://www.w3.org/2000/svg" xmlns:xlink="http://www.w3.org/1999/xlink" width="145" height="145" viewBox="0 0 145 145">
  <defs>
    <clipPath id="clip-path">
      <path id="Trazado_611025" data-name="Trazado 611025" d="M72.628,1.073a11,11,0,0,0-8.919,4.552A10.54,10.54,0,0,1,53.171,7.88a10.955,10.955,0,0,0-9.324-.6c-.156.058-.312.119-.466.184l-.12.05a11.051,11.051,0,0,0-6.3,7.8,10.581,10.581,0,0,1-8.714,6.368,10.966,10.966,0,0,0-9.2,3.715,11.091,11.091,0,0,0-2.6,9.664,10.617,10.617,0,0,1-5.353,9.395,11.053,11.053,0,0,0-6.932,7.179c-.011.033-.016.065-.027.094-.049.174-.1.347-.14.521A11.1,11.1,0,0,0,5.7,61.525,10.665,10.665,0,0,1,4.61,72.3,11.249,11.249,0,0,0,6.623,90.121a10.661,10.661,0,0,1,3.332,10.292,11.1,11.1,0,0,0,.377,9.374c.076.162.16.313.246.466.018.033.033.066.049.094a11,11,0,0,0,8.387,5.485,10.618,10.618,0,0,1,7.21,8.042,11.159,11.159,0,0,0,14.481,10.394,10.542,10.542,0,0,1,9.859,4.364A11.023,11.023,0,0,0,58.4,144.81c.031.008.062.008.094.016.175.03.349.063.531.087a10.986,10.986,0,0,0,9-2.671A10.514,10.514,0,0,1,78.8,142.2a11.147,11.147,0,0,0,17.436-3.876,10.544,10.544,0,0,1,9.838-4.4,10.96,10.96,0,0,0,9.241-1.359c.147-.091.29-.19.43-.29.031-.021.067-.041.1-.065a11.079,11.079,0,0,0,4.553-8.954,10.606,10.606,0,0,1,7.207-8.041,11.205,11.205,0,0,0,8.775-15.557,10.656,10.656,0,0,1,3.316-10.334,11.23,11.23,0,0,0,1.717-17.792,10.671,10.671,0,0,1-1.151-10.8,11.221,11.221,0,0,0-5.632-16.957,10.637,10.637,0,0,1-5.427-9.394,11.092,11.092,0,0,0-2.721-9.578,10.96,10.96,0,0,0-9.29-3.608,10.583,10.583,0,0,1-8.744-6.334,11.053,11.053,0,0,0-6.381-7.675.884.884,0,0,0-.107-.042c-.156-.066-.32-.128-.48-.19a10.975,10.975,0,0,0-9.364.732A10.528,10.528,0,0,1,81.563,5.477a11,11,0,0,0-8.778-4.405h-.157" transform="translate(-1.105 -1.072)" fill="#e36849"/>
    </clipPath>
    <clipPath id="clip-path-2">
      <path id="Trazado_611025-2" data-name="Trazado 611025" d="M72.628,1.073a11,11,0,0,0-8.919,4.552A10.54,10.54,0,0,1,53.171,7.88a10.955,10.955,0,0,0-9.324-.6c-.156.058-.312.119-.466.184l-.12.05a11.051,11.051,0,0,0-6.3,7.8,10.581,10.581,0,0,1-8.714,6.368,10.966,10.966,0,0,0-9.2,3.715,11.091,11.091,0,0,0-2.6,9.664,10.617,10.617,0,0,1-5.353,9.395,11.053,11.053,0,0,0-6.932,7.179c-.011.033-.016.065-.027.094-.049.174-.1.347-.14.521A11.1,11.1,0,0,0,5.7,61.525,10.665,10.665,0,0,1,4.61,72.3,11.249,11.249,0,0,0,6.623,90.121a10.661,10.661,0,0,1,3.332,10.292,11.1,11.1,0,0,0,.377,9.374c.076.162.16.313.246.466.018.033.033.066.049.094a11,11,0,0,0,8.387,5.485,10.618,10.618,0,0,1,7.21,8.042,11.159,11.159,0,0,0,14.481,10.394,10.542,10.542,0,0,1,9.859,4.364A11.023,11.023,0,0,0,58.4,144.81c.031.008.062.008.094.016.175.03.349.063.531.087a10.986,10.986,0,0,0,9-2.671A10.514,10.514,0,0,1,78.8,142.2a11.147,11.147,0,0,0,17.436-3.876,10.544,10.544,0,0,1,9.838-4.4,10.96,10.96,0,0,0,9.241-1.359c.147-.091.29-.19.43-.29.031-.021.067-.041.1-.065a11.079,11.079,0,0,0,4.553-8.954,10.606,10.606,0,0,1,7.207-8.041,11.205,11.205,0,0,0,8.775-15.557,10.656,10.656,0,0,1,3.316-10.334,11.23,11.23,0,0,0,1.717-17.792,10.671,10.671,0,0,1-1.151-10.8,11.221,11.221,0,0,0-5.632-16.957,10.637,10.637,0,0,1-5.427-9.394,11.092,11.092,0,0,0-2.721-9.578,10.96,10.96,0,0,0-9.29-3.608,10.583,10.583,0,0,1-8.744-6.334,11.053,11.053,0,0,0-6.381-7.675.884.884,0,0,0-.107-.042c-.156-.066-.32-.128-.48-.19a10.975,10.975,0,0,0-9.364.732A10.528,10.528,0,0,1,81.563,5.477a11,11,0,0,0-8.778-4.405h-.157" transform="translate(-1.105 -1.072)" fill="#fff"/>
    </clipPath>
    <clipPath id="clip-path-3">
      <rect id="Rectángulo_378432" data-name="Rectángulo 378432" width="145" height="145" fill="none"/>
    </clipPath>
    <clipPath id="clip-path-4">
      <rect id="Rectángulo_379156" data-name="Rectángulo 379156" width="70.671" height="83.119" fill="#fef0d7"/>
    </clipPath>
  </defs>
  <g id="Grupo_1099252" data-name="Grupo 1099252" transform="translate(-728 -484)">
    <g id="Grupo_1075205" data-name="Grupo 1075205" transform="translate(408 -9067)">
      <g id="Grupo_1074143" data-name="Grupo 1074143" transform="translate(320 9551)">
        <g id="Grupo_1074028" data-name="Grupo 1074028" transform="translate(0)">
          <g id="Grupo_1074021" data-name="Grupo 1074021" transform="translate(0 0)">
            <g id="Grupo_1074018" data-name="Grupo 1074018" transform="translate(0.458 0.445)">
              <g id="Grupo_1074017" data-name="Grupo 1074017" clip-path="url(#clip-path)">
                <path id="Trazado_611056" data-name="Trazado 611056" d="M0,0H159.982V159.745H0Z" transform="translate(-6.043 155.081) rotate(-90)" fill="#e36849"/>
              </g>
            </g>
            <g id="Grupo_1074020" data-name="Grupo 1074020">
              <g id="Grupo_1074019" data-name="Grupo 1074019" clip-path="url(#clip-path-3)">
                <path id="Trazado_611027" data-name="Trazado 611027" d="M20.249,131.032a10.9,10.9,0,0,0,3.616,4.062,11.024,11.024,0,0,0,5.073,1.81h.016l.019.007a10.9,10.9,0,0,1,4.815,3.022,12.1,12.1,0,0,1,2.625,5.093l.008.031v.037a10.709,10.709,0,0,0,4.6,8.467A10.524,10.524,0,0,0,50.432,155l.046-.016.059-.006a11.233,11.233,0,0,1,5.789.823,12.248,12.248,0,0,1,4.569,3.676l.041.051.031.067a10.436,10.436,0,0,0,3.067,3.8,10.284,10.284,0,0,0,4.475,1.982l-.052-.011.607.091c.207.021.434.059.623.068a10.424,10.424,0,0,0,1.183.021,10.176,10.176,0,0,0,2.36-.37,10.3,10.3,0,0,0,4.15-2.287l.053-.048.074-.043a11.357,11.357,0,0,1,5.736-1.625,12.385,12.385,0,0,1,5.746,1.54l.081.042.067.059a10.338,10.338,0,0,0,16.157-3.62l.034-.078.055-.077a11.557,11.557,0,0,1,4.634-3.831,12.516,12.516,0,0,1,5.909-.928l.1.006.095.028a10.15,10.15,0,0,0,4.707.26,10.352,10.352,0,0,0,8.475-10.1v-.1l.021-.095a11.669,11.669,0,0,1,2.717-5.4,12.575,12.575,0,0,1,5.041-3.242l.1-.035.091-.011a10.192,10.192,0,0,0,7.623-5.136,10.3,10.3,0,0,0,.518-9.236l-.033-.077-.018-.084a11.647,11.647,0,0,1,.277-6.021,12.54,12.54,0,0,1,3.278-5.015l.065-.063.074-.044a10.529,10.529,0,0,0,1.669-16.617l-.054-.05-.04-.056a11.479,11.479,0,0,1-2.132-5.553,12.44,12.44,0,0,1,.982-5.834l.028-.067.035-.049a10.714,10.714,0,0,0-5.28-16.206l-.046-.016-.036-.021a11.179,11.179,0,0,1-4.085-4.125,12.123,12.123,0,0,1-1.405-5.609V55.69l.006-.028a11.015,11.015,0,0,0-11.72-13.118,11.009,11.009,0,0,1,9.378,3.476,11.17,11.17,0,0,1,2.6,4.512,11.421,11.421,0,0,1,.3,5.236l.005-.064a11.464,11.464,0,0,0,1.449,5.282,10.389,10.389,0,0,0,3.9,3.749l-.08-.036a11.431,11.431,0,0,1,7.355,7.3,11.56,11.56,0,0,1,.539,5.341,11.717,11.717,0,0,1-1.925,5.029l.062-.116a11.205,11.205,0,0,0-.821,5.28,10.17,10.17,0,0,0,1.972,4.9l-.094-.106a11.766,11.766,0,0,1,3.837,9.877,11.592,11.592,0,0,1-1.719,5.194,11.84,11.84,0,0,1-3.88,3.855l.138-.107a11,11,0,0,0-2.864,4.4,10.042,10.042,0,0,0-.2,5.206l-.051-.161a11.966,11.966,0,0,1,1,5.409,11.961,11.961,0,0,1-10.383,11.3l.186-.045a10.859,10.859,0,0,0-4.357,2.812,9.9,9.9,0,0,0-2.28,4.61l.021-.191a12.039,12.039,0,0,1-1.275,5.4,11.841,11.841,0,0,1-3.581,4.216,12.075,12.075,0,0,1-5.066,2.187,11.844,11.844,0,0,1-5.5-.33l.189.035a10.853,10.853,0,0,0-5.129.765,9.9,9.9,0,0,0-3.98,3.275l.09-.155a11.89,11.89,0,0,1-3.363,4.378,11.869,11.869,0,0,1-15.308-.258l.147.1a10.86,10.86,0,0,0-5.034-1.39,10.066,10.066,0,0,0-5,1.39l.126-.09a11.725,11.725,0,0,1-7.451,2.92,11.4,11.4,0,0,1-1.371-.048c-.235-.017-.429-.054-.646-.079l-.655-.107.026,0-.078-.014a11.452,11.452,0,0,1-2.583-.843,11.648,11.648,0,0,1-5.706-5.742l.072.117a11.123,11.123,0,0,0-4.095-3.406,10.164,10.164,0,0,0-5.241-.813l.1-.022a11.473,11.473,0,0,1-5.317.369,11.2,11.2,0,0,1-4.887-2.08,11.328,11.328,0,0,1-3.45-4.022,11.473,11.473,0,0,1-1.265-5.127l.01.069a11.574,11.574,0,0,0-2.392-4.932,10.512,10.512,0,0,0-4.571-3.017l.036.009a11.03,11.03,0,0,1-8.654-6.206" transform="translate(-10.501 -21.928)" fill="#ffc278"/>
                <path id="Trazado_611028" data-name="Trazado 611028" d="M101.257,6.584a11.015,11.015,0,0,0-9.731.72l-.016.01-.024.008A10.945,10.945,0,0,1,85.8,7.77a12,12,0,0,1-5.157-2.548L80.61,5.2l-.031-.041a10.635,10.635,0,0,0-8.634-4.115,10.43,10.43,0,0,0-8.382,4.395l-.034.049-.058.052a11.351,11.351,0,0,1-5.224,2.774,12.384,12.384,0,0,1-5.911-.279l-.073-.021-.082-.044a10.324,10.324,0,0,0-9.264-.28,10.251,10.251,0,0,0-5.778,7.23L37.122,15l-.039.088A11.6,11.6,0,0,1,33.348,19.8a12.541,12.541,0,0,1-5.587,2.15l-.1.015-.1-.009A10.42,10.42,0,0,0,16.839,29.57a10.289,10.289,0,0,0-.152,4.726l.018.09v.09a11.7,11.7,0,0,1-1.52,5.842,12.515,12.515,0,0,1-4.246,4.228l-.085.054-.084.028a10.262,10.262,0,0,0-6.444,6.627c-.1.358-.213.779-.3,1.2a11.2,11.2,0,0,0-.166,1.171,10.34,10.34,0,0,0,.081,2.4,10.5,10.5,0,0,0,1.779,4.438l.049.07.028.066A11.571,11.571,0,0,1,6.722,66.5,12.436,12.436,0,0,1,4.552,72l-.046.068-.048.044A10.537,10.537,0,0,0,1.127,81,10.711,10.711,0,0,0,6.24,89.12l.042.025.027.026a11.1,11.1,0,0,1,3.084,4.876,12.11,12.11,0,0,1,.18,5.728l0,.028-.008.017a11.138,11.138,0,0,0-.514,7.395,11.994,11.994,0,0,0,.948,2.354,12.108,12.108,0,0,1-1.057-2.32,11.127,11.127,0,0,1,.246-7.588l-.013.044a11.6,11.6,0,0,0-.347-5.477,10.4,10.4,0,0,0-3.045-4.475l.069.051a11.274,11.274,0,0,1-3.909-3.634A11.5,11.5,0,0,1,.1,81.125,11.667,11.667,0,0,1,3.607,71.2l-.094.111a11.144,11.144,0,0,0,1.854-4.962A10.134,10.134,0,0,0,4.439,61.2l.078.137a11.757,11.757,0,0,1-2.086-5.07A11.927,11.927,0,0,1,2.319,53.5a12.46,12.46,0,0,1,.191-1.394c.09-.424.192-.84.326-1.313a11.858,11.858,0,0,1,7.4-7.713l-.17.082a10.854,10.854,0,0,0,3.675-3.687A9.984,9.984,0,0,0,15,34.464l.018.18a12.034,12.034,0,0,1,.141-5.527A11.909,11.909,0,0,1,27.71,20.254l-.194.006a10.874,10.874,0,0,0,4.863-1.818A9.941,9.941,0,0,0,35.6,14.406l-.055.169a11.923,11.923,0,0,1,2.376-4.968,11.706,11.706,0,0,1,4.343-3.343A11.984,11.984,0,0,1,47.63,5.2a11.61,11.61,0,0,1,5.26,1.471l-.155-.063a10.97,10.97,0,0,0,5.238.367A10.054,10.054,0,0,0,62.647,4.6l-.091.1A11.636,11.636,0,0,1,66.7,1.215a11.8,11.8,0,0,1,10.444.007A11.266,11.266,0,0,1,81.2,4.68l-.063-.065a11.335,11.335,0,0,0,4.783,2.569,10.44,10.44,0,0,0,5.439-.254l-.04.017a11.035,11.035,0,0,1,4.948-1.365,11.184,11.184,0,0,1,4.986,1" transform="translate(0 0)" fill="#ffc278"/>
              </g>
            </g>
          </g>
        </g>
      </g>
      <g id="Grupo_1074144" data-name="Grupo 1074144" transform="translate(347.117 9578.125)">
        <rect id="Rectángulo_378411" data-name="Rectángulo 378411" width="91.063" height="91.062" transform="translate(0)" fill="none"/>
      </g>
    </g>
    <g id="Grupo_1075323" data-name="Grupo 1075323" transform="translate(764.665 514.927)">
      <g id="Grupo_1075322" data-name="Grupo 1075322" clip-path="url(#clip-path-4)">
        <path id="Trazado_615776" data-name="Trazado 615776" d="M49.941,24.365a6.913,6.913,0,0,1,2.723.143,4.565,4.565,0,0,1,1.223,7.634c-1.04.906-2.2,1.675-3.294,2.518-.355.273-.751.493-.748,1.07A15.631,15.631,0,0,1,44.4,47.777c2.077.632,3.979,1.2,5.876,1.789,3.026.931,6.2,1.456,8.95,3.154a1.363,1.363,0,0,0,.935.112c6.668-.753,11.473,4.39,10.35,11.01a11.064,11.064,0,0,1-3.164,5.706,3.272,3.272,0,0,0-.906,2.482c.055,3.274-.01,6.55.04,9.824.014.914-.16,1.266-1.184,1.265q-32.032-.046-64.065,0C.264,83.118-.008,82.872,0,81.9c.048-5.35-.007-10.7.031-16.051A14.9,14.9,0,0,1,10.853,51.291c3.642-1.118,7.3-2.169,10.976-3.255.04-.515-.342-.684-.575-.92a15.152,15.152,0,0,1-4.6-10.768,1.838,1.838,0,0,0-.913-1.688c-.955-.642-1.864-1.353-2.771-2.064a4.738,4.738,0,0,1-1.6-5.555c.657-1.836,2.1-2.733,4.48-2.671.629.017.8-.141.793-.738-.024-1.983-.037-3.967.005-5.95a2.544,2.544,0,0,0-.855-1.668c-1.4-1.773-2.807-3.5-3.2-5.86A8.576,8.576,0,0,1,20.727.095c8.347-.113,16.7-.14,25.044,0a8.544,8.544,0,0,1,7.064,13.052,1.751,1.751,0,0,1-.3.461c-3.482,2.942-2.745,6.9-2.593,10.756m-16.78.829c-2.075,0-4.151-.043-6.224.011A11.665,11.665,0,0,0,20.2,27.737a1.768,1.768,0,0,0-.806,1.619c.048,1.8.067,3.6.006,5.395-.212,6.259,2.58,10.484,8.183,13.322,7.17,3.632,17.178-1.442,18.913-8.619.629-2.6.361-5.227.4-7.844.051-3.678-.241-4.069-3.638-5.486a13.444,13.444,0,0,0-1.7-.572c-2.767-.741-5.6-.249-8.395-.359M27,60.227l-.181-.359a69.33,69.33,0,0,1-7.04-4.816c-2.64-2.3-5.187-2.312-8.276-1.113-4.7,1.823-7.844,4.907-8.469,9.939-.648,5.214-.127,10.489-.245,15.736-.019.826.519.7,1.012.7,3.455,0,6.911-.024,10.366.019.834.011,1.115-.2,1.094-1.071-.058-2.533.047-5.07-.049-7.6-.047-1.236.682-1.047,1.4-1.03.678.016,1.482-.294,1.435.989-.09,2.485.014,4.976-.046,7.462-.022.926.173,1.339,1.193,1.252a18.746,18.746,0,0,1,3.175,0c1.01.086,1.209-.311,1.2-1.245-.046-4.653.1-9.31-.068-13.958-.093-2.588.077-4.7,3.5-4.909M45.2,80.318c-3.044-4.5-3.1-9.165-.127-12.792,3.613-4.412,7.311-8.756,11.008-13.172-2.858-1.218-5.546-2.192-8.89-.526-6.415,3.195-13.08,5.887-19.64,8.79-.66.292-1.268.486-1.254,1.51.07,5.069.04,10.14.022,15.209,0,.649.083,1,.879,1,5.944-.03,11.888-.016,18-.016m8.415-18.424c3.111,1.067,4.853,3.028,4.793,6.278-.01.542.21,1.574-.64,1.426-.788-.137-2.164.122-2.139-1.521.029-1.893-.988-2.933-3.326-3.65-1.424-.437-1.453,1.1-2.213,1.616-.074.049-.112.148-.181.207-.952.812-.693,1.179.4,1.611a5.937,5.937,0,0,1,3.791,6.5c-.14.831-.435.931-1.164.705-.931-.288-1.614-.433-1.6-1.814.022-2.037-1.807-2.657-3.389-3.36-.685-.3-1.057-.22-1.4.453a7.011,7.011,0,0,0-.373,6.007,6.143,6.143,0,0,0,10.442,1.585c3.11-3.583,6.078-7.291,9.165-10.894a9.083,9.083,0,0,0,2.165-4.83,6.3,6.3,0,0,0-3.1-5.777,5.571,5.571,0,0,0-6.133.22l.717.405A6.066,6.066,0,0,1,62.552,63.2c-.045.368-.049.809-.4.978-.645.311-2.32-.9-2.35-1.649A3.89,3.89,0,0,0,56.58,58.9a.649.649,0,0,0-.7.27c-.73.879-1.462,1.755-2.267,2.72M31.852,9.077c0-1.749.013-3.5-.011-5.246,0-.358.2-.807-.417-1a6.487,6.487,0,0,0-7.593,4.032,6.087,6.087,0,0,0,.992,5.6c1.243,1.786,2.469,3.441,5.033,2.816a2.559,2.559,0,0,1,.963,0c.9.137,1.074-.3,1.049-1.1-.053-1.7-.016-3.4-.016-5.107m2.778-.058c0,1.8.008,3.6,0,5.394,0,.511.045.819.712.883,2.587.246,4.96.12,6.151-2.741a5.454,5.454,0,0,1,.467-.684,5.56,5.56,0,0,0,.86-4.224c-.947-4.219-4.268-5.094-7.685-4.813-.679.056-.488.562-.492.93-.017,1.752-.008,3.5-.007,5.255m7.9,6.774a19.429,19.429,0,0,1,4.719,2.146,2.809,2.809,0,0,1,.759-2.963c.784-1.024,1.566-2.056,2.263-3.139a5.716,5.716,0,0,0-.276-6.723,6.2,6.2,0,0,0-6.461-2.047c3.247,4.436,2.392,8.606-1,12.726M22.823,2.9c-2.484-.251-4.621.083-6.231,2.041a6,6,0,0,0-.3,7.189c1.107,1.795,3,3.153,3.089,5.675a20.723,20.723,0,0,1,4.3-2.033C20.032,9.637,19.894,7.738,22.823,2.9m4.732,54.064a2.542,2.542,0,0,0,.134-.451q.012-1.926.012-3.852a2.474,2.474,0,0,0-3-2.478c-1.651.4-3.263.955-5.114,1.509l7.966,5.272m2.927,1.274a1.443,1.443,0,0,0,.4,0c1.308-.57,2.626-1.119,3.911-1.737.454-.218,1.186-.216,1.195-.958.013-1.1,0-2.208-.092-3.3-.027-.314-.483-.178-.723-.133a10.125,10.125,0,0,1-3.847,0c-.4-.077-.853-.169-.848.516.014,1.873,0,3.746,0,5.622M46.938,24.685c.262-3.571.616-3.268-2.511-5.064-2.811-1.615-2.92-1.5-2.874,1.686.007.513-.194,1.113.6,1.312a18.347,18.347,0,0,1,4.782,2.066M24.847,18.476c-4.307.857-5.991,2.771-5.233,5.979.827-.4,1.685-.735,2.462-1.205.908-.55,2.405-.26,2.776-1.362A10.422,10.422,0,0,0,24.89,18.6a.427.427,0,0,0-.043-.124M46.223,51.4c-1.721-.518-3.03-.94-4.355-1.3-.86-.236-3.008.786-3.064,1.462-.069.823-.016,1.656-.02,2.484,0,.4.1.628.565.42,2.17-.972,4.344-1.937,6.875-3.065M31.852,20.1c0-2.05,0-2.05-1.714-2.051-2.428,0-2.428,0-2.429,1.748,0,2.394,0,2.394,1.782,2.395,2.36,0,2.36,0,2.36-2.092m6.919.113c0-2.162,0-2.162-1.6-2.164-2.541,0-2.541,0-2.542,1.773,0,2.369,0,2.369,1.807,2.37,2.335,0,2.335,0,2.335-1.979m19.6,60.1c1.724,0,3.1,0,4.484,0,.43,0,.832.023.825-.611-.019-1.768-.006-3.537-.006-5.717l-5.3,6.326M49.852,31.851c.783-.577,1.31-1.01,1.881-1.373a1.95,1.95,0,0,0,.875-2.027,1.287,1.287,0,0,0-1.493-1.267c-.824.023-1.373.311-1.281,1.331.09,1,.019,2.022.019,3.336m-33.224.012c0-1.425-.025-2.562.011-3.7a.779.779,0,0,0-.661-.871c-.722-.22-1.423-.206-1.83.488a1.8,1.8,0,0,0,.252,2.39c.6.554,1.3,1,2.229,1.689" transform="translate(0 0)" fill="#fef0d7"/>
        <path id="Trazado_615777" data-name="Trazado 615777" d="M107.7,241.531c.373,1.348-.435,1.3-1.427,1.382-1.325.106-1.289-.558-1.352-1.538-.077-1.207.467-1.277,1.435-1.312,1.156-.042,1.649.288,1.343,1.468" transform="translate(-75.879 -173.617)" fill="#fef0d7"/>
        <path id="Trazado_615778" data-name="Trazado 615778" d="M106.412,267.811c-1.3.352-1.449-.277-1.495-1.36-.052-1.229.412-1.4,1.49-1.407,1.1-.012,1.409.314,1.36,1.387-.046,1-.059,1.81-1.355,1.38" transform="translate(-75.876 -191.686)" fill="#fef0d7"/>
      </g>
    </g>
  </g>
</svg>
