<svg xmlns="http://www.w3.org/2000/svg" xmlns:xlink="http://www.w3.org/1999/xlink" width="400" height="182.318" viewBox="0 0 400 182.318">
  <defs>
    <clipPath id="clip-path">
      <rect id="Image_Place_Holder" data-name="Image Place Holder" width="400" height="165.952" rx="10" transform="translate(180 1448.352)" fill="#fee7bd"/>
    </clipPath>
    <clipPath id="clip-path-2">
      <rect id="Rectángulo_401143" data-name="Rectángulo 401143" width="521.125" height="42.246" fill="none"/>
    </clipPath>
    <clipPath id="clip-path-3">
      <path id="Trazado_611025" data-name="Trazado 611025" d="M80.1,1.073A12.145,12.145,0,0,0,70.249,6.1a11.641,11.641,0,0,1-11.638,2.49,12.1,12.1,0,0,0-10.3-.663c-.172.064-.345.132-.515.2l-.132.056a12.207,12.207,0,0,0-6.961,8.618A11.686,11.686,0,0,1,31.08,23.84a12.111,12.111,0,0,0-10.16,4.1,12.251,12.251,0,0,0-2.875,10.675A11.728,11.728,0,0,1,12.132,49a12.209,12.209,0,0,0-7.656,7.93c-.012.037-.018.072-.029.1-.054.193-.108.383-.155.575A12.257,12.257,0,0,0,6.175,67.846a11.78,11.78,0,0,1-1.2,11.9A12.426,12.426,0,0,0,7.2,99.432,11.776,11.776,0,0,1,10.88,110.8a12.262,12.262,0,0,0,.417,10.354c.084.179.176.346.271.515.02.037.037.073.054.1a12.155,12.155,0,0,0,9.263,6.059,11.727,11.727,0,0,1,7.963,8.883A12.325,12.325,0,0,0,44.844,148.2a11.643,11.643,0,0,1,10.889,4.82,12.175,12.175,0,0,0,8.65,6.824c.035.009.068.009.1.017.194.033.385.07.586.1A12.133,12.133,0,0,0,75.017,157a11.611,11.611,0,0,1,11.9-.046,12.311,12.311,0,0,0,19.258-4.281,11.645,11.645,0,0,1,10.866-4.863,12.1,12.1,0,0,0,10.207-1.5c.162-.1.32-.21.475-.32.035-.023.073-.046.106-.072a12.238,12.238,0,0,0,5.029-9.891,11.714,11.714,0,0,1,7.96-8.881,12.377,12.377,0,0,0,9.691-17.184,11.771,11.771,0,0,1,3.662-11.414,12.4,12.4,0,0,0,1.9-19.653,11.787,11.787,0,0,1-1.272-11.926,12.395,12.395,0,0,0-6.221-18.73,11.749,11.749,0,0,1-5.994-10.376,12.252,12.252,0,0,0-3.006-10.58A12.105,12.105,0,0,0,129.313,23.3a11.689,11.689,0,0,1-9.658-7,12.209,12.209,0,0,0-7.047-8.477.978.978,0,0,0-.118-.046c-.172-.073-.353-.142-.53-.21a12.121,12.121,0,0,0-10.342.809A11.628,11.628,0,0,1,89.969,5.938a12.148,12.148,0,0,0-9.7-4.866H80.1" transform="translate(-1.105 -1.072)" fill="#b0dfde"/>
    </clipPath>
    <clipPath id="clip-path-4">
      <path id="Trazado_611025-2" data-name="Trazado 611025" d="M80.1,1.073A12.145,12.145,0,0,0,70.249,6.1a11.641,11.641,0,0,1-11.638,2.49,12.1,12.1,0,0,0-10.3-.663c-.172.064-.345.132-.515.2l-.132.056a12.207,12.207,0,0,0-6.961,8.618A11.686,11.686,0,0,1,31.08,23.84a12.111,12.111,0,0,0-10.16,4.1,12.251,12.251,0,0,0-2.875,10.675A11.728,11.728,0,0,1,12.132,49a12.209,12.209,0,0,0-7.656,7.93c-.012.037-.018.072-.029.1-.054.193-.108.383-.155.575A12.257,12.257,0,0,0,6.175,67.846a11.78,11.78,0,0,1-1.2,11.9A12.426,12.426,0,0,0,7.2,99.432,11.776,11.776,0,0,1,10.88,110.8a12.262,12.262,0,0,0,.417,10.354c.084.179.176.346.271.515.02.037.037.073.054.1a12.155,12.155,0,0,0,9.263,6.059,11.727,11.727,0,0,1,7.963,8.883A12.325,12.325,0,0,0,44.844,148.2a11.643,11.643,0,0,1,10.889,4.82,12.175,12.175,0,0,0,8.65,6.824c.035.009.068.009.1.017.194.033.385.07.586.1A12.133,12.133,0,0,0,75.017,157a11.611,11.611,0,0,1,11.9-.046,12.311,12.311,0,0,0,19.258-4.281,11.645,11.645,0,0,1,10.866-4.863,12.1,12.1,0,0,0,10.207-1.5c.162-.1.32-.21.475-.32.035-.023.073-.046.106-.072a12.238,12.238,0,0,0,5.029-9.891,11.714,11.714,0,0,1,7.96-8.881,12.377,12.377,0,0,0,9.691-17.184,11.771,11.771,0,0,1,3.662-11.414,12.4,12.4,0,0,0,1.9-19.653,11.787,11.787,0,0,1-1.272-11.926,12.395,12.395,0,0,0-6.221-18.73,11.749,11.749,0,0,1-5.994-10.376,12.252,12.252,0,0,0-3.006-10.58A12.105,12.105,0,0,0,129.313,23.3a11.689,11.689,0,0,1-9.658-7,12.209,12.209,0,0,0-7.047-8.477.978.978,0,0,0-.118-.046c-.172-.073-.353-.142-.53-.21a12.121,12.121,0,0,0-10.342.809A11.628,11.628,0,0,1,89.969,5.938a12.148,12.148,0,0,0-9.7-4.866H80.1" transform="translate(-1.105 -1.072)" fill="#fff"/>
    </clipPath>
    <clipPath id="clip-path-5">
      <rect id="Rectángulo_378432" data-name="Rectángulo 378432" width="160" height="160" fill="none"/>
    </clipPath>
    <clipPath id="clip-path-6">
      <rect id="Rectángulo_379152" data-name="Rectángulo 379152" width="81.052" height="86.861" fill="#3c5756"/>
    </clipPath>
  </defs>
  <g id="Grupo_1099327" data-name="Grupo 1099327" transform="translate(-1020 -1736.001)">
    <g id="Grupo_1099307" data-name="Grupo 1099307" transform="translate(840 -13.533)">
      <g id="Image_Place_Holder-2" data-name="Image Place Holder" transform="translate(180 1749.534)">
        <rect id="Image_Place_Holder-3" data-name="Image Place Holder" width="400" height="182.318" rx="10" fill="#fee7bd"/>
      </g>
    </g>
    <g id="Enmascarar_grupo_1098686" data-name="Enmascarar grupo 1098686" transform="translate(840 295.648)" clip-path="url(#clip-path)">
      <g id="Grupo_1099310" data-name="Grupo 1099310" transform="translate(-506.793 -4512.273)">
        <g id="Grupo_1099309" data-name="Grupo 1099309" transform="translate(585.668 5995)">
          <g id="Grupo_1099308" data-name="Grupo 1099308" transform="translate(0 0)" clip-path="url(#clip-path-2)">
            <path id="Trazado_873454" data-name="Trazado 873454" d="M66.172,4.95h-.344c-.3-.006-.6-.015-.884-.036-.558-.037-1.112-.1-1.655-.186A15.62,15.62,0,0,1,61.73,4.39q-.379-.1-.746-.225c-.243-.079-.48-.171-.711-.264a10.523,10.523,0,0,1-1.292-.626,7.146,7.146,0,0,1-1.052-.73,5.022,5.022,0,0,1-.771-.794A3.058,3.058,0,0,1,56.492,0V0H45.216c0,.038-.007.077-.005.115a6.159,6.159,0,0,0,.41,1.946,7.753,7.753,0,0,0,1.053,1.853,10.89,10.89,0,0,0,1.678,1.732,15.753,15.753,0,0,0,2.26,1.564,22.338,22.338,0,0,0,2.755,1.334q.742.3,1.529.566t1.614.488a34.061,34.061,0,0,0,3.423.741c1.189.191,2.4.328,3.626.408.618.042,1.245.064,1.878.079.078,0,.158,0,.237,0H506.22V4.95Z" transform="translate(14.905 0)" fill="#e36849"/>
            <path id="Trazado_873455" data-name="Trazado 873455" d="M69.866,12.8h-.558c-.093,0-.186,0-.278-.006-.742-.013-1.48-.041-2.209-.09-1.447-.094-2.879-.256-4.283-.482a40.2,40.2,0,0,1-4.044-.873q-.975-.266-1.9-.576t-1.8-.666a26.06,26.06,0,0,1-3.242-1.57A18.527,18.527,0,0,1,48.888,6.7a12.828,12.828,0,0,1-1.98-2.045,9.152,9.152,0,0,1-1.245-2.189A7.253,7.253,0,0,1,45.18.171c0-.057.008-.114.008-.171H33.922a10.388,10.388,0,0,0,.7,3.618,13.236,13.236,0,0,0,1.819,3.2A18.7,18.7,0,0,0,39.33,9.8a26.993,26.993,0,0,0,3.856,2.674,37.857,37.857,0,0,0,4.7,2.278q1.269.513,2.619.968t2.772.839a58.372,58.372,0,0,0,5.909,1.277c2.049.331,4.139.567,6.249.7,1.064.071,2.127.111,3.2.131.133,0,.266.006.4.007h440.9V12.8Z" transform="translate(11.183 0)" fill="#f79621"/>
            <path id="Trazado_873456" data-name="Trazado 873456" d="M73.563,20.654h-.89c-.148,0-.3-.006-.443-.008-1.182-.021-2.362-.067-3.533-.144-2.335-.152-4.646-.411-6.914-.778a64.512,64.512,0,0,1-6.53-1.411q-1.568-.427-3.058-.927t-2.889-1.069A41.65,41.65,0,0,1,44.119,13.8a29.855,29.855,0,0,1-4.255-2.953,20.69,20.69,0,0,1-3.19-3.3,14.537,14.537,0,0,1-2.01-3.538A11.456,11.456,0,0,1,33.884,0H22.614a14.66,14.66,0,0,0,1,5.173A18.756,18.756,0,0,0,26.2,9.722a26.592,26.592,0,0,0,4.1,4.234,38.345,38.345,0,0,0,5.46,3.786A53.314,53.314,0,0,0,42.4,20.964a75.316,75.316,0,0,0,16.035,4.374c2.912.472,5.881.806,8.88,1,1.5.1,3.014.159,4.521.186.189,0,.378.008.566.01H513.66l.009-5.881Z" transform="translate(7.455 0)" fill="#ffbe30"/>
            <path id="Trazado_873457" data-name="Trazado 873457" d="M77.26,28.507h-.608l-.608,0c-.2,0-.4-.007-.608-.01-1.621-.03-3.243-.093-4.857-.2-3.22-.209-6.409-.568-9.535-1.074a80.853,80.853,0,0,1-17.218-4.7,57.32,57.32,0,0,1-7.139-3.459A41.083,41.083,0,0,1,30.826,15a28.5,28.5,0,0,1-4.4-4.546A20.164,20.164,0,0,1,23.65,5.566,15.727,15.727,0,0,1,22.582,0H11.309A18.948,18.948,0,0,0,12.6,6.725a24.3,24.3,0,0,0,3.352,5.9,34.4,34.4,0,0,0,5.305,5.485,49.612,49.612,0,0,0,7.063,4.9,68.932,68.932,0,0,0,8.6,4.167,97.52,97.52,0,0,0,20.77,5.663c3.772.611,7.619,1.045,11.506,1.3q2.918.192,5.851.238c.243,0,.488.01.731.013l.731.006.731,0H517.4V28.507Z" transform="translate(3.728 0)" fill="#8ad0ce"/>
            <path id="Trazado_873458" data-name="Trazado 873458" d="M80.96,36.359l-.773,0-.774-.006c-.258,0-.516-.009-.771-.013-2.062-.038-4.123-.119-6.183-.254-4.109-.266-8.174-.725-12.163-1.371a103.071,103.071,0,0,1-21.952-5.986,72.656,72.656,0,0,1-9.088-4.4,52.5,52.5,0,0,1-7.465-5.175,36.406,36.406,0,0,1-5.607-5.8,25.654,25.654,0,0,1-3.544-6.236A20,20,0,0,1,11.281,0H.005c0,.266-.011.531,0,.8A23.462,23.462,0,0,0,1.586,8.274a29.885,29.885,0,0,0,4.121,7.247,42.341,42.341,0,0,0,6.517,6.736,60.876,60.876,0,0,0,8.666,6.009,84.451,84.451,0,0,0,10.55,5.111,119.74,119.74,0,0,0,25.5,6.953c4.633.751,9.357,1.284,14.131,1.593,2.393.159,4.787.252,7.18.3.3.006.6.012.9.015l.894.007.895,0H521.125V36.359Z" transform="translate(0 0)" fill="#137c78"/>
          </g>
        </g>
      </g>
    </g>
    <g id="Grupo_1074200" data-name="Grupo 1074200" transform="translate(828 -7398.367)">
      <g id="Grupo_1074149" data-name="Grupo 1074149" transform="translate(308 9145.366)">
        <g id="Grupo_1074143" data-name="Grupo 1074143" transform="translate(0 0)">
          <g id="Grupo_1074028" data-name="Grupo 1074028" transform="translate(0)">
            <g id="Grupo_1074021" data-name="Grupo 1074021" transform="translate(0)">
              <g id="Grupo_1074018" data-name="Grupo 1074018" transform="translate(0.597 0.213)">
                <g id="Grupo_1074017" data-name="Grupo 1074017" clip-path="url(#clip-path-3)">
                  <path id="Trazado_611056" data-name="Trazado 611056" d="M0,0H176.711V176.436H0Z" transform="translate(-6.674 171.297) rotate(-90)" fill="#b0dfde"/>
                </g>
              </g>
              <g id="Grupo_1074020" data-name="Grupo 1074020">
                <g id="Grupo_1074019" data-name="Grupo 1074019" clip-path="url(#clip-path-5)">
                  <path id="Trazado_611027" data-name="Trazado 611027" d="M20.249,140.423a12.055,12.055,0,0,0,4,4.492,12.192,12.192,0,0,0,5.611,2l.018,0,.021.008a12.056,12.056,0,0,1,5.326,3.343,13.387,13.387,0,0,1,2.9,5.633l.009.035v.041a11.844,11.844,0,0,0,5.092,9.365,11.64,11.64,0,0,0,10.4,1.588l.051-.018.065-.006a12.424,12.424,0,0,1,6.4.911,13.546,13.546,0,0,1,5.054,4.066l.045.057.035.074a11.543,11.543,0,0,0,3.392,4.208,11.374,11.374,0,0,0,4.95,2.193l-.058-.012.671.1c.229.023.48.065.69.075a11.536,11.536,0,0,0,1.308.023,11.255,11.255,0,0,0,2.61-.409,11.4,11.4,0,0,0,4.59-2.529l.059-.053.081-.048a12.561,12.561,0,0,1,6.345-1.8,13.7,13.7,0,0,1,6.355,1.7l.089.047.074.065a11.435,11.435,0,0,0,17.871-4l.038-.087.061-.085a12.783,12.783,0,0,1,5.126-4.237,13.844,13.844,0,0,1,6.535-1.027l.106.006.1.031a11.226,11.226,0,0,0,5.206.288,11.45,11.45,0,0,0,9.374-11.171v-.105l.023-.1a12.907,12.907,0,0,1,3.006-5.967,13.909,13.909,0,0,1,5.576-3.586l.105-.039.1-.012a11.273,11.273,0,0,0,8.431-5.681,11.394,11.394,0,0,0,.573-10.215l-.037-.085-.02-.093a12.882,12.882,0,0,1,.307-6.66,13.87,13.87,0,0,1,3.626-5.546l.072-.07.081-.049A11.645,11.645,0,0,0,164.554,98.7l-.06-.055-.044-.062a12.7,12.7,0,0,1-2.358-6.142,13.76,13.76,0,0,1,1.086-6.453l.031-.074.038-.054a11.85,11.85,0,0,0-5.84-17.924l-.051-.018-.039-.023a12.364,12.364,0,0,1-4.518-4.562,13.408,13.408,0,0,1-1.554-6.2v-.041l.007-.03a12.183,12.183,0,0,0-12.963-14.509A12.176,12.176,0,0,1,148.661,46.4a12.355,12.355,0,0,1,2.876,4.99,12.632,12.632,0,0,1,.326,5.791l.006-.071a12.68,12.68,0,0,0,1.6,5.842,11.49,11.49,0,0,0,4.314,4.146l-.089-.04a12.643,12.643,0,0,1,8.135,8.072,12.786,12.786,0,0,1,.6,5.907A12.959,12.959,0,0,1,164.3,86.6l.069-.128a12.394,12.394,0,0,0-.908,5.839,11.249,11.249,0,0,0,2.181,5.422l-.1-.117a13.014,13.014,0,0,1,4.244,10.924,12.821,12.821,0,0,1-1.9,5.745,13.1,13.1,0,0,1-4.291,4.264l.152-.119a12.161,12.161,0,0,0-3.168,4.866,11.107,11.107,0,0,0-.224,5.758l-.057-.178a13.235,13.235,0,0,1,1.1,5.983,13.229,13.229,0,0,1-11.484,12.493l.206-.05a12.011,12.011,0,0,0-4.819,3.111,10.949,10.949,0,0,0-2.522,5.1l.023-.211a13.316,13.316,0,0,1-1.41,5.972,13.1,13.1,0,0,1-3.96,4.664,13.355,13.355,0,0,1-5.6,2.419,13.1,13.1,0,0,1-6.085-.365l.209.039a12,12,0,0,0-5.673.846,10.949,10.949,0,0,0-4.4,3.622l.1-.172a13.151,13.151,0,0,1-3.719,4.842,13.127,13.127,0,0,1-16.931-.285l.162.112a12.012,12.012,0,0,0-5.568-1.537,11.133,11.133,0,0,0-5.531,1.537l.14-.1a12.968,12.968,0,0,1-8.241,3.23,12.608,12.608,0,0,1-1.516-.053c-.26-.019-.474-.059-.714-.088l-.725-.118.028,0-.086-.015a12.668,12.668,0,0,1-2.857-.932,12.884,12.884,0,0,1-6.311-6.351l.079.129a12.3,12.3,0,0,0-4.529-3.767,11.241,11.241,0,0,0-5.8-.9l.115-.025a12.69,12.69,0,0,1-5.881.408,12.383,12.383,0,0,1-5.4-2.3,12.529,12.529,0,0,1-3.816-4.448,12.69,12.69,0,0,1-1.4-5.671l.011.076a12.8,12.8,0,0,0-2.646-5.455,11.626,11.626,0,0,0-5.056-3.337l.04.01a12.2,12.2,0,0,1-9.572-6.864" transform="translate(-9.467 -20.125)" fill="#3c5756"/>
                  <path id="Trazado_611028" data-name="Trazado 611028" d="M111.995,7.282a12.183,12.183,0,0,0-10.762.8l-.018.011-.026.009a12.106,12.106,0,0,1-6.292.5,13.276,13.276,0,0,1-5.7-2.819l-.035-.028L89.123,5.7a11.762,11.762,0,0,0-9.55-4.552A11.536,11.536,0,0,0,70.3,6.01l-.038.055-.064.057a12.554,12.554,0,0,1-5.778,3.068,13.7,13.7,0,0,1-6.538-.309L57.8,8.859l-.091-.048A11.418,11.418,0,0,0,47.466,8.5a11.339,11.339,0,0,0-6.39,8l-.018.091-.044.1a12.829,12.829,0,0,1-4.13,5.217A13.871,13.871,0,0,1,30.7,24.281L30.6,24.3l-.108-.01a11.525,11.525,0,0,0-11.866,8.418,11.38,11.38,0,0,0-.168,5.227l.02.1v.1a12.945,12.945,0,0,1-1.681,6.462,13.843,13.843,0,0,1-4.7,4.676L12,49.33l-.093.031a11.35,11.35,0,0,0-7.127,7.33c-.114.4-.235.861-.335,1.326a12.383,12.383,0,0,0-.184,1.3,11.436,11.436,0,0,0,.089,2.657,11.618,11.618,0,0,0,1.968,4.909l.054.078.031.073a12.8,12.8,0,0,1,1.027,6.519,13.754,13.754,0,0,1-2.4,6.093l-.051.075-.053.049a11.654,11.654,0,0,0-3.685,9.83A11.847,11.847,0,0,0,6.9,98.571l.046.027.03.029a12.278,12.278,0,0,1,3.411,5.393,13.394,13.394,0,0,1,.2,6.336l-.005.03-.009.019A12.319,12.319,0,0,0,10,118.584a13.266,13.266,0,0,0,1.048,2.6,13.392,13.392,0,0,1-1.169-2.566,12.307,12.307,0,0,1,.272-8.393l-.014.049a12.833,12.833,0,0,0-.384-6.058,11.5,11.5,0,0,0-3.368-4.95l.076.056a12.469,12.469,0,0,1-4.323-4.019,12.724,12.724,0,0,1-2.035-5.58A12.9,12.9,0,0,1,3.989,78.75l-.1.123a12.326,12.326,0,0,0,2.051-5.488,11.208,11.208,0,0,0-1.027-5.7L5,67.837A13,13,0,0,1,2.688,62.23a13.192,13.192,0,0,1-.124-3.056,13.781,13.781,0,0,1,.211-1.542c.1-.469.212-.929.36-1.452a13.116,13.116,0,0,1,8.187-8.531l-.188.09A12.005,12.005,0,0,0,15.2,43.66a11.042,11.042,0,0,0,1.388-5.541l.02.2a13.31,13.31,0,0,1,.156-6.113,13.172,13.172,0,0,1,13.885-9.8l-.215.007A12.027,12.027,0,0,0,35.812,20.4a11,11,0,0,0,3.565-4.464l-.061.187a13.187,13.187,0,0,1,2.628-5.494,12.947,12.947,0,0,1,4.8-3.7A13.255,13.255,0,0,1,52.68,5.749,12.841,12.841,0,0,1,58.5,7.377l-.171-.07a12.133,12.133,0,0,0,5.794.405,11.12,11.12,0,0,0,5.17-2.627l-.1.112a12.869,12.869,0,0,1,4.582-3.853,13.049,13.049,0,0,1,11.552.008,12.46,12.46,0,0,1,4.493,3.825l-.07-.072a12.537,12.537,0,0,0,5.29,2.841,11.548,11.548,0,0,0,6.016-.281l-.044.019a12.2,12.2,0,0,1,5.473-1.51,12.37,12.37,0,0,1,5.515,1.108" transform="translate(0 -0.375)" fill="#3c5756"/>
                </g>
              </g>
            </g>
          </g>
        </g>
        <g id="Grupo_1074144" data-name="Grupo 1074144" transform="translate(32.408 32.024)">
          <rect id="Rectángulo_378411" data-name="Rectángulo 378411" width="95.795" height="95.794" transform="translate(0 0)" fill="none"/>
        </g>
      </g>
      <g id="Grupo_1075315" data-name="Grupo 1075315" transform="translate(347.667 9181.741)">
        <g id="Grupo_1075314" data-name="Grupo 1075314" clip-path="url(#clip-path-6)">
          <path id="Trazado_615743" data-name="Trazado 615743" d="M86.311,109.545a4.741,4.741,0,0,1,3.451,1.544q2.119,2.172,4.259,4.324c1.2,1.2,1.948,1.2,3.158-.031q6.589-6.7,13.159-13.411c2.564-2.613,5.007-2.61,7.587,0,.3.309.615.612.915.924,2.194,2.282,2.228,4.873.016,7.143-6.119,6.28-12.369,12.435-18.357,18.836-3.668,3.922-6.314,3.918-9.792.018-2.883-3.232-6.042-6.218-9.067-9.324-2.271-2.331-2.265-4.908,0-7.242,1.305-1.345,2.516-2.854,4.672-2.785m-.012,2.892c-1.212.078-1.738,1.116-2.469,1.834-1.345,1.321-1.321,2.03.013,3.4q5,5.122,10.007,10.231c1.4,1.424,2.056,1.421,3.472-.02q5.573-5.67,11.135-11.351,4.147-4.234,8.283-8.479c1.141-1.178,1.13-1.922.04-3.106-.261-.284-.539-.551-.809-.826-1.569-1.593-2.1-1.6-3.661-.008q-6.528,6.657-13.053,13.317c-2.382,2.422-4.949,2.428-7.322.037-1.392-1.4-2.759-2.828-4.147-4.234a1.928,1.928,0,0,0-1.488-.791" transform="translate(-56.8 -71.064)" fill="#3c5756"/>
          <path id="Trazado_615744" data-name="Trazado 615744" d="M150.919,29.773c-.046,9.549-1.507,18.422-5.141,26.869-.442,1.027-.715,2.394-2.358,1.885-1.046-.324-1.112-1.17-.348-2.956A64.65,64.65,0,0,0,147.852,25.9c-.115-1.969-.378-3.93-.544-5.9a1.877,1.877,0,0,0-1.8-1.874,80.546,80.546,0,0,1-33.876-14.66,1.882,1.882,0,0,0-2.591.08,77.715,77.715,0,0,1-8.1,5.295c-.894.518-1.763.75-2.372-.283s-.018-1.7.886-2.219A92.337,92.337,0,0,0,107.687.988c1.878-1.358,3.6-1.318,5.588.134a79.358,79.358,0,0,0,22.089,11.443,81.961,81.961,0,0,0,10.755,2.742,4.4,4.4,0,0,1,4.042,4.207,76.155,76.155,0,0,1,.758,10.259" transform="translate(-69.867 0)" fill="#3c5756"/>
          <path id="Trazado_615745" data-name="Trazado 615745" d="M39.482,10.1a1.484,1.484,0,0,1,1.5,1.294c.285,1.315.576,2.629.841,3.947a8.183,8.183,0,0,0,6.967,6.943c1.272.252,2.535.549,3.806.809.791.162,1.361.566,1.388,1.414.029.925-.562,1.363-1.415,1.538-1.223.251-2.437.551-3.664.782a8.225,8.225,0,0,0-7.116,7.132c-.232,1.227-.533,2.441-.781,3.665-.161.795-.567,1.363-1.412,1.388-.922.027-1.36-.559-1.531-1.417-.246-1.225-.551-2.437-.784-3.664a8.246,8.246,0,0,0-7.135-7.118c-1.227-.233-2.44-.535-3.665-.779-.8-.159-1.363-.562-1.389-1.408-.029-.922.553-1.36,1.415-1.531,1.272-.252,2.535-.553,3.806-.809a8.194,8.194,0,0,0,6.946-6.967c.253-1.272.557-2.534.81-3.806A1.556,1.556,0,0,1,39.482,10.1m.045,7.864a10.4,10.4,0,0,1-6.55,6.614,10.433,10.433,0,0,1,6.571,6.554,10.507,10.507,0,0,1,6.533-6.594,10.33,10.33,0,0,1-6.554-6.573" transform="translate(-17.827 -7.177)" fill="#3c5756"/>
          <path id="Trazado_615746" data-name="Trazado 615746" d="M209,204.51a1.511,1.511,0,0,1-1.3,1.553c-1.314.288-2.627.581-3.946.843a8.17,8.17,0,0,0-6.948,6.958c-.253,1.272-.554,2.535-.81,3.806-.16.794-.563,1.364-1.408,1.393-.921.03-1.363-.551-1.535-1.412-.254-1.272-.555-2.534-.81-3.806a8.19,8.19,0,0,0-6.961-6.95c-1.272-.254-2.535-.553-3.806-.808-.795-.159-1.364-.559-1.392-1.406-.031-.924.549-1.362,1.41-1.534,1.272-.254,2.534-.555,3.806-.81a8.2,8.2,0,0,0,6.948-6.964c.254-1.272.554-2.535.809-3.807.16-.8.562-1.363,1.407-1.392.924-.032,1.364.554,1.537,1.411.258,1.271.557,2.534.811,3.806a8.175,8.175,0,0,0,6.963,6.945c1.272.252,2.534.556,3.806.809A1.589,1.589,0,0,1,209,204.51m-14.476-6.457a10.568,10.568,0,0,1-6.549,6.6,10.462,10.462,0,0,1,6.593,6.506,10.392,10.392,0,0,1,6.508-6.562,10.4,10.4,0,0,1-6.552-6.547" transform="translate(-127.958 -135.128)" fill="#3c5756"/>
          <path id="Trazado_615747" data-name="Trazado 615747" d="M29.982,88.131a18.167,18.167,0,0,1,.334-4.742,1.429,1.429,0,0,1,1.731-1.167,1.367,1.367,0,0,1,1.108,1.738,47.158,47.158,0,0,0,.632,14.372A44.469,44.469,0,0,0,42.1,118.242a41.123,41.123,0,0,0,18.6,13.681,2.921,2.921,0,0,0,2.363-.055c1.49-.673,3.008-1.286,4.48-2a1.46,1.46,0,1,1,1.305,2.6A42.479,42.479,0,0,1,63,134.932a4.486,4.486,0,0,1-3.1-.243c-14.359-5.417-23.492-15.617-27.726-30.3A52.723,52.723,0,0,1,30.659,97.2a68.432,68.432,0,0,1-.677-9.069" transform="translate(-21.304 -58.397)" fill="#3c5756"/>
          <path id="Trazado_615748" data-name="Trazado 615748" d="M3.488,67.284A75.671,75.671,0,0,0,3.13,82.275a58.563,58.563,0,0,0,7.942,26.114,8.736,8.736,0,0,1,.627,1.134,1.271,1.271,0,0,1-.582,1.62,1.264,1.264,0,0,1-1.713-.122,5.336,5.336,0,0,1-.757-1.044A59.72,59.72,0,0,1,.583,85.965a76.507,76.507,0,0,1,0-18.873c.124-1,.531-1.737,1.585-1.666s1.441.837,1.317,1.857" transform="translate(0 -46.486)" fill="#3c5756"/>
          <path id="Trazado_615749" data-name="Trazado 615749" d="M85.349,265.893a9.542,9.542,0,0,1-3.015-.661,53.374,53.374,0,0,1-18.449-10.213,6.057,6.057,0,0,1-.74-.686,1.322,1.322,0,0,1-.044-1.839,1.357,1.357,0,0,1,1.825-.314,7.116,7.116,0,0,1,1.141.882,51.685,51.685,0,0,0,17.645,9.6,4.351,4.351,0,0,0,2.809-.018,52.533,52.533,0,0,0,13.474-6.5c.2-.136.4-.266.607-.39.843-.509,1.692-.6,2.278.308.551.858.122,1.557-.639,2.082a56.185,56.185,0,0,1-7.354,4.284,59.473,59.473,0,0,1-7.918,3.1,15.583,15.583,0,0,1-1.621.361" transform="translate(-44.587 -179.032)" fill="#3c5756"/>
          <path id="Trazado_615750" data-name="Trazado 615750" d="M234.827,85.733a59.082,59.082,0,0,1-3.039,18.995c-.359,1.076-.738,2.182-2.129,1.71-1.321-.449-.962-1.58-.636-2.568a58.959,58.959,0,0,0,2.947-20.456,3.477,3.477,0,0,0-.768-2.545,1.234,1.234,0,0,1,.124-1.916,1.391,1.391,0,0,1,1.966.006,4.325,4.325,0,0,1,1.525,3.308c.045,1.154.01,2.311.01,3.466" transform="translate(-162.516 -55.813)" fill="#3c5756"/>
          <path id="Trazado_615751" data-name="Trazado 615751" d="M133.578,35.083a4.821,4.821,0,0,1,2.765.821,83.381,83.381,0,0,0,11.807,6.306c.978.425,1.777.992,1.285,2.162-.508,1.207-1.5.945-2.445.525A91.216,91.216,0,0,1,135.173,38.6c-.57-.361-1.116-.773-1.861-.525A1.389,1.389,0,0,1,131.327,37c-.227-1.037.51-1.554,1.451-1.771.326-.075.658-.121.8-.147" transform="translate(-93.286 -24.928)" fill="#3c5756"/>
          <path id="Trazado_615752" data-name="Trazado 615752" d="M207.868,68.884a8.677,8.677,0,0,1,2.856.909,1.229,1.229,0,0,1,.671,1.58,1.318,1.318,0,0,1-1.549,1.009,13.9,13.9,0,0,1-2.722-.908,1.224,1.224,0,0,1-.663-1.577,1.3,1.3,0,0,1,1.407-1.014" transform="translate(-146.647 -48.945)" fill="#3c5756"/>
          <path id="Trazado_615753" data-name="Trazado 615753" d="M44.858,231.871c.987,0,2.867,2.16,2.741,3.143a1.389,1.389,0,0,1-2.153,1.013,5.7,5.7,0,0,1-1.857-2.157,1.356,1.356,0,0,1,1.27-2" transform="translate(-30.858 -164.756)" fill="#3c5756"/>
        </g>
      </g>
    </g>
  </g>
</svg>
