<svg xmlns="http://www.w3.org/2000/svg" xmlns:xlink="http://www.w3.org/1999/xlink" width="400" height="182.318" viewBox="0 0 400 182.318">
  <defs>
    <clipPath id="clip-path">
      <rect id="Image_Place_Holder" data-name="Image Place Holder" width="400" height="165.952" rx="10" transform="translate(180 1448.352)" fill="#fee7bd"/>
    </clipPath>
    <clipPath id="clip-path-2">
      <rect id="Rectángulo_401142" data-name="Rectángulo 401142" width="521.125" height="42.246" fill="none"/>
    </clipPath>
    <clipPath id="clip-path-3">
      <path id="Trazado_611025" data-name="Trazado 611025" d="M79.933,1.073A12.119,12.119,0,0,0,70.1,6.091,11.616,11.616,0,0,1,58.489,8.576a12.074,12.074,0,0,0-10.276-.661c-.172.064-.344.131-.514.2l-.132.056a12.181,12.181,0,0,0-6.946,8.6,11.662,11.662,0,0,1-9.6,7.018,12.086,12.086,0,0,0-10.138,4.1,12.225,12.225,0,0,0-2.869,10.652,11.7,11.7,0,0,1-5.9,10.355,12.183,12.183,0,0,0-7.64,7.913c-.012.037-.018.072-.029.1-.054.192-.107.382-.155.574A12.231,12.231,0,0,0,6.165,67.7a11.755,11.755,0,0,1-1.2,11.873A12.4,12.4,0,0,0,7.186,99.223a11.751,11.751,0,0,1,3.673,11.344,12.236,12.236,0,0,0,.416,10.332c.084.178.176.345.271.514.02.037.037.073.054.1a12.129,12.129,0,0,0,9.244,6.046,11.7,11.7,0,0,1,7.947,8.864,12.3,12.3,0,0,0,15.961,11.456,11.618,11.618,0,0,1,10.866,4.81,12.149,12.149,0,0,0,8.631,6.809c.035.009.068.009.1.017.193.033.385.069.585.1a12.107,12.107,0,0,0,9.923-2.945,11.587,11.587,0,0,1,11.872-.046,12.285,12.285,0,0,0,19.217-4.272,11.62,11.62,0,0,1,10.843-4.853,12.079,12.079,0,0,0,10.185-1.5c.162-.1.32-.209.474-.319.035-.023.073-.045.106-.072a12.212,12.212,0,0,0,5.018-9.87,11.689,11.689,0,0,1,7.943-8.862,12.351,12.351,0,0,0,9.671-17.147,11.746,11.746,0,0,1,3.654-11.39,12.378,12.378,0,0,0,1.893-19.611,11.762,11.762,0,0,1-1.269-11.9,12.368,12.368,0,0,0-6.207-18.69,11.724,11.724,0,0,1-5.981-10.354,12.226,12.226,0,0,0-3-10.557,12.08,12.08,0,0,0-10.239-3.977,11.665,11.665,0,0,1-9.637-6.981,12.183,12.183,0,0,0-7.032-8.459.976.976,0,0,0-.117-.046c-.172-.073-.352-.141-.529-.209a12.1,12.1,0,0,0-10.321.807A11.6,11.6,0,0,1,89.781,5.927a12.123,12.123,0,0,0-9.675-4.855h-.173" transform="translate(-1.105 -1.072)" fill="#b0dfde"/>
    </clipPath>
    <clipPath id="clip-path-4">
      <path id="Trazado_611025-2" data-name="Trazado 611025" d="M79.933,1.073A12.119,12.119,0,0,0,70.1,6.091,11.616,11.616,0,0,1,58.489,8.576a12.074,12.074,0,0,0-10.276-.661c-.172.064-.344.131-.514.2l-.132.056a12.181,12.181,0,0,0-6.946,8.6,11.662,11.662,0,0,1-9.6,7.018,12.086,12.086,0,0,0-10.138,4.1,12.225,12.225,0,0,0-2.869,10.652,11.7,11.7,0,0,1-5.9,10.355,12.183,12.183,0,0,0-7.64,7.913c-.012.037-.018.072-.029.1-.054.192-.107.382-.155.574A12.231,12.231,0,0,0,6.165,67.7a11.755,11.755,0,0,1-1.2,11.873A12.4,12.4,0,0,0,7.186,99.223a11.751,11.751,0,0,1,3.673,11.344,12.236,12.236,0,0,0,.416,10.332c.084.178.176.345.271.514.02.037.037.073.054.1a12.129,12.129,0,0,0,9.244,6.046,11.7,11.7,0,0,1,7.947,8.864,12.3,12.3,0,0,0,15.961,11.456,11.618,11.618,0,0,1,10.866,4.81,12.149,12.149,0,0,0,8.631,6.809c.035.009.068.009.1.017.193.033.385.069.585.1a12.107,12.107,0,0,0,9.923-2.945,11.587,11.587,0,0,1,11.872-.046,12.285,12.285,0,0,0,19.217-4.272,11.62,11.62,0,0,1,10.843-4.853,12.079,12.079,0,0,0,10.185-1.5c.162-.1.32-.209.474-.319.035-.023.073-.045.106-.072a12.212,12.212,0,0,0,5.018-9.87,11.689,11.689,0,0,1,7.943-8.862,12.351,12.351,0,0,0,9.671-17.147,11.746,11.746,0,0,1,3.654-11.39,12.378,12.378,0,0,0,1.893-19.611,11.762,11.762,0,0,1-1.269-11.9,12.368,12.368,0,0,0-6.207-18.69,11.724,11.724,0,0,1-5.981-10.354,12.226,12.226,0,0,0-3-10.557,12.08,12.08,0,0,0-10.239-3.977,11.665,11.665,0,0,1-9.637-6.981,12.183,12.183,0,0,0-7.032-8.459.976.976,0,0,0-.117-.046c-.172-.073-.352-.141-.529-.209a12.1,12.1,0,0,0-10.321.807A11.6,11.6,0,0,1,89.781,5.927a12.123,12.123,0,0,0-9.675-4.855h-.173" transform="translate(-1.105 -1.072)" fill="#fff"/>
    </clipPath>
    <clipPath id="clip-path-5">
      <rect id="Rectángulo_378432" data-name="Rectángulo 378432" width="160" height="160" fill="none"/>
    </clipPath>
    <clipPath id="clip-path-6">
      <rect id="Rectángulo_379150" data-name="Rectángulo 379150" width="80.699" height="80.684" fill="#3c5756"/>
    </clipPath>
  </defs>
  <g id="Grupo_1099325" data-name="Grupo 1099325" transform="translate(-180 -1736.001)">
    <g id="Grupo_1099303" data-name="Grupo 1099303" transform="translate(0 -13.533)">
      <g id="Image_Place_Holder-2" data-name="Image Place Holder" transform="translate(180 1749.534)">
        <rect id="Image_Place_Holder-3" data-name="Image Place Holder" width="400" height="182.318" rx="10" fill="#fee7bd"/>
      </g>
    </g>
    <g id="Enmascarar_grupo_1098685" data-name="Enmascarar grupo 1098685" transform="translate(0 295.648)" clip-path="url(#clip-path)">
      <g id="Grupo_1099306" data-name="Grupo 1099306" transform="translate(-506.793 -4512.273)">
        <g id="Grupo_1099305" data-name="Grupo 1099305" transform="translate(585.668 5995)">
          <g id="Grupo_1099304" data-name="Grupo 1099304" transform="translate(0 0)" clip-path="url(#clip-path-2)">
            <path id="Trazado_873449" data-name="Trazado 873449" d="M66.172,4.95h-.344c-.3-.006-.6-.015-.884-.036-.558-.037-1.112-.1-1.655-.186A15.62,15.62,0,0,1,61.73,4.39q-.379-.1-.746-.225c-.243-.079-.48-.171-.711-.264a10.523,10.523,0,0,1-1.292-.626,7.146,7.146,0,0,1-1.052-.73,5.022,5.022,0,0,1-.771-.794A3.058,3.058,0,0,1,56.492,0V0H45.216c0,.038-.007.077-.005.115a6.159,6.159,0,0,0,.41,1.946,7.753,7.753,0,0,0,1.053,1.853,10.89,10.89,0,0,0,1.678,1.732,15.753,15.753,0,0,0,2.26,1.564,22.338,22.338,0,0,0,2.755,1.334q.742.3,1.529.566t1.614.488a34.061,34.061,0,0,0,3.423.741c1.189.191,2.4.328,3.626.408.618.042,1.245.064,1.878.079.078,0,.158,0,.237,0H506.22V4.95Z" transform="translate(14.905 0)" fill="#e36849"/>
            <path id="Trazado_873450" data-name="Trazado 873450" d="M69.866,12.8h-.558c-.093,0-.186,0-.278-.006-.742-.013-1.48-.041-2.209-.09-1.447-.094-2.879-.256-4.283-.482a40.2,40.2,0,0,1-4.044-.873q-.975-.266-1.9-.576t-1.8-.666a26.06,26.06,0,0,1-3.242-1.57A18.527,18.527,0,0,1,48.888,6.7a12.828,12.828,0,0,1-1.98-2.045,9.152,9.152,0,0,1-1.245-2.189A7.253,7.253,0,0,1,45.18.171c0-.057.008-.114.008-.171H33.922a10.388,10.388,0,0,0,.7,3.618,13.236,13.236,0,0,0,1.819,3.2A18.7,18.7,0,0,0,39.33,9.8a26.993,26.993,0,0,0,3.856,2.674,37.857,37.857,0,0,0,4.7,2.278q1.269.513,2.619.968t2.772.839a58.372,58.372,0,0,0,5.909,1.277c2.049.331,4.139.567,6.249.7,1.064.071,2.127.111,3.2.131.133,0,.266.006.4.007h440.9V12.8Z" transform="translate(11.183 0)" fill="#f79621"/>
            <path id="Trazado_873451" data-name="Trazado 873451" d="M73.563,20.654h-.89c-.148,0-.3-.006-.443-.008-1.182-.021-2.362-.067-3.533-.144-2.335-.152-4.646-.411-6.914-.778a64.512,64.512,0,0,1-6.53-1.411q-1.568-.427-3.058-.927t-2.889-1.069A41.65,41.65,0,0,1,44.119,13.8a29.855,29.855,0,0,1-4.255-2.953,20.69,20.69,0,0,1-3.19-3.3,14.537,14.537,0,0,1-2.01-3.538A11.456,11.456,0,0,1,33.884,0H22.614a14.66,14.66,0,0,0,1,5.173A18.756,18.756,0,0,0,26.2,9.722a26.592,26.592,0,0,0,4.1,4.234,38.345,38.345,0,0,0,5.46,3.786A53.314,53.314,0,0,0,42.4,20.964a75.316,75.316,0,0,0,16.035,4.374c2.912.472,5.881.806,8.88,1,1.5.1,3.014.159,4.521.186.189,0,.378.008.566.01H513.66l.009-5.881Z" transform="translate(7.455 0)" fill="#ffbe30"/>
            <path id="Trazado_873452" data-name="Trazado 873452" d="M77.26,28.507h-.608l-.608,0c-.2,0-.4-.007-.608-.01-1.621-.03-3.243-.093-4.857-.2-3.22-.209-6.409-.568-9.535-1.074a80.853,80.853,0,0,1-17.218-4.7,57.32,57.32,0,0,1-7.139-3.459A41.083,41.083,0,0,1,30.826,15a28.5,28.5,0,0,1-4.4-4.546A20.164,20.164,0,0,1,23.65,5.566,15.727,15.727,0,0,1,22.582,0H11.309A18.948,18.948,0,0,0,12.6,6.725a24.3,24.3,0,0,0,3.352,5.9,34.4,34.4,0,0,0,5.305,5.485,49.612,49.612,0,0,0,7.063,4.9,68.932,68.932,0,0,0,8.6,4.167,97.52,97.52,0,0,0,20.77,5.663c3.772.611,7.619,1.045,11.506,1.3q2.918.192,5.851.238c.243,0,.488.01.731.013l.731.006.731,0H517.4V28.507Z" transform="translate(3.728 0)" fill="#8ad0ce"/>
            <path id="Trazado_873453" data-name="Trazado 873453" d="M80.96,36.359l-.773,0-.774-.006c-.258,0-.516-.009-.771-.013-2.062-.038-4.123-.119-6.183-.254-4.109-.266-8.174-.725-12.163-1.371a103.071,103.071,0,0,1-21.952-5.986,72.656,72.656,0,0,1-9.088-4.4,52.5,52.5,0,0,1-7.465-5.175,36.406,36.406,0,0,1-5.607-5.8,25.654,25.654,0,0,1-3.544-6.236A20,20,0,0,1,11.281,0H.005c0,.266-.011.531,0,.8A23.462,23.462,0,0,0,1.586,8.274a29.885,29.885,0,0,0,4.121,7.247,42.341,42.341,0,0,0,6.517,6.736,60.876,60.876,0,0,0,8.666,6.009,84.451,84.451,0,0,0,10.55,5.111,119.74,119.74,0,0,0,25.5,6.953c4.633.751,9.357,1.284,14.131,1.593,2.393.159,4.787.252,7.18.3.3.006.6.012.9.015l.894.007.895,0H521.125V36.359Z" transform="translate(0 0)" fill="#137c78"/>
          </g>
        </g>
      </g>
    </g>
    <g id="Grupo_1074196" data-name="Grupo 1074196" transform="translate(-8 -7398)">
      <g id="Grupo_1074149" data-name="Grupo 1074149" transform="translate(308 9145)">
        <g id="Grupo_1074143" data-name="Grupo 1074143" transform="translate(0 0)">
          <g id="Grupo_1074028" data-name="Grupo 1074028" transform="translate(0)">
            <g id="Grupo_1074021" data-name="Grupo 1074021" transform="translate(0)">
              <g id="Grupo_1074018" data-name="Grupo 1074018" transform="translate(0.585 0.567)">
                <g id="Grupo_1074017" data-name="Grupo 1074017" clip-path="url(#clip-path-3)">
                  <path id="Trazado_611056" data-name="Trazado 611056" d="M0,0H176.335V176.062H0Z" transform="translate(-6.66 170.932) rotate(-90)" fill="#b0dfde"/>
                </g>
              </g>
              <g id="Grupo_1074020" data-name="Grupo 1074020">
                <g id="Grupo_1074019" data-name="Grupo 1074019" clip-path="url(#clip-path-5)">
                  <path id="Trazado_611027" data-name="Trazado 611027" d="M20.249,140.194a12.027,12.027,0,0,0,3.99,4.482,12.164,12.164,0,0,0,5.6,2l.018,0,.021.008a12.028,12.028,0,0,1,5.314,3.335,13.355,13.355,0,0,1,2.9,5.62l.009.035v.041a11.817,11.817,0,0,0,5.08,9.343,11.613,11.613,0,0,0,10.378,1.585l.051-.018.065-.006a12.4,12.4,0,0,1,6.388.908,13.514,13.514,0,0,1,5.042,4.056l.045.057.035.074a11.515,11.515,0,0,0,3.384,4.2A11.347,11.347,0,0,0,73.5,178.1l-.058-.012.67.1c.228.023.479.065.688.075a11.5,11.5,0,0,0,1.305.023,11.228,11.228,0,0,0,2.6-.408,11.368,11.368,0,0,0,4.579-2.523l.058-.053.081-.048a12.532,12.532,0,0,1,6.33-1.793,13.667,13.667,0,0,1,6.34,1.7l.089.046.074.065a11.408,11.408,0,0,0,17.829-3.995l.038-.086.061-.085a12.753,12.753,0,0,1,5.114-4.227,13.812,13.812,0,0,1,6.52-1.024l.106.006.1.031a11.2,11.2,0,0,0,5.194.287,11.423,11.423,0,0,0,9.352-11.144v-.105l.023-.1a12.877,12.877,0,0,1,3-5.953,13.876,13.876,0,0,1,5.563-3.578l.105-.038.1-.012a11.247,11.247,0,0,0,8.411-5.668,11.368,11.368,0,0,0,.572-10.191l-.037-.085-.02-.093a12.852,12.852,0,0,1,.306-6.644,13.837,13.837,0,0,1,3.617-5.533l.072-.07.081-.049a11.618,11.618,0,0,0,1.842-18.336l-.059-.055-.044-.062a12.666,12.666,0,0,1-2.353-6.127,13.727,13.727,0,0,1,1.083-6.438l.031-.074.038-.054a11.822,11.822,0,0,0-5.826-17.882l-.051-.018L157,67.84a12.335,12.335,0,0,1-4.508-4.552,13.377,13.377,0,0,1-1.551-6.189v-.041l.007-.03a12.154,12.154,0,0,0-12.932-14.475,12.148,12.148,0,0,1,10.348,3.836,12.326,12.326,0,0,1,2.87,4.979,12.6,12.6,0,0,1,.326,5.778l.006-.071a12.65,12.65,0,0,0,1.6,5.828,11.464,11.464,0,0,0,4.3,4.137l-.089-.04a12.614,12.614,0,0,1,8.116,8.053,12.756,12.756,0,0,1,.594,5.893,12.929,12.929,0,0,1-2.124,5.549l.068-.128a12.365,12.365,0,0,0-.906,5.826A11.222,11.222,0,0,0,165.3,97.6l-.1-.117a12.984,12.984,0,0,1,4.234,10.9,12.791,12.791,0,0,1-1.9,5.732,13.065,13.065,0,0,1-4.281,4.254l.152-.118a12.133,12.133,0,0,0-3.16,4.855,11.081,11.081,0,0,0-.224,5.744l-.057-.177a13.2,13.2,0,0,1,1.1,5.969A13.2,13.2,0,0,1,149.607,147.1l.205-.05a11.983,11.983,0,0,0-4.807,3.1,10.924,10.924,0,0,0-2.516,5.087l.023-.21a13.284,13.284,0,0,1-1.407,5.958,13.066,13.066,0,0,1-3.951,4.653,13.324,13.324,0,0,1-5.59,2.413,13.069,13.069,0,0,1-6.071-.365l.209.038a11.976,11.976,0,0,0-5.66.844,10.923,10.923,0,0,0-4.392,3.614l.1-.171a13.12,13.12,0,0,1-3.71,4.83,13.1,13.1,0,0,1-16.892-.284l.162.111a11.984,11.984,0,0,0-5.555-1.534,11.107,11.107,0,0,0-5.518,1.534l.139-.1a12.938,12.938,0,0,1-8.222,3.222,12.583,12.583,0,0,1-1.512-.053c-.259-.019-.473-.059-.712-.088l-.723-.118.028,0-.086-.015a12.637,12.637,0,0,1-2.85-.93,12.854,12.854,0,0,1-6.3-6.336l.079.129a12.274,12.274,0,0,0-4.518-3.758,11.215,11.215,0,0,0-5.783-.9l.115-.025a12.66,12.66,0,0,1-5.867.407,12.354,12.354,0,0,1-5.392-2.295,12.5,12.5,0,0,1-3.807-4.438,12.66,12.66,0,0,1-1.4-5.658l.011.076a12.771,12.771,0,0,0-2.64-5.443,11.6,11.6,0,0,0-5.044-3.329l.04.01a12.172,12.172,0,0,1-9.549-6.848" transform="translate(-9.493 -19.803)" fill="#3c5756"/>
                  <path id="Trazado_611028" data-name="Trazado 611028" d="M111.732,7.265A12.154,12.154,0,0,0,101,8.06l-.018.011-.026.009a12.077,12.077,0,0,1-6.277.494,13.244,13.244,0,0,1-5.69-2.812l-.035-.028-.035-.045a11.735,11.735,0,0,0-9.528-4.541A11.509,11.509,0,0,0,70.138,6l-.038.054-.064.057a12.525,12.525,0,0,1-5.765,3.061,13.665,13.665,0,0,1-6.523-.308l-.081-.023-.09-.048a11.392,11.392,0,0,0-10.222-.309,11.312,11.312,0,0,0-6.375,7.978l-.018.091-.044.1A12.8,12.8,0,0,1,36.8,21.851a13.838,13.838,0,0,1-6.165,2.373l-.107.016-.107-.01a11.5,11.5,0,0,0-11.838,8.4,11.353,11.353,0,0,0-.168,5.215l.02.1v.1a12.915,12.915,0,0,1-1.677,6.446,13.81,13.81,0,0,1-4.685,4.665l-.093.059-.093.031a11.323,11.323,0,0,0-7.11,7.313c-.114.4-.235.859-.335,1.322a12.354,12.354,0,0,0-.183,1.292,11.409,11.409,0,0,0,.089,2.651,11.591,11.591,0,0,0,1.963,4.9l.054.077.031.073a12.768,12.768,0,0,1,1.024,6.5,13.722,13.722,0,0,1-2.395,6.079l-.05.075-.053.049a11.627,11.627,0,0,0-3.676,9.807A11.819,11.819,0,0,0,6.886,98.34l.046.027.03.029a12.249,12.249,0,0,1,3.4,5.381,13.363,13.363,0,0,1,.2,6.321l-.005.03-.009.019a12.291,12.291,0,0,0-.567,8.16,13.235,13.235,0,0,0,1.046,2.6,13.361,13.361,0,0,1-1.167-2.56,12.278,12.278,0,0,1,.271-8.373l-.014.049a12.8,12.8,0,0,0-.383-6.044,11.474,11.474,0,0,0-3.36-4.938l.076.056a12.44,12.44,0,0,1-4.313-4.01,12.694,12.694,0,0,1-2.03-5.567A12.874,12.874,0,0,1,3.98,78.566l-.1.123a12.3,12.3,0,0,0,2.046-5.476A11.182,11.182,0,0,0,4.9,67.527l.086.151a12.973,12.973,0,0,1-2.3-5.594,13.161,13.161,0,0,1-.123-3.049A13.749,13.749,0,0,1,2.769,57.5c.1-.468.212-.927.36-1.449A13.085,13.085,0,0,1,11.3,47.537l-.188.09a11.977,11.977,0,0,0,4.055-4.069,11.017,11.017,0,0,0,1.385-5.528l.02.2a13.279,13.279,0,0,1,.156-6.1,13.141,13.141,0,0,1,13.852-9.78l-.214.007a12,12,0,0,0,5.366-2.006A10.969,10.969,0,0,0,39.285,15.9l-.061.186A13.156,13.156,0,0,1,41.846,10.6a12.917,12.917,0,0,1,4.793-3.689,13.223,13.223,0,0,1,5.919-1.176,12.811,12.811,0,0,1,5.8,1.623L58.19,7.29a12.1,12.1,0,0,0,5.78.4,11.094,11.094,0,0,0,5.158-2.621l-.1.112A12.839,12.839,0,0,1,73.6,1.341a13.019,13.019,0,0,1,11.524.008,12.431,12.431,0,0,1,4.482,3.816l-.07-.072a12.508,12.508,0,0,0,5.278,2.834,11.521,11.521,0,0,0,6-.28l-.044.019a12.176,12.176,0,0,1,5.46-1.506,12.341,12.341,0,0,1,5.5,1.106" transform="translate(0 0)" fill="#3c5756"/>
                </g>
              </g>
            </g>
          </g>
        </g>
        <g id="Grupo_1074144" data-name="Grupo 1074144" transform="translate(33.213 33.219)">
          <rect id="Rectángulo_378411" data-name="Rectángulo 378411" width="93.801" height="93.801" transform="translate(0 0)" fill="none"/>
        </g>
      </g>
      <g id="Grupo_1075311" data-name="Grupo 1075311" transform="translate(347.651 9184.659)">
        <g id="Grupo_1075310" data-name="Grupo 1075310" clip-path="url(#clip-path-6)">
          <path id="Trazado_615726" data-name="Trazado 615726" d="M40.209,80.682q-15.057,0-30.114,0C3.962,80.68.015,76.733.01,70.608c0-.714-.03-1.43.016-2.141A2.336,2.336,0,0,1,1.66,66.152c1.032-.279,1.088-.865,1.087-1.735q-.031-24.381-.015-48.763c0-3.68,1.194-5.234,4.747-6.18.28-.074.624-.056.6-.48-.117-1.845,1.069-3.219,1.731-4.78a27.562,27.562,0,0,1,1.3-2.721,2.572,2.572,0,0,1,4.654-.031c1.147,2.439,2.766,4.682,3.145,7.48.132.976,1.192.325,1.813.464.592.133.8-.211.79-.793-.022-1.764-.016-3.528,0-5.292C21.525,1,22.491.03,24.8.029q18.9-.005,37.8,0c2.306,0,3.214.9,3.228,3.185.01,1.722.044,3.445-.015,5.165-.029.847.273,1.083,1.083,1.059,1.72-.051,3.446.046,5.165-.027a5.625,5.625,0,0,1,5.919,5.868c-.088,16.38-.035,32.76-.055,49.14,0,.872.046,1.488,1.091,1.729a2.032,2.032,0,0,1,1.545,1.826c.285,3.127.292,6.23-1.768,8.9a9.4,9.4,0,0,1-7.842,3.81q-15.372-.008-30.744,0M24.2,39.57c0,8.358.013,16.717-.019,25.075,0,.9.18,1.22,1.162,1.217q18.333-.053,36.667,0c1.057,0,1.254-.365,1.228-1.3-.024-.86-.053-1.371-1.187-1.349-3.863.077-7.728.034-11.592.028-3.175,0-4.8-1.632-4.8-4.824q-.009-5.922,0-11.845c0-3.323,1.541-4.883,4.836-4.89,3.78-.009,7.561-.043,11.34.023,1.095.019,1.437-.258,1.423-1.389-.013-1.072-.341-1.332-1.367-1.315-3.653.058-7.308.023-10.962.022-3.85,0-5.27-1.407-5.271-5.216,0-1.428-.055-2.859.019-4.283.05-.959-.2-1.294-1.232-1.277-3.821.065-7.647-.066-11.466.051-4.165.127-4.914-.875-4.749-4.773.1-2.427.931-3.336,3.373-3.338q6.678-.005,13.357,0c.5,0,.935.05,1.26-.543a4.246,4.246,0,0,1,4.1-2.19c3.4.026,6.8.008,10.206.008,2.707,0,2.661,0,2.716-2.689.021-1.025-.241-1.354-1.315-1.35q-18.208.057-36.416,0c-1.043,0-1.336.267-1.331,1.322.043,8.274.024,16.549.024,24.823M40.3,77.948q15.363,0,30.726.008a6.914,6.914,0,0,0,3.163-.66,7.482,7.482,0,0,0,3.741-8.229c-.142-.561-.51-.462-.863-.462-7.01-.006-14.02,0-21.029-.016-.641,0-.843.181-.883.845-.239,3.987-2.31,5.917-6.285,5.92q-8.437.006-16.874,0c-4.2,0-6.183-1.807-6.485-5.976-.043-.6-.216-.789-.809-.788q-10.578.023-21.155.011c-.376,0-.734-.045-.806.522-.7,5.522,2.588,8.881,7.085,8.848,10.158-.074,20.316-.023,30.474-.024M21.5,39.006c0-8.565-.02-17.131.026-25.7.006-1.06-.373-1.23-1.3-1.219-.91.011-1.595.037-1.393,1.234a6.921,6.921,0,0,1,.009,1.132q0,18.642,0,37.284c0,2.44-1.01,3.44-3.435,3.451-1.26.006-2.519,0-3.779,0-2.607-.006-3.542-.947-3.542-3.57q0-18.957,0-37.914c0-.336-.017-.673,0-1.007.03-.566-.245-.608-.707-.484a2.911,2.911,0,0,0-2.031,3.12q-.009,24.688-.028,49.376c0,1.019.377,1.15,1.245,1.143,4.534-.036,9.07-.062,13.6.015,1.167.02,1.36-.369,1.355-1.421-.04-8.481-.022-16.963-.023-25.444m37.565-2.68c3.023,0,6.047.01,9.07,0,1.29-.006,1.741-.447,1.746-1.741.015-4.241,0-8.482.009-12.723,0-1.172-.575-1.665-1.709-1.663-6,.008-12.009,0-18.014.009-1.317,0-1.739.427-1.744,1.739q-.02,6.3,0,12.6c0,1.374.427,1.779,1.825,1.784,2.939.011,5.879,0,8.818,0M43.7,2.76H39.164q-6.924,0-13.848.006c-.5,0-1.134-.208-1.121.717.032,2.182.008,4.364.013,6.546,0,.282-.057.681.334.7a6.19,6.19,0,0,0,2.231-.075c.511-.171.13-.9.15-1.375a4.013,4.013,0,1,1,8,.59c-.136.8.05.926.763.925q13.281-.022,26.563,0c.794,0,1-.293.983-1.035-.039-1.929-.074-3.863.012-5.79.046-1.042-.345-1.241-1.291-1.235-6.085.037-12.169.019-18.254.019M75.327,40.1V28.771c0-4.491.012-8.982-.007-13.473-.009-2.058-1.088-3.154-3.064-3.176-1.259-.014-2.518,0-3.777,0-2.646,0-2.646,0-2.646,2.589,0,2.651,0,2.651,2.617,2.758a4.043,4.043,0,0,1,4.128,4.161q.042,6.673,0,13.347a3.941,3.941,0,0,1-2.85,3.864,7.677,7.677,0,0,1-2.628.176c-.952-.081-1.291.2-1.307,1.232-.017,1.152.3,1.614,1.468,1.449a6.457,6.457,0,0,1,1.383.007,3.979,3.979,0,0,1,3.938,4.193q.032,6.61,0,13.221a4.019,4.019,0,0,1-3.909,4.116,8.707,8.707,0,0,1-1.76,0c-1.1-.146-1.109.5-1.084,1.291.023.726-.114,1.383,1.04,1.342,2.389-.086,4.786-.081,7.175,0,1.066.036,1.319-.3,1.313-1.335-.043-8.142-.024-16.285-.023-24.427M16.148,27.5c0-4.7.021-9.4-.014-14.106-.01-1.28.571-2.936-.273-3.738-.777-.738-2.411-.092-3.653-.234-1.2-.137-1.452.344-1.447,1.469.041,9.992.024,19.984.024,29.977,0,1.3.034,2.6-.012,3.9-.026.723.239.952.943.922a27.214,27.214,0,0,1,3.273.008c.962.075,1.189-.267,1.182-1.2-.043-5.667-.021-11.335-.021-17M40.336,68.6c-3.694,0-7.388.017-11.082-.015-.742-.007-1.029.16-1.015.97.032,1.917,1.007,3.027,2.906,3.032q9.193.026,18.386,0a2.692,2.692,0,0,0,2.9-2.908c.042-.921-.292-1.108-1.143-1.1-3.652.043-7.3.018-10.956.019M67.544,44.488h-16.7c1.768,1.852,3.522,3.763,5.357,5.592,3.136,3.125,2.693,3.228,5.888.045,1.856-1.849,3.647-3.762,5.459-5.637m-.036,15.953q-2.751-2.873-5.515-5.762c-.351-.368-.654-.166-1.006.007a3.228,3.228,0,0,1-3.135.18c-1.1-.666-1.665-.142-2.3.577-.278.312-.6.582-.891.885-1.31,1.372-2.614,2.749-3.908,4.112ZM48.479,58.575c2.075-2.028,3.953-3.865,5.835-5.7.223-.217.435-.416.123-.721-1.928-1.884-3.854-3.769-5.958-5.827ZM69.84,46.64l-.448-.323c-1.77,1.882-3.522,3.782-5.323,5.635-.488.5-.242.759.117,1.108,1.17,1.135,2.326,2.286,3.493,3.425.664.648,1.34,1.284,2.161,2.068ZM38.453,22.924c-2.221,0-4.444.034-6.664-.014-1.193-.025-.795.81-.831,1.387-.038.6-.2,1.248.855,1.237q6.475-.068,12.951,0c1.156.014.88-.711.891-1.327.011-.638.222-1.349-.915-1.308-2.093.076-4.191.022-6.286.022M13.535,52.432c.627,0,1.253-.008,1.879,0,.419.007.665-.064.743-.588.459-3.066.193-3.408-2.814-3.408a10.808,10.808,0,0,1-1.377-.01c-.923-.12-1.217.206-1.208,1.163.026,2.841-.018,2.842,2.776,2.84M11.545,6.775c1.152,0,2.064-.021,2.974.007.743.023.73-.277.455-.823-.5-1-.965-2.018-1.524-3.2l-1.9,4.014M32.258,9.363A1.276,1.276,0,0,0,30.977,8.14a1.209,1.209,0,0,0-1.356,1.311,1.2,1.2,0,0,0,1.253,1.293c.844.024,1.294-.475,1.383-1.382" transform="translate(0 0)" fill="#3c5756"/>
          <path id="Trazado_615727" data-name="Trazado 615727" d="M128.874,144.122c1.469,0,2.938.02,4.406-.007.944-.017,1.621.368,1.645,1.322.024.973-.684,1.374-1.6,1.376-2.938.008-5.876.013-8.813,0-.879,0-1.633-.3-1.63-1.332,0-1.091.751-1.375,1.712-1.363,1.427.018,2.854,0,4.281,0" transform="translate(-91.913 -107.795)" fill="#3c5756"/>
          <path id="Trazado_615728" data-name="Trazado 615728" d="M128.918,168.091c-1.469,0-2.938-.009-4.407,0-.92.008-1.6-.31-1.63-1.319-.026-1.031.7-1.367,1.586-1.373,2.938-.018,5.876-.007,8.813-.007.913,0,1.647.369,1.645,1.336,0,1.031-.74,1.39-1.727,1.368-1.426-.032-2.854-.008-4.281-.008" transform="translate(-91.912 -123.709)" fill="#3c5756"/>
          <path id="Trazado_615729" data-name="Trazado 615729" d="M128.718,125.465c-1.425,0-2.85,0-4.275,0-.913,0-1.6-.331-1.565-1.366.031-.938.662-1.286,1.53-1.286,2.976,0,5.952,0,8.928,0,.943,0,1.6.425,1.585,1.378-.014.893-.667,1.283-1.55,1.278-1.551-.008-3.1,0-4.652,0" transform="translate(-91.909 -91.859)" fill="#3c5756"/>
          <path id="Trazado_615730" data-name="Trazado 615730" d="M128.887,189.541c-1.467,0-2.934,0-4.4,0-.915,0-1.6-.326-1.6-1.342-.006-1.043.718-1.315,1.616-1.315,2.934,0,5.868.006,8.8,0,.927,0,1.635.359,1.623,1.331-.012.953-.7,1.342-1.636,1.332-1.467-.015-2.934,0-4.4,0" transform="translate(-91.914 -139.783)" fill="#3c5756"/>
          <path id="Trazado_615731" data-name="Trazado 615731" d="M67.517,285.439c-.71,0-1.422.037-2.129-.01a1.191,1.191,0,0,1-1.226-1.3,1.2,1.2,0,0,1,1.248-1.293c1.376-.047,2.756-.035,4.133-.006a1.307,1.307,0,1,1-.022,2.613c-.667.026-1.336.005-2,.005v-.005" transform="translate(-47.992 -211.528)" fill="#3c5756"/>
          <path id="Trazado_615732" data-name="Trazado 615732" d="M45.477,284.224c-.041.819-.439,1.291-1.25,1.3a1.181,1.181,0,0,1-1.353-1.3,1.3,1.3,0,0,1,2.6,0" transform="translate(-32.069 -211.629)" fill="#3c5756"/>
          <path id="Trazado_615733" data-name="Trazado 615733" d="M22.768,285.529a1.251,1.251,0,0,1-1.343-1.353,1.33,1.33,0,1,1,1.343,1.353" transform="translate(-16.025 -211.614)" fill="#3c5756"/>
          <path id="Trazado_615734" data-name="Trazado 615734" d="M206.821,90.926a3.981,3.981,0,0,1,4.006,3.964,4.07,4.07,0,0,1-4.065,4.074,4.029,4.029,0,0,1-3.987-4.008,3.94,3.94,0,0,1,4.046-4.03m-.019,5.355c.741-.135,1.311-.517,1.315-1.357a1.261,1.261,0,0,0-1.349-1.331,1.233,1.233,0,0,0-1.282,1.268,1.34,1.34,0,0,0,1.316,1.419" transform="translate(-151.671 -68.011)" fill="#3c5756"/>
          <path id="Trazado_615735" data-name="Trazado 615735" d="M243.493,125.456c-.667,0-1.335.019-2-.005a1.222,1.222,0,0,1-1.329-1.334,1.208,1.208,0,0,1,1.264-1.279c1.376-.037,2.753-.029,4.129,0a1.213,1.213,0,0,1,1.268,1.277,1.229,1.229,0,0,1-1.328,1.342c-.667.015-1.335,0-2,0" transform="translate(-179.635 -91.861)" fill="#3c5756"/>
          <path id="Trazado_615736" data-name="Trazado 615736" d="M158.153,23.96c-.627,0-1.254.024-1.879-.005a1.294,1.294,0,0,1-1.4-1.3,1.26,1.26,0,0,1,1.287-1.407,32.429,32.429,0,0,1,4.129.014,1.231,1.231,0,0,1,1.2,1.469,1.257,1.257,0,0,1-1.333,1.217c-.666.042-1.336.009-2,.01" transform="translate(-115.841 -15.851)" fill="#3c5756"/>
        </g>
      </g>
    </g>
  </g>
</svg>
