<svg xmlns="http://www.w3.org/2000/svg" xmlns:xlink="http://www.w3.org/1999/xlink" width="400" height="182.318" viewBox="0 0 400 182.318">
  <defs>
    <clipPath id="clip-path">
      <rect id="Image_Place_Holder" data-name="Image Place Holder" width="400" height="165.952" rx="10" transform="translate(180 1448.352)" fill="#fee7bd"/>
    </clipPath>
    <clipPath id="clip-path-2">
      <rect id="Rectángulo_401141" data-name="Rectángulo 401141" width="521.125" height="42.246" fill="none"/>
    </clipPath>
    <clipPath id="clip-path-3">
      <path id="Trazado_611025" data-name="Trazado 611025" d="M79.907,1.073A12.115,12.115,0,0,0,70.08,6.089,11.612,11.612,0,0,1,58.47,8.573,12.069,12.069,0,0,0,48.2,7.912c-.172.063-.344.131-.514.2l-.132.055a12.177,12.177,0,0,0-6.944,8.6,11.658,11.658,0,0,1-9.6,7.016,12.082,12.082,0,0,0-10.135,4.094A12.222,12.222,0,0,0,18,38.527a11.7,11.7,0,0,1-5.9,10.352,12.179,12.179,0,0,0-7.637,7.91c-.012.037-.018.072-.029.1-.054.192-.107.382-.155.574A12.227,12.227,0,0,0,6.163,67.683a11.752,11.752,0,0,1-1.2,11.869,12.4,12.4,0,0,0,2.218,19.64,11.747,11.747,0,0,1,3.672,11.341,12.232,12.232,0,0,0,.416,10.329c.084.178.176.345.271.514.02.037.037.073.054.1a12.125,12.125,0,0,0,9.241,6.044,11.7,11.7,0,0,1,7.944,8.861,12.295,12.295,0,0,0,15.955,11.453A11.614,11.614,0,0,1,55.6,152.645a12.145,12.145,0,0,0,8.628,6.807c.035.009.068.009.1.017.193.033.384.069.585.1a12.1,12.1,0,0,0,9.92-2.944,11.583,11.583,0,0,1,11.868-.046,12.281,12.281,0,0,0,19.211-4.271,11.616,11.616,0,0,1,10.84-4.852,12.075,12.075,0,0,0,10.182-1.5c.162-.1.32-.209.474-.319.035-.023.073-.045.106-.072a12.208,12.208,0,0,0,5.016-9.867,11.685,11.685,0,0,1,7.941-8.86A12.347,12.347,0,0,0,150.14,109.7a11.742,11.742,0,0,1,3.653-11.387,12.375,12.375,0,0,0,1.892-19.6,11.758,11.758,0,0,1-1.269-11.9,12.365,12.365,0,0,0-6.205-18.685,11.72,11.72,0,0,1-5.979-10.351,12.222,12.222,0,0,0-3-10.554A12.075,12.075,0,0,0,129,23.245a11.661,11.661,0,0,1-9.634-6.979,12.179,12.179,0,0,0-7.03-8.456.975.975,0,0,0-.117-.046c-.172-.073-.352-.141-.529-.209a12.091,12.091,0,0,0-10.317.807,11.6,11.6,0,0,1-11.62-2.436A12.118,12.118,0,0,0,80.08,1.072h-.173" transform="translate(-1.105 -1.072)" fill="#b0dfde"/>
    </clipPath>
    <clipPath id="clip-path-4">
      <path id="Trazado_611025-2" data-name="Trazado 611025" d="M79.907,1.073A12.115,12.115,0,0,0,70.08,6.089,11.612,11.612,0,0,1,58.47,8.573,12.069,12.069,0,0,0,48.2,7.912c-.172.063-.344.131-.514.2l-.132.055a12.177,12.177,0,0,0-6.944,8.6,11.658,11.658,0,0,1-9.6,7.016,12.082,12.082,0,0,0-10.135,4.094A12.222,12.222,0,0,0,18,38.527a11.7,11.7,0,0,1-5.9,10.352,12.179,12.179,0,0,0-7.637,7.91c-.012.037-.018.072-.029.1-.054.192-.107.382-.155.574A12.227,12.227,0,0,0,6.163,67.683a11.752,11.752,0,0,1-1.2,11.869,12.4,12.4,0,0,0,2.218,19.64,11.747,11.747,0,0,1,3.672,11.341,12.232,12.232,0,0,0,.416,10.329c.084.178.176.345.271.514.02.037.037.073.054.1a12.125,12.125,0,0,0,9.241,6.044,11.7,11.7,0,0,1,7.944,8.861,12.295,12.295,0,0,0,15.955,11.453A11.614,11.614,0,0,1,55.6,152.645a12.145,12.145,0,0,0,8.628,6.807c.035.009.068.009.1.017.193.033.384.069.585.1a12.1,12.1,0,0,0,9.92-2.944,11.583,11.583,0,0,1,11.868-.046,12.281,12.281,0,0,0,19.211-4.271,11.616,11.616,0,0,1,10.84-4.852,12.075,12.075,0,0,0,10.182-1.5c.162-.1.32-.209.474-.319.035-.023.073-.045.106-.072a12.208,12.208,0,0,0,5.016-9.867,11.685,11.685,0,0,1,7.941-8.86A12.347,12.347,0,0,0,150.14,109.7a11.742,11.742,0,0,1,3.653-11.387,12.375,12.375,0,0,0,1.892-19.6,11.758,11.758,0,0,1-1.269-11.9,12.365,12.365,0,0,0-6.205-18.685,11.72,11.72,0,0,1-5.979-10.351,12.222,12.222,0,0,0-3-10.554A12.075,12.075,0,0,0,129,23.245a11.661,11.661,0,0,1-9.634-6.979,12.179,12.179,0,0,0-7.03-8.456.975.975,0,0,0-.117-.046c-.172-.073-.352-.141-.529-.209a12.091,12.091,0,0,0-10.317.807,11.6,11.6,0,0,1-11.62-2.436A12.118,12.118,0,0,0,80.08,1.072h-.173" transform="translate(-1.105 -1.072)" fill="#fff"/>
    </clipPath>
    <clipPath id="clip-path-5">
      <rect id="Rectángulo_378432" data-name="Rectángulo 378432" width="160" height="160" fill="none"/>
    </clipPath>
    <clipPath id="clip-path-6">
      <rect id="Rectángulo_379151" data-name="Rectángulo 379151" width="91.578" height="82.353" fill="#3c5756"/>
    </clipPath>
  </defs>
  <g id="Grupo_1099326" data-name="Grupo 1099326" transform="translate(-600 -1735.735)">
    <g id="Grupo_1099299" data-name="Grupo 1099299" transform="translate(420 -13.799)">
      <g id="Image_Place_Holder-2" data-name="Image Place Holder" transform="translate(180 1749.534)">
        <rect id="Image_Place_Holder-3" data-name="Image Place Holder" width="400" height="182.318" rx="10" fill="#fee7bd"/>
      </g>
    </g>
    <g id="Enmascarar_grupo_1098684" data-name="Enmascarar grupo 1098684" transform="translate(420 295.383)" clip-path="url(#clip-path)">
      <g id="Grupo_1099302" data-name="Grupo 1099302" transform="translate(-506.793 -4512.273)">
        <g id="Grupo_1099301" data-name="Grupo 1099301" transform="translate(585.668 5995)">
          <g id="Grupo_1099300" data-name="Grupo 1099300" transform="translate(0 0)" clip-path="url(#clip-path-2)">
            <path id="Trazado_873444" data-name="Trazado 873444" d="M66.172,4.95h-.344c-.3-.006-.6-.015-.884-.036-.558-.037-1.112-.1-1.655-.186A15.62,15.62,0,0,1,61.73,4.39q-.379-.1-.746-.225c-.243-.079-.48-.171-.711-.264a10.523,10.523,0,0,1-1.292-.626,7.146,7.146,0,0,1-1.052-.73,5.022,5.022,0,0,1-.771-.794A3.058,3.058,0,0,1,56.492,0V0H45.216c0,.038-.007.077-.005.115a6.159,6.159,0,0,0,.41,1.946,7.753,7.753,0,0,0,1.053,1.853,10.89,10.89,0,0,0,1.678,1.732,15.753,15.753,0,0,0,2.26,1.564,22.338,22.338,0,0,0,2.755,1.334q.742.3,1.529.566t1.614.488a34.061,34.061,0,0,0,3.423.741c1.189.191,2.4.328,3.626.408.618.042,1.245.064,1.878.079.078,0,.158,0,.237,0H506.22V4.95Z" transform="translate(14.905 0)" fill="#e36849"/>
            <path id="Trazado_873445" data-name="Trazado 873445" d="M69.866,12.8h-.558c-.093,0-.186,0-.278-.006-.742-.013-1.48-.041-2.209-.09-1.447-.094-2.879-.256-4.283-.482a40.2,40.2,0,0,1-4.044-.873q-.975-.266-1.9-.576t-1.8-.666a26.06,26.06,0,0,1-3.242-1.57A18.527,18.527,0,0,1,48.888,6.7a12.828,12.828,0,0,1-1.98-2.045,9.152,9.152,0,0,1-1.245-2.189A7.253,7.253,0,0,1,45.18.171c0-.057.008-.114.008-.171H33.922a10.388,10.388,0,0,0,.7,3.618,13.236,13.236,0,0,0,1.819,3.2A18.7,18.7,0,0,0,39.33,9.8a26.993,26.993,0,0,0,3.856,2.674,37.857,37.857,0,0,0,4.7,2.278q1.269.513,2.619.968t2.772.839a58.372,58.372,0,0,0,5.909,1.277c2.049.331,4.139.567,6.249.7,1.064.071,2.127.111,3.2.131.133,0,.266.006.4.007h440.9V12.8Z" transform="translate(11.183 0)" fill="#f79621"/>
            <path id="Trazado_873446" data-name="Trazado 873446" d="M73.563,20.654h-.89c-.148,0-.3-.006-.443-.008-1.182-.021-2.362-.067-3.533-.144-2.335-.152-4.646-.411-6.914-.778a64.512,64.512,0,0,1-6.53-1.411q-1.568-.427-3.058-.927t-2.889-1.069A41.65,41.65,0,0,1,44.119,13.8a29.855,29.855,0,0,1-4.255-2.953,20.69,20.69,0,0,1-3.19-3.3,14.537,14.537,0,0,1-2.01-3.538A11.456,11.456,0,0,1,33.884,0H22.614a14.66,14.66,0,0,0,1,5.173A18.756,18.756,0,0,0,26.2,9.722a26.592,26.592,0,0,0,4.1,4.234,38.345,38.345,0,0,0,5.46,3.786A53.314,53.314,0,0,0,42.4,20.964a75.316,75.316,0,0,0,16.035,4.374c2.912.472,5.881.806,8.88,1,1.5.1,3.014.159,4.521.186.189,0,.378.008.566.01H513.66l.009-5.881Z" transform="translate(7.455 0)" fill="#ffbe30"/>
            <path id="Trazado_873447" data-name="Trazado 873447" d="M77.26,28.507h-.608l-.608,0c-.2,0-.4-.007-.608-.01-1.621-.03-3.243-.093-4.857-.2-3.22-.209-6.409-.568-9.535-1.074a80.853,80.853,0,0,1-17.218-4.7,57.32,57.32,0,0,1-7.139-3.459A41.083,41.083,0,0,1,30.826,15a28.5,28.5,0,0,1-4.4-4.546A20.164,20.164,0,0,1,23.65,5.566,15.727,15.727,0,0,1,22.582,0H11.309A18.948,18.948,0,0,0,12.6,6.725a24.3,24.3,0,0,0,3.352,5.9,34.4,34.4,0,0,0,5.305,5.485,49.612,49.612,0,0,0,7.063,4.9,68.932,68.932,0,0,0,8.6,4.167,97.52,97.52,0,0,0,20.77,5.663c3.772.611,7.619,1.045,11.506,1.3q2.918.192,5.851.238c.243,0,.488.01.731.013l.731.006.731,0H517.4V28.507Z" transform="translate(3.728 0)" fill="#8ad0ce"/>
            <path id="Trazado_873448" data-name="Trazado 873448" d="M80.96,36.359l-.773,0-.774-.006c-.258,0-.516-.009-.771-.013-2.062-.038-4.123-.119-6.183-.254-4.109-.266-8.174-.725-12.163-1.371a103.071,103.071,0,0,1-21.952-5.986,72.656,72.656,0,0,1-9.088-4.4,52.5,52.5,0,0,1-7.465-5.175,36.406,36.406,0,0,1-5.607-5.8,25.654,25.654,0,0,1-3.544-6.236A20,20,0,0,1,11.281,0H.005c0,.266-.011.531,0,.8A23.462,23.462,0,0,0,1.586,8.274a29.885,29.885,0,0,0,4.121,7.247,42.341,42.341,0,0,0,6.517,6.736,60.876,60.876,0,0,0,8.666,6.009,84.451,84.451,0,0,0,10.55,5.111,119.74,119.74,0,0,0,25.5,6.953c4.633.751,9.357,1.284,14.131,1.593,2.393.159,4.787.252,7.18.3.3.006.6.012.9.015l.894.007.895,0H521.125V36.359Z" transform="translate(0 0)" fill="#137c78"/>
          </g>
        </g>
      </g>
    </g>
    <g id="Grupo_1074204" data-name="Grupo 1074204" transform="translate(428 -7398)">
      <g id="Grupo_1074149" data-name="Grupo 1074149" transform="translate(308 9145)">
        <g id="Grupo_1074143" data-name="Grupo 1074143" transform="translate(0 0)">
          <g id="Grupo_1074028" data-name="Grupo 1074028" transform="translate(0)">
            <g id="Grupo_1074021" data-name="Grupo 1074021" transform="translate(0)">
              <g id="Grupo_1074018" data-name="Grupo 1074018" transform="translate(0.607 0.589)">
                <g id="Grupo_1074017" data-name="Grupo 1074017" clip-path="url(#clip-path-3)">
                  <path id="Trazado_611056" data-name="Trazado 611056" d="M0,0H176.279V176H0Z" transform="translate(-6.658 170.878) rotate(-90)" fill="#b0dfde"/>
                </g>
              </g>
              <g id="Grupo_1074020" data-name="Grupo 1074020">
                <g id="Grupo_1074019" data-name="Grupo 1074019" clip-path="url(#clip-path-5)">
                  <path id="Trazado_611027" data-name="Trazado 611027" d="M20.249,140.194a12.027,12.027,0,0,0,3.99,4.482,12.164,12.164,0,0,0,5.6,2l.018,0,.021.008a12.028,12.028,0,0,1,5.314,3.335,13.355,13.355,0,0,1,2.9,5.62l.009.035v.041a11.817,11.817,0,0,0,5.08,9.343,11.613,11.613,0,0,0,10.378,1.585l.051-.018.065-.006a12.4,12.4,0,0,1,6.388.908,13.515,13.515,0,0,1,5.042,4.056l.045.057.035.074a11.515,11.515,0,0,0,3.384,4.2A11.347,11.347,0,0,0,73.5,178.1l-.058-.012.67.1c.228.023.479.065.688.075a11.5,11.5,0,0,0,1.305.023,11.229,11.229,0,0,0,2.6-.408,11.368,11.368,0,0,0,4.579-2.523l.058-.053.081-.048a12.532,12.532,0,0,1,6.33-1.793,13.667,13.667,0,0,1,6.34,1.7l.089.046.074.065a11.408,11.408,0,0,0,17.829-3.995l.038-.086.061-.085a12.753,12.753,0,0,1,5.114-4.227,13.811,13.811,0,0,1,6.52-1.024l.106.006.1.031a11.2,11.2,0,0,0,5.194.287,11.423,11.423,0,0,0,9.352-11.144v-.105l.023-.1a12.876,12.876,0,0,1,3-5.953,13.876,13.876,0,0,1,5.563-3.578l.105-.038.1-.012a11.247,11.247,0,0,0,8.411-5.668,11.368,11.368,0,0,0,.572-10.191l-.037-.085-.02-.093a12.852,12.852,0,0,1,.306-6.644,13.837,13.837,0,0,1,3.617-5.533l.072-.07.081-.049a11.618,11.618,0,0,0,1.842-18.336l-.059-.055-.044-.062a12.666,12.666,0,0,1-2.353-6.127,13.728,13.728,0,0,1,1.083-6.438l.031-.074.038-.054a11.822,11.822,0,0,0-5.826-17.882l-.051-.018L157,67.84a12.335,12.335,0,0,1-4.508-4.552,13.377,13.377,0,0,1-1.551-6.189v-.041l.007-.03a12.154,12.154,0,0,0-12.932-14.475,12.148,12.148,0,0,1,10.348,3.836,12.326,12.326,0,0,1,2.87,4.979,12.6,12.6,0,0,1,.326,5.778l.006-.071a12.651,12.651,0,0,0,1.6,5.828,11.464,11.464,0,0,0,4.3,4.137l-.089-.04a12.614,12.614,0,0,1,8.116,8.053,12.756,12.756,0,0,1,.594,5.893,12.929,12.929,0,0,1-2.124,5.549l.068-.128a12.364,12.364,0,0,0-.906,5.826A11.222,11.222,0,0,0,165.3,97.6l-.1-.117a12.984,12.984,0,0,1,4.234,10.9,12.791,12.791,0,0,1-1.9,5.732,13.065,13.065,0,0,1-4.281,4.254l.152-.118a12.133,12.133,0,0,0-3.16,4.855,11.081,11.081,0,0,0-.224,5.744l-.057-.177a13.2,13.2,0,0,1,1.1,5.969A13.2,13.2,0,0,1,149.607,147.1l.205-.05a11.982,11.982,0,0,0-4.807,3.1,10.924,10.924,0,0,0-2.516,5.087l.023-.21a13.284,13.284,0,0,1-1.407,5.958,13.065,13.065,0,0,1-3.951,4.653,13.324,13.324,0,0,1-5.59,2.413,13.069,13.069,0,0,1-6.071-.365l.209.038a11.976,11.976,0,0,0-5.66.844,10.923,10.923,0,0,0-4.392,3.614l.1-.171a13.12,13.12,0,0,1-3.71,4.83,13.1,13.1,0,0,1-16.892-.284l.162.112a11.984,11.984,0,0,0-5.555-1.534,11.107,11.107,0,0,0-5.518,1.534l.139-.1a12.938,12.938,0,0,1-8.222,3.222,12.586,12.586,0,0,1-1.512-.053c-.259-.019-.473-.059-.712-.088l-.723-.118.028,0-.086-.015a12.638,12.638,0,0,1-2.85-.93,12.853,12.853,0,0,1-6.3-6.336l.079.129a12.274,12.274,0,0,0-4.518-3.758,11.215,11.215,0,0,0-5.783-.9l.115-.025a12.66,12.66,0,0,1-5.867.407,12.354,12.354,0,0,1-5.392-2.295,12.5,12.5,0,0,1-3.807-4.438,12.66,12.66,0,0,1-1.4-5.658l.011.076a12.771,12.771,0,0,0-2.64-5.443,11.6,11.6,0,0,0-5.044-3.329l.04.01a12.172,12.172,0,0,1-9.549-6.848" transform="translate(-9.493 -19.803)" fill="#3c5756"/>
                  <path id="Trazado_611028" data-name="Trazado 611028" d="M111.732,7.265A12.154,12.154,0,0,0,101,8.06l-.018.011-.026.009a12.077,12.077,0,0,1-6.277.494,13.245,13.245,0,0,1-5.69-2.812l-.035-.028-.035-.045a11.735,11.735,0,0,0-9.528-4.541A11.509,11.509,0,0,0,70.138,6l-.038.054-.064.057a12.525,12.525,0,0,1-5.765,3.061,13.665,13.665,0,0,1-6.523-.308l-.081-.023-.09-.048a11.392,11.392,0,0,0-10.222-.309,11.312,11.312,0,0,0-6.375,7.978l-.018.091-.044.1A12.8,12.8,0,0,1,36.8,21.851a13.839,13.839,0,0,1-6.165,2.373l-.107.016-.107-.01a11.5,11.5,0,0,0-11.838,8.4,11.353,11.353,0,0,0-.168,5.215l.02.1v.1a12.915,12.915,0,0,1-1.677,6.446,13.81,13.81,0,0,1-4.685,4.665l-.093.059-.093.031a11.323,11.323,0,0,0-7.11,7.313c-.114.4-.235.859-.335,1.322a12.354,12.354,0,0,0-.183,1.292,11.409,11.409,0,0,0,.089,2.651,11.591,11.591,0,0,0,1.963,4.9l.054.077.031.073a12.768,12.768,0,0,1,1.024,6.5,13.722,13.722,0,0,1-2.395,6.079l-.05.075-.053.049a11.627,11.627,0,0,0-3.676,9.807A11.819,11.819,0,0,0,6.886,98.34l.046.027.03.029a12.249,12.249,0,0,1,3.4,5.381,13.363,13.363,0,0,1,.2,6.321l-.005.03-.009.019a12.291,12.291,0,0,0-.567,8.16,13.234,13.234,0,0,0,1.046,2.6,13.361,13.361,0,0,1-1.167-2.56,12.278,12.278,0,0,1,.271-8.373l-.014.049a12.8,12.8,0,0,0-.383-6.044,11.474,11.474,0,0,0-3.36-4.938l.076.056a12.44,12.44,0,0,1-4.313-4.01,12.694,12.694,0,0,1-2.03-5.567A12.874,12.874,0,0,1,3.98,78.566l-.1.123a12.3,12.3,0,0,0,2.046-5.476A11.182,11.182,0,0,0,4.9,67.527l.086.151a12.973,12.973,0,0,1-2.3-5.594,13.161,13.161,0,0,1-.123-3.049A13.748,13.748,0,0,1,2.769,57.5c.1-.468.212-.927.36-1.449A13.085,13.085,0,0,1,11.3,47.537l-.188.09a11.977,11.977,0,0,0,4.055-4.069,11.016,11.016,0,0,0,1.385-5.528l.02.2a13.279,13.279,0,0,1,.156-6.1,13.141,13.141,0,0,1,13.852-9.78l-.214.007a12,12,0,0,0,5.366-2.006A10.969,10.969,0,0,0,39.285,15.9l-.061.186A13.156,13.156,0,0,1,41.846,10.6a12.917,12.917,0,0,1,4.793-3.689,13.223,13.223,0,0,1,5.919-1.176,12.811,12.811,0,0,1,5.8,1.623L58.19,7.29a12.1,12.1,0,0,0,5.78.4,11.094,11.094,0,0,0,5.158-2.621l-.1.112A12.839,12.839,0,0,1,73.6,1.341a13.019,13.019,0,0,1,11.524.008,12.431,12.431,0,0,1,4.482,3.816l-.07-.072a12.508,12.508,0,0,0,5.278,2.834,11.521,11.521,0,0,0,6-.28l-.044.019a12.176,12.176,0,0,1,5.46-1.506,12.341,12.341,0,0,1,5.5,1.106" transform="translate(0 0)" fill="#3c5756"/>
                </g>
              </g>
            </g>
          </g>
        </g>
        <g id="Grupo_1074144" data-name="Grupo 1074144" transform="translate(31.403 31.409)">
          <rect id="Rectángulo_378411" data-name="Rectángulo 378411" width="97.408" height="97.408" transform="translate(0 0)" fill="none"/>
        </g>
      </g>
      <g id="Grupo_1075313" data-name="Grupo 1075313" transform="translate(342.211 9183.824)">
        <g id="Grupo_1075312" data-name="Grupo 1075312" clip-path="url(#clip-path-6)">
          <path id="Trazado_615737" data-name="Trazado 615737" d="M97.832,176.056c2.146,0,4.293.009,6.439,0,2.078-.011,3.355-1.058,3.4-2.758.044-1.737-1.291-2.9-3.436-2.909-3.444-.022-6.888-.029-10.332,0a9.44,9.44,0,0,1-4.332-.948c-1.924-.939-4-1.611-5.819-2.711-4.158-2.512-8.7-2.148-13.227-2.126-1.726.008-2.3-.807-1.8-2.469a.57.57,0,0,1,.627-.491c4.489.206,9.08-.749,13.384,1.463,2.7,1.387,5.53,2.516,8.289,3.789a7.235,7.235,0,0,0,3.179.68q5.166-.052,10.332,0c3.394.03,5.393,1.694,5.979,5.061.174,1,.42,1.079,1.311.7,4.986-2.146,9.98-4.275,15.009-6.315a9.4,9.4,0,0,1,12.5,5.207c.468,1.079.358,1.6-.751,2.185-11.955,6.279-23.914,12.551-35.793,18.97a16.5,16.5,0,0,1-13.959,1.151c-4.843-1.677-9.75-3.167-14.617-4.776a11.076,11.076,0,0,0-4.154-.284c-1.2.063-1.414-.43-1.38-1.479.031-.95.056-1.447,1.315-1.537,3.837-.275,7.211,1.291,10.712,2.366,3.569,1.1,7.12,2.248,10.675,3.385a10.81,10.81,0,0,0,8.571-.68c11.777-6.188,23.507-12.465,35.275-18.669,1-.529.694-.922.177-1.511a6.711,6.711,0,0,0-7.937-1.5q-6.538,2.758-13.064,5.542c-.871.37-1.767.692-2.605,1.125a22.417,22.417,0,0,1-12.244,2.537,79.011,79.011,0,0,0-8.531-.01c-1.186.039-1.4-.384-1.385-1.449s.168-1.628,1.454-1.565c2.241.11,4.491.031,6.737.03" transform="translate(-48.019 -113.207)" fill="#3c5756"/>
          <path id="Trazado_615738" data-name="Trazado 615738" d="M113.286.036c.855-.161,1.233.3,1.539,1.039,1.268,3.085,2.618,6.136,3.872,9.227a1.79,1.79,0,0,0,1.727,1.288c3.32.333,6.626.81,9.942,1.19a1.432,1.432,0,0,1,1.4,1.078,1.389,1.389,0,0,1-.547,1.669c-2.508,2.132-4.96,4.331-7.49,6.436a2.077,2.077,0,0,0-.82,2.309c.68,3.162,1.265,6.346,1.909,9.516a1.6,1.6,0,0,1-.658,1.913c-.82.589-1.294.091-1.859-.246-2.825-1.685-5.657-3.36-8.446-5.1a1.7,1.7,0,0,0-2.03-.019c-2.893,1.664-5.834,3.244-8.751,4.868-.583.325-1.057.571-1.749.062a1.469,1.469,0,0,1-.61-1.778c.778-3.242,1.5-6.5,2.3-9.733a1.825,1.825,0,0,0-.613-2.073c-2.49-2.229-4.9-4.541-7.355-6.813a1.343,1.343,0,0,1-.53-1.668,1.482,1.482,0,0,1,1.542-1.068c3.332-.241,6.656-.586,9.989-.8a1.706,1.706,0,0,0,1.659-1.159c1.375-3.039,2.8-6.055,4.2-9.082.276-.6.493-1.252,1.37-1.052m13.687,15.271c-3.049-.377-5.659-.778-8.284-.99a2.224,2.224,0,0,1-2.154-1.645c-.971-2.464-2.056-4.883-3.109-7.356-.227.16-.345.2-.382.276a32.428,32.428,0,0,0-2.174,4.741c-.856,2.981-2.654,4.1-5.708,4.042a18.136,18.136,0,0,0-5.735.59c2.112,1.96,3.995,3.806,5.993,5.516a2.216,2.216,0,0,1,.8,2.578c-.671,2.584-1.229,5.2-1.907,8.123,2.665-1.477,5.071-2.745,7.4-4.134a2.034,2.034,0,0,1,2.44.045c2.3,1.459,4.662,2.835,7.241,4.39-.574-3.016-1.034-5.756-1.642-8.463a1.889,1.889,0,0,1,.8-2.132c2.083-1.745,4.106-3.56,6.418-5.579" transform="translate(-66.132 0)" fill="#3c5756"/>
          <path id="Trazado_615739" data-name="Trazado 615739" d="M34.965,59.436c2.13-1.176,3.936-2.121,5.685-3.16a2.138,2.138,0,0,1,2.49.03c1.723,1.086,3.484,2.112,5.526,3.342-.372-2.044-.677-3.81-1.019-5.57a4.344,4.344,0,0,1,2.67-4.815c.874-.286.994.76,1.486,1.158.3.241.869.734.253,1.073-2.61,1.435-1.135,3.559-.925,5.405a43.926,43.926,0,0,0,1.058,5.264c.207.859-.221,1.236-.8,1.711-.645.531-1.08.181-1.592-.129-2.345-1.416-4.715-2.793-7.03-4.256a1.565,1.565,0,0,0-1.879-.013c-2.372,1.37-4.806,2.633-7.169,4.016a1.471,1.471,0,0,1-1.864-.189c-.615-.438-.6-.871-.438-1.531.658-2.6,1.217-5.232,1.869-7.837a1.853,1.853,0,0,0-.608-2.1c-2.019-1.781-3.936-3.677-5.969-5.44a1.324,1.324,0,0,1-.471-1.663c.22-.642.453-1.048,1.294-1.1,2.785-.161,5.56-.484,8.344-.683a1.631,1.631,0,0,0,1.559-1.11c1.111-2.5,2.323-4.959,3.408-7.471a1.259,1.259,0,0,1,1.3-.911,1.3,1.3,0,0,1,1.5.874c1,2.44,2.117,4.833,3.073,7.29.39,1,.862,1.561,2,1.577.445.006,1.263-.1,1.315.629a6.785,6.785,0,0,1-.3,2.2c-.087.319-.529.107-.811.092-3.523-.184-3.52-.186-4.9-3.465-.558-1.326-1.131-2.646-1.8-4.207-.973,2.077-1.889,3.922-2.7,5.811a2.232,2.232,0,0,1-2.154,1.509c-1.98.105-3.955.3-6.415.49,1.659,1.552,2.93,2.914,4.381,4.045a2.791,2.791,0,0,1,1.013,3.385c-.5,1.76-.862,3.558-1.38,5.744" transform="translate(-18.298 -23.437)" fill="#3c5756"/>
          <path id="Trazado_615740" data-name="Trazado 615740" d="M201.742,59.4c1.946-1.068,3.678-1.917,5.3-2.943a2.665,2.665,0,0,1,3.284.08c1.563,1.046,3.217,1.954,5.115,3.09-.406-2.17-.681-4.035-1.123-5.86a2.632,2.632,0,0,1,.995-3.121c1.5-1.138,2.87-2.454,4.618-3.973-2.558-.311-4.777-.628-7.007-.825-.783-.069-1.066-.181-1.338-1.069-.634-2.077-1.613-4.05-2.583-6.381-.98,2.084-1.826,3.886-2.674,5.687-.63,1.337-2.826,2.321-4.121,1.725-.821-.378-.409-1.32-.579-2-.142-.567.158-.882.714-.838,1.261.1,1.676-.75,2.1-1.7,1-2.225,2.065-4.421,3.092-6.635.3-.653.583-1.177,1.489-1.2,1.008-.023,1.257.617,1.551,1.307,1.035,2.428,2.085,4.849,3.083,7.291a1.481,1.481,0,0,0,1.383,1.1q3.792.37,7.566.915c.713.1,1.658-.059,1.962,1a2.077,2.077,0,0,1-.95,2.31c-1.9,1.619-3.743,3.3-5.663,4.89a1.666,1.666,0,0,0-.62,1.929c.578,2.573,1.015,5.178,1.552,7.761a1.635,1.635,0,0,1-.679,1.9c-.73.554-1.175.179-1.718-.146-2.307-1.385-4.634-2.739-6.906-4.179a1.7,1.7,0,0,0-2.011-.012c-2.376,1.365-4.8,2.645-7.176,4.009a1.151,1.151,0,0,1-1.585-.073c-.483-.442-.914-.717-.68-1.579.639-2.351.97-4.791,1.692-7.112a2.791,2.791,0,0,0-1.076-3.576c-.373-.269-1.176-.588-.849-1.18a8.675,8.675,0,0,1,1.628-1.727.277.277,0,0,1,.267.013c1.106,1.005,2.257,1.969,3.284,3.051.637.671.164,1.53,0,2.285-.4,1.835-.843,3.66-1.339,5.787" transform="translate(-138.575 -23.423)" fill="#3c5756"/>
          <path id="Trazado_615741" data-name="Trazado 615741" d="M17.51,167.694q0,7.332,0,14.664c-.005,2.593-1.035,3.619-3.615,3.622-4.19.005-8.381-.053-12.569.034C.052,186.041.009,185.469,0,184.5c-.01-1,.1-1.536,1.346-1.51,3.989.081,7.98,0,11.97.052,1.052.014,1.349-.319,1.346-1.355q-.051-14.065,0-28.131c.005-1.155-.378-1.418-1.465-1.4-3.989.06-7.981-.024-11.97.052-1.209.023-1.219-.56-1.228-1.452-.009-.919.066-1.454,1.247-1.434,4.288.071,8.579.012,12.868.035,2.376.013,3.378,1.019,3.386,3.374.016,4.988,0,9.976,0,14.964" transform="translate(0 -104.599)" fill="#3c5756"/>
          <path id="Trazado_615742" data-name="Trazado 615742" d="M26.492,242.18a2.05,2.05,0,0,1-2.17,1.958,2.025,2.025,0,1,1,.267-4.042,2.056,2.056,0,0,1,1.9,2.084" transform="translate(-15.7 -168.183)" fill="#3c5756"/>
        </g>
      </g>
    </g>
  </g>
</svg>
